<svg id="FINAL" xmlns="http://www.w3.org/2000/svg" viewBox="0 0 151.28 31.38"><defs><style>.cls-1{fill:#414042;}</style></defs><title>InC-UNKNOWN.dark</title><path class="cls-1" d="M1005.86,1929.65v-9.11h2.65v9.25c0,1.6.69,2.36,1.76,2.36s1.76-.73,1.76-2.34v-9.27h2.63v9.09c0,3.39-1.78,5-4.42,5S1005.86,1933,1005.86,1929.65Z" transform="translate(-968.42 -1920.33)"/><path class="cls-1" d="M1016.71,1920.54h2.45l3.94,7.56v-7.56h2.59v13.86h-2.3l-4.1-7.88v7.88h-2.59v-13.86Z" transform="translate(-968.42 -1920.33)"/><path class="cls-1" d="M1027.83,1920.54h2.65v5.9l3.31-5.9h3.09l-3.56,5.86,3.68,8h-3l-2.53-5.49-0.93,1.56v3.92h-2.65v-13.86Z" transform="translate(-968.42 -1920.33)"/><path class="cls-1" d="M1038.2,1920.54h2.45l3.94,7.56v-7.56h2.59v13.86h-2.3l-4.1-7.88v7.88h-2.59v-13.86Z" transform="translate(-968.42 -1920.33)"/><path class="cls-1" d="M1049,1927.71v-0.46c0-4.38,2.06-6.93,5-6.93s5,2.55,5,6.91v0.46c0,4.36-2.06,6.93-5,6.93S1049,1932.07,1049,1927.71Zm7.37-.1v-0.26c0-3.13-1-4.59-2.34-4.59s-2.32,1.45-2.32,4.57v0.26c0,3.13,1,4.59,2.34,4.59S1056.32,1930.74,1056.32,1927.61Z" transform="translate(-968.42 -1920.33)"/><path class="cls-1" d="M1059.56,1920.54h2.77l1.7,8.83,1.9-8.85h2.38l1.9,8.85,1.7-8.83h2.71l-3.07,13.92H1069l-1.88-8.53-1.88,8.53h-2.57Z" transform="translate(-968.42 -1920.33)"/><path class="cls-1" d="M1076,1920.54h2.46l3.94,7.56v-7.56H1085v13.86h-2.3l-4.1-7.88v7.88H1076v-13.86Z" transform="translate(-968.42 -1920.33)"/><path class="cls-1" d="M1006,1937.63h3.92a4.78,4.78,0,0,1,3.46,1.23,4.43,4.43,0,0,1,1.15,3.25v0.12a4.17,4.17,0,0,1-2.12,3.9l2.44,5.37h-3l-2.08-4.69h-1.17v4.69H1006v-13.86Zm3.7,6.81a2,2,0,0,0,2.18-2.2,2,2,0,0,0-2.24-2.18h-1v4.38h1Z" transform="translate(-968.42 -1920.33)"/><path class="cls-1" d="M1016.31,1937.63h2.63v13.86h-2.63v-13.86Z" transform="translate(-968.42 -1920.33)"/><path class="cls-1" d="M1020.78,1944.72v-0.32c0-4.28,2.34-6.93,5.6-6.93a5.3,5.3,0,0,1,3.52,1.31l-1.46,2.18a2.61,2.61,0,0,0-2-1c-1.7,0-2.91,1.64-2.91,4.42v0.28c0,3.21,1.37,4.53,2.93,4.53a2.2,2.2,0,0,0,1.13-.28v-3h-1.88v-2.34H1030v6.87a6.86,6.86,0,0,1-3.78,1.19C1023.18,1951.65,1020.78,1949.33,1020.78,1944.72Z" transform="translate(-968.42 -1920.33)"/><path class="cls-1" d="M1031.95,1937.63h2.65v5.64H1038v-5.64h2.65v13.86H1038v-5.72h-3.39v5.72h-2.65v-13.86Z" transform="translate(-968.42 -1920.33)"/><path class="cls-1" d="M1044.78,1940.12h-2.63v-2.49h7.92v2.49h-2.63v11.37h-2.65v-11.37Z" transform="translate(-968.42 -1920.33)"/><path class="cls-1" d="M1050.38,1949.78l1.58-2.06a4,4,0,0,0,2.65,1.45,1.42,1.42,0,0,0,1.54-1.43c0-.61-0.32-1.09-1.88-2-2.1-1.25-3.33-2.34-3.33-4.28v0a3.86,3.86,0,0,1,4.18-3.92,5.19,5.19,0,0,1,3.74,1.6l-1.62,2a3.2,3.2,0,0,0-2.24-1.19,1.25,1.25,0,0,0-1.39,1.21c0,0.65.32,1.13,2.24,2.32s3,2.28,3,4.12v0a4,4,0,0,1-4.18,4A5.92,5.92,0,0,1,1050.38,1949.78Z" transform="translate(-968.42 -1920.33)"/><path class="cls-1" d="M1060.31,1937.63H1063v5.64h3.39v-5.64H1069v13.86h-2.65v-5.72H1063v5.72h-2.65v-13.86Z" transform="translate(-968.42 -1920.33)"/><path class="cls-1" d="M1070.76,1944.79v-0.46c0-4.38,2.06-6.93,5-6.93s5,2.55,5,6.91v0.46c0,4.36-2.06,6.93-5,6.93S1070.76,1949.15,1070.76,1944.79Zm7.37-.1v-0.26c0-3.13-1-4.59-2.34-4.59s-2.32,1.45-2.32,4.57v0.26c0,3.13,1,4.59,2.34,4.59S1078.13,1947.82,1078.13,1944.7Z" transform="translate(-968.42 -1920.33)"/><path class="cls-1" d="M1082.6,1937.63h2.65V1949h4.16v2.48h-6.81v-13.86Z" transform="translate(-968.42 -1920.33)"/><path class="cls-1" d="M1090.87,1937.63h3.43c3.62,0,5.78,2.51,5.78,6.77v0.32c0,4.24-2.16,6.77-5.78,6.77h-3.43v-13.86Zm2.65,2.42v9h0.73c1.84,0,3.09-1.33,3.09-4.42v-0.2c0-3.09-1.25-4.42-3.09-4.42h-0.73Z" transform="translate(-968.42 -1920.33)"/><path class="cls-1" d="M1101.82,1937.63H1109v2.46h-4.57v3.21h4v2.46h-4V1949h4.65v2.46h-7.29v-13.86Z" transform="translate(-968.42 -1920.33)"/><path class="cls-1" d="M1110.84,1937.63h3.92a4.78,4.78,0,0,1,3.46,1.23,4.43,4.43,0,0,1,1.15,3.25v0.12a4.17,4.17,0,0,1-2.12,3.9l2.44,5.37h-3l-2.08-4.69h-1.17v4.69h-2.65v-13.86Zm3.7,6.81a2,2,0,0,0,2.18-2.2,2,2,0,0,0-2.24-2.18h-1v4.38h1Z" transform="translate(-968.42 -1920.33)"/><path class="cls-1" d="M983.92,1920.55a15.5,15.5,0,0,0-15.5,15.5v15.5h15.5a15.5,15.5,0,0,0,15.5-15.5v-15.5h-15.5Zm0,28.17a12.67,12.67,0,1,1,12.67-12.67A12.67,12.67,0,0,1,983.92,1948.72Z" transform="translate(-968.42 -1920.33)"/><path class="cls-1" d="M980.5,1939.8a4.53,4.53,0,0,0,3.32,1.37,5.35,5.35,0,0,0,4.37-2.12l2.32,2.39a8.77,8.77,0,0,1-12.71.74,8.59,8.59,0,0,1,0-12,8.34,8.34,0,0,1,6.06-2.42,8.59,8.59,0,0,1,6.7,3l-2.25,2.56a5.29,5.29,0,0,0-4.28-2.14,5,5,0,0,0-3.5,1.34,4.66,4.66,0,0,0-1.45,3.6A4.92,4.92,0,0,0,980.5,1939.8Z" transform="translate(-968.42 -1920.33)"/></svg>