<svg id="FINAL" xmlns="http://www.w3.org/2000/svg" viewBox="0 0 151.95 31.36"><defs><style>.cls-1{fill:#fff;}.cls-2{fill:#008cc8;}.cls-3{fill:#414042;}</style></defs><title>InC-EDUCATIONAL.dark-white-interior-blue-type</title><circle class="cls-1" cx="15.51" cy="15.35" r="13.91"/><path class="cls-2" d="M1753.51,2754.4h7.21v2.46h-4.57v3.21h4v2.46h-4v3.29h4.65v2.46h-7.29V2754.4Z" transform="translate(-1715.95 -2754.18)"/><path class="cls-2" d="M1762.53,2754.4H1766c3.62,0,5.78,2.52,5.78,6.77v0.32c0,4.24-2.16,6.77-5.78,6.77h-3.43V2754.4Zm2.65,2.42v9h0.73c1.84,0,3.09-1.33,3.09-4.42v-0.2c0-3.09-1.25-4.42-3.09-4.42h-0.73Z" transform="translate(-1715.95 -2754.18)"/><path class="cls-2" d="M1773.36,2763.51v-9.11H1776v9.25c0,1.6.69,2.36,1.76,2.36s1.76-.73,1.76-2.34v-9.27h2.63v9.09c0,3.39-1.78,5-4.42,5S1773.36,2766.85,1773.36,2763.51Z" transform="translate(-1715.95 -2754.18)"/><path class="cls-2" d="M1783.83,2761.49v-0.32c0-4.51,2.22-6.93,5.21-6.93a4.49,4.49,0,0,1,3.31,1.35l-1.51,2.12a2.64,2.64,0,0,0-1.82-.93c-1.37,0-2.48,1.52-2.48,4.49v0.1c0,3.17,1.19,4.52,2.44,4.52a2.73,2.73,0,0,0,2-1l1.41,2.06a4.87,4.87,0,0,1-3.49,1.5C1785.79,2768.42,1783.83,2766,1783.83,2761.49Z" transform="translate(-1715.95 -2754.18)"/><path class="cls-2" d="M1796.77,2754.34h2.67l3.86,13.92h-2.71l-0.75-2.89h-3.56l-0.73,2.89h-2.61Zm2.44,8.67-1.13-4.55-1.17,4.55h2.3Z" transform="translate(-1715.95 -2754.18)"/><path class="cls-2" d="M1805.52,2756.89h-2.63v-2.5h7.92v2.5h-2.63v11.37h-2.65v-11.37Z" transform="translate(-1715.95 -2754.18)"/><path class="cls-2" d="M1812.39,2754.4H1815v13.86h-2.63V2754.4Z" transform="translate(-1715.95 -2754.18)"/><path class="cls-2" d="M1816.86,2761.56v-0.46c0-4.38,2.06-6.93,5-6.93s5,2.55,5,6.91v0.46c0,4.36-2.06,6.93-5,6.93S1816.86,2765.92,1816.86,2761.56Zm7.37-.1v-0.26c0-3.13-1-4.59-2.34-4.59s-2.32,1.45-2.32,4.57v0.26c0,3.13,1,4.59,2.34,4.59S1824.23,2764.59,1824.23,2761.47Z" transform="translate(-1715.95 -2754.18)"/><path class="cls-2" d="M1828.7,2754.4h2.46l3.94,7.56v-7.56h2.59v13.86h-2.3l-4.1-7.88v7.88h-2.59V2754.4Z" transform="translate(-1715.95 -2754.18)"/><path class="cls-2" d="M1842.79,2754.34h2.67l3.86,13.92h-2.71l-0.75-2.89h-3.56l-0.73,2.89H1839Zm2.44,8.67-1.13-4.55-1.17,4.55h2.3Z" transform="translate(-1715.95 -2754.18)"/><path class="cls-2" d="M1850.57,2754.4h2.65v11.39h4.16v2.48h-6.81V2754.4Z" transform="translate(-1715.95 -2754.18)"/><path class="cls-2" d="M1753.39,2780.59v-9.11H1756v9.25c0,1.6.69,2.36,1.76,2.36s1.76-.73,1.76-2.34v-9.27h2.63v9.09c0,3.39-1.78,5-4.42,5S1753.39,2783.93,1753.39,2780.59Z" transform="translate(-1715.95 -2754.18)"/><path class="cls-2" d="M1763.16,2783.64l1.58-2.06a4,4,0,0,0,2.65,1.45,1.42,1.42,0,0,0,1.54-1.43c0-.61-0.32-1.09-1.88-2-2.1-1.25-3.33-2.34-3.33-4.28v0a3.86,3.86,0,0,1,4.18-3.92,5.18,5.18,0,0,1,3.74,1.6l-1.62,2a3.2,3.2,0,0,0-2.24-1.19,1.25,1.25,0,0,0-1.39,1.21c0,0.65.32,1.13,2.24,2.32s3,2.28,3,4.12v0a4,4,0,0,1-4.18,4A5.92,5.92,0,0,1,1763.16,2783.64Z" transform="translate(-1715.95 -2754.18)"/><path class="cls-2" d="M1773.1,2771.48h7.21v2.46h-4.57v3.21h4v2.46h-4v3.29h4.65v2.46h-7.29v-13.86Z" transform="translate(-1715.95 -2754.18)"/><path class="cls-2" d="M1785.77,2771.48h3.45c2.89,0,4.79,1.62,4.79,4.71v0c0,3.17-2,4.71-4.71,4.83h-0.87v4.28h-2.65v-13.86Zm3.35,7.17a2.1,2.1,0,0,0,2.22-2.36c0-1.52-.69-2.38-2.2-2.38h-0.71v4.73h0.69Z" transform="translate(-1715.95 -2754.18)"/><path class="cls-2" d="M1795.47,2771.48h7.21v2.46h-4.57v3.21h4v2.46h-4v3.29h4.65v2.46h-7.29v-13.86Z" transform="translate(-1715.95 -2754.18)"/><path class="cls-2" d="M1804.49,2771.48h3.92a4.78,4.78,0,0,1,3.46,1.23A4.43,4.43,0,0,1,1813,2776v0.12a4.17,4.17,0,0,1-2.12,3.9l2.44,5.37h-3l-2.08-4.69h-1.17v4.69h-2.65v-13.86Zm3.7,6.81a2,2,0,0,0,2.18-2.2,2,2,0,0,0-2.24-2.18h-1v4.38h1Z" transform="translate(-1715.95 -2754.18)"/><path class="cls-2" d="M1814.74,2771.48h2.71l2.44,5.37,2.42-5.37H1825v13.86h-2.59v-8.63l-2.55,5.51h0l-2.55-5.47v8.59h-2.55v-13.86Z" transform="translate(-1715.95 -2754.18)"/><path class="cls-2" d="M1827.23,2771.48h2.63v13.86h-2.63v-13.86Z" transform="translate(-1715.95 -2754.18)"/><path class="cls-2" d="M1834.08,2774h-2.63v-2.49h7.92V2774h-2.63v11.37h-2.65V2774Z" transform="translate(-1715.95 -2754.18)"/><path class="cls-2" d="M1842.87,2774h-2.63v-2.49h7.92V2774h-2.63v11.37h-2.65V2774Z" transform="translate(-1715.95 -2754.18)"/><path class="cls-2" d="M1849.66,2771.48h7.21v2.46h-4.57v3.21h4v2.46h-4v3.29h4.65v2.46h-7.29v-13.86Z" transform="translate(-1715.95 -2754.18)"/><path class="cls-2" d="M1858.69,2771.48h3.43c3.62,0,5.78,2.51,5.78,6.77v0.32c0,4.24-2.16,6.77-5.78,6.77h-3.43v-13.86Zm2.65,2.42v9h0.73c1.84,0,3.09-1.33,3.09-4.42v-0.2c0-3.09-1.25-4.42-3.09-4.42h-0.73Z" transform="translate(-1715.95 -2754.18)"/><path class="cls-3" d="M1731.45,2754.4a15.5,15.5,0,0,0-15.5,15.5v15.5h15.5a15.5,15.5,0,0,0,15.5-15.5v-15.5h-15.5Zm0,28.17a12.67,12.67,0,1,1,12.67-12.67A12.67,12.67,0,0,1,1731.45,2782.57Z" transform="translate(-1715.95 -2754.18)"/><path class="cls-3" d="M1728,2773.65a4.53,4.53,0,0,0,3.32,1.37,5.35,5.35,0,0,0,4.37-2.12l2.32,2.39a8.77,8.77,0,0,1-12.71.74,8.59,8.59,0,0,1,0-12,8.34,8.34,0,0,1,6.06-2.42,8.59,8.59,0,0,1,6.7,3l-2.25,2.56a5.29,5.29,0,0,0-4.28-2.14,5,5,0,0,0-3.5,1.34,4.66,4.66,0,0,0-1.45,3.6A4.92,4.92,0,0,0,1728,2773.65Z" transform="translate(-1715.95 -2754.18)"/></svg>