<svg id="FINAL" xmlns="http://www.w3.org/2000/svg" viewBox="0 0 122.93 31.38"><defs><style>.cls-1{fill:#414042;}</style></defs><title>InC-EU-ORPHAN.dark</title><path class="cls-1" d="M1006,1858h7.21v2.46h-4.57v3.21h4v2.46h-4v3.29h4.65v2.46H1006V1858Z" transform="translate(-968.42 -1857.8)"/><path class="cls-1" d="M1014.89,1867.13V1858h2.65v9.25c0,1.6.69,2.36,1.76,2.36s1.76-.73,1.76-2.34V1858h2.63v9.09c0,3.39-1.78,5-4.42,5S1014.89,1870.48,1014.89,1867.13Z" transform="translate(-968.42 -1857.8)"/><path class="cls-1" d="M1029,1865.19v-0.46c0-4.38,2.06-6.93,5-6.93s5,2.55,5,6.91v0.46c0,4.36-2.06,6.93-5,6.93S1029,1869.55,1029,1865.19Zm7.37-.1v-0.26c0-3.13-1-4.59-2.34-4.59s-2.32,1.45-2.32,4.57v0.26c0,3.13,1,4.59,2.34,4.59S1036.37,1868.22,1036.37,1865.09Z" transform="translate(-968.42 -1857.8)"/><path class="cls-1" d="M1040.84,1858h3.92a4.78,4.78,0,0,1,3.47,1.23,4.43,4.43,0,0,1,1.15,3.25v0.12a4.17,4.17,0,0,1-2.12,3.9l2.44,5.37h-3l-2.08-4.69h-1.17v4.69h-2.65V1858Zm3.7,6.81a2,2,0,0,0,2.18-2.2,2,2,0,0,0-2.24-2.18h-1v4.38h1Z" transform="translate(-968.42 -1857.8)"/><path class="cls-1" d="M1051.09,1858h3.45c2.89,0,4.79,1.62,4.79,4.71v0c0,3.17-2,4.71-4.71,4.83h-0.87v4.28h-2.65V1858Zm3.35,7.17a2.1,2.1,0,0,0,2.22-2.36c0-1.52-.69-2.38-2.2-2.38h-0.71v4.73h0.69Z" transform="translate(-968.42 -1857.8)"/><path class="cls-1" d="M1060.79,1858h2.65v5.64h3.39V1858h2.65v13.86h-2.65v-5.72h-3.39v5.72h-2.65V1858Z" transform="translate(-968.42 -1857.8)"/><path class="cls-1" d="M1074.58,1858h2.67l3.86,13.92h-2.71l-0.75-2.89h-3.56l-0.73,2.89h-2.61Zm2.44,8.67-1.13-4.55-1.17,4.55h2.3Z" transform="translate(-968.42 -1857.8)"/><path class="cls-1" d="M1082.36,1858h2.46l3.94,7.56V1858h2.59v13.86h-2.3L1085,1864v7.88h-2.59V1858Z" transform="translate(-968.42 -1857.8)"/><path class="cls-1" d="M1005.17,1875.1h2.77l1.7,8.83,1.9-8.85h2.38l1.9,8.85,1.7-8.83h2.71l-3.07,13.92h-2.59l-1.88-8.53-1.88,8.53h-2.57Z" transform="translate(-968.42 -1857.8)"/><path class="cls-1" d="M1020.79,1882.27v-0.46c0-4.38,2.06-6.93,5-6.93s5,2.55,5,6.91v0.46c0,4.36-2.06,6.93-5,6.93S1020.79,1886.63,1020.79,1882.27Zm7.37-.1v-0.26c0-3.13-1-4.59-2.34-4.59s-2.32,1.45-2.32,4.57v0.26c0,3.13,1,4.59,2.34,4.59S1028.15,1885.3,1028.15,1882.17Z" transform="translate(-968.42 -1857.8)"/><path class="cls-1" d="M1032.62,1875.1h3.92a4.78,4.78,0,0,1,3.47,1.23,4.43,4.43,0,0,1,1.15,3.25v0.12a4.17,4.17,0,0,1-2.12,3.9l2.44,5.37h-3l-2.08-4.69h-1.17V1889h-2.65V1875.1Zm3.7,6.81a2,2,0,0,0,2.18-2.2,2,2,0,0,0-2.24-2.18h-1v4.38h1Z" transform="translate(-968.42 -1857.8)"/><path class="cls-1" d="M1042.87,1875.1h2.65v5.9l3.31-5.9h3.09l-3.56,5.86,3.68,8h-3l-2.53-5.49-0.93,1.56V1889h-2.65V1875.1Z" transform="translate(-968.42 -1857.8)"/><path class="cls-1" d="M983.92,1858a15.5,15.5,0,0,0-15.5,15.5V1889h15.5a15.5,15.5,0,0,0,15.5-15.5V1858h-15.5Zm0,28.17a12.67,12.67,0,1,1,12.67-12.67A12.67,12.67,0,0,1,983.92,1886.2Z" transform="translate(-968.42 -1857.8)"/><path class="cls-1" d="M980.5,1877.28a4.53,4.53,0,0,0,3.32,1.37,5.35,5.35,0,0,0,4.37-2.12l2.32,2.39a8.77,8.77,0,0,1-12.71.74,8.59,8.59,0,0,1,0-12,8.34,8.34,0,0,1,6.06-2.42,8.59,8.59,0,0,1,6.7,3l-2.25,2.56a5.29,5.29,0,0,0-4.28-2.14,5,5,0,0,0-3.5,1.34,4.66,4.66,0,0,0-1.45,3.6A4.92,4.92,0,0,0,980.5,1877.28Z" transform="translate(-968.42 -1857.8)"/></svg>