<svg id="FINAL" xmlns="http://www.w3.org/2000/svg" viewBox="0 0 151.28 31.38"><defs><style>.cls-1{fill:#fff;}.cls-2{fill:#414042;}</style></defs><title>InC-UNKNOWN.dark-white-interior</title><circle class="cls-1" cx="15.43" cy="15.7" r="13.81"/><path class="cls-2" d="M1768,2319.23v-9.11h2.65v9.25c0,1.6.69,2.36,1.76,2.36s1.76-.73,1.76-2.34v-9.27h2.63v9.09c0,3.39-1.78,5-4.42,5S1768,2322.57,1768,2319.23Z" transform="translate(-1730.57 -2309.9)"/><path class="cls-2" d="M1778.86,2310.12h2.45l3.94,7.56v-7.56h2.59V2324h-2.3l-4.1-7.88V2324h-2.59v-13.86Z" transform="translate(-1730.57 -2309.9)"/><path class="cls-2" d="M1790,2310.12h2.65v5.9l3.31-5.9H1799l-3.56,5.86,3.68,8h-3l-2.53-5.49-0.93,1.56V2324H1790v-13.86Z" transform="translate(-1730.57 -2309.9)"/><path class="cls-2" d="M1800.35,2310.12h2.45l3.94,7.56v-7.56h2.59V2324H1807l-4.1-7.88V2324h-2.59v-13.86Z" transform="translate(-1730.57 -2309.9)"/><path class="cls-2" d="M1811.1,2317.28v-0.46c0-4.38,2.06-6.93,5-6.93s5,2.55,5,6.91v0.46c0,4.36-2.06,6.93-5,6.93S1811.1,2321.64,1811.1,2317.28Zm7.37-.1v-0.26c0-3.13-1-4.59-2.34-4.59s-2.32,1.45-2.32,4.57v0.26c0,3.13,1,4.59,2.34,4.59S1818.47,2320.31,1818.47,2317.19Z" transform="translate(-1730.57 -2309.9)"/><path class="cls-2" d="M1821.71,2310.12h2.77l1.7,8.83,1.9-8.85h2.38l1.9,8.85,1.7-8.83h2.71l-3.07,13.92h-2.59l-1.88-8.53-1.88,8.53h-2.57Z" transform="translate(-1730.57 -2309.9)"/><path class="cls-2" d="M1838.12,2310.12h2.46l3.94,7.56v-7.56h2.59V2324h-2.3l-4.1-7.88V2324h-2.59v-13.86Z" transform="translate(-1730.57 -2309.9)"/><path class="cls-2" d="M1768.13,2327.2h3.92a4.78,4.78,0,0,1,3.46,1.23,4.43,4.43,0,0,1,1.15,3.25v0.12a4.17,4.17,0,0,1-2.12,3.9l2.44,5.37h-3l-2.08-4.69h-1.17v4.69h-2.65V2327.2Zm3.7,6.81a2,2,0,0,0,2.18-2.2,2,2,0,0,0-2.24-2.18h-1V2334h1Z" transform="translate(-1730.57 -2309.9)"/><path class="cls-2" d="M1778.46,2327.2h2.63v13.86h-2.63V2327.2Z" transform="translate(-1730.57 -2309.9)"/><path class="cls-2" d="M1782.94,2334.29V2334c0-4.28,2.34-6.93,5.6-6.93a5.3,5.3,0,0,1,3.52,1.31l-1.46,2.18a2.61,2.61,0,0,0-2-1c-1.7,0-2.91,1.64-2.91,4.42v0.28c0,3.21,1.37,4.53,2.93,4.53a2.2,2.2,0,0,0,1.13-.28v-3h-1.88v-2.34h4.36V2340a6.86,6.86,0,0,1-3.78,1.19C1785.33,2341.22,1782.94,2338.9,1782.94,2334.29Z" transform="translate(-1730.57 -2309.9)"/><path class="cls-2" d="M1794.1,2327.2h2.65v5.64h3.39v-5.64h2.65v13.86h-2.65v-5.72h-3.39v5.72h-2.65V2327.2Z" transform="translate(-1730.57 -2309.9)"/><path class="cls-2" d="M1806.93,2329.69h-2.63v-2.49h7.92v2.49h-2.63v11.37h-2.65v-11.37Z" transform="translate(-1730.57 -2309.9)"/><path class="cls-2" d="M1812.53,2339.36l1.58-2.06a4,4,0,0,0,2.65,1.45,1.42,1.42,0,0,0,1.54-1.43c0-.61-0.32-1.09-1.88-2-2.1-1.25-3.33-2.34-3.33-4.28v0a3.86,3.86,0,0,1,4.18-3.92,5.19,5.19,0,0,1,3.74,1.6l-1.62,2a3.2,3.2,0,0,0-2.24-1.19,1.25,1.25,0,0,0-1.39,1.21c0,0.65.32,1.13,2.24,2.32s3,2.28,3,4.12v0a4,4,0,0,1-4.18,4A5.92,5.92,0,0,1,1812.53,2339.36Z" transform="translate(-1730.57 -2309.9)"/><path class="cls-2" d="M1822.46,2327.2h2.65v5.64h3.39v-5.64h2.65v13.86h-2.65v-5.72h-3.39v5.72h-2.65V2327.2Z" transform="translate(-1730.57 -2309.9)"/><path class="cls-2" d="M1832.91,2334.37v-0.46c0-4.38,2.06-6.93,5-6.93s5,2.55,5,6.91v0.46c0,4.36-2.06,6.93-5,6.93S1832.91,2338.72,1832.91,2334.37Zm7.37-.1V2334c0-3.13-1-4.59-2.34-4.59s-2.32,1.45-2.32,4.57v0.26c0,3.13,1,4.59,2.34,4.59S1840.28,2337.4,1840.28,2334.27Z" transform="translate(-1730.57 -2309.9)"/><path class="cls-2" d="M1844.75,2327.2h2.65v11.39h4.16v2.48h-6.81V2327.2Z" transform="translate(-1730.57 -2309.9)"/><path class="cls-2" d="M1853,2327.2h3.43c3.62,0,5.78,2.51,5.78,6.77v0.32c0,4.24-2.16,6.77-5.78,6.77H1853V2327.2Zm2.65,2.42v9h0.73c1.84,0,3.09-1.33,3.09-4.42V2334c0-3.09-1.25-4.42-3.09-4.42h-0.73Z" transform="translate(-1730.57 -2309.9)"/><path class="cls-2" d="M1864,2327.2h7.21v2.46h-4.57v3.21h4v2.46h-4v3.29h4.65v2.46H1864V2327.2Z" transform="translate(-1730.57 -2309.9)"/><path class="cls-2" d="M1873,2327.2h3.92a4.78,4.78,0,0,1,3.46,1.23,4.43,4.43,0,0,1,1.15,3.25v0.12a4.17,4.17,0,0,1-2.12,3.9l2.44,5.37h-3l-2.08-4.69h-1.17v4.69H1873V2327.2Zm3.7,6.81a2,2,0,0,0,2.18-2.2,2,2,0,0,0-2.24-2.18h-1V2334h1Z" transform="translate(-1730.57 -2309.9)"/><path class="cls-2" d="M1746.07,2310.12a15.5,15.5,0,0,0-15.5,15.5v15.5h15.5a15.5,15.5,0,0,0,15.5-15.5v-15.5h-15.5Zm0,28.17a12.67,12.67,0,1,1,12.67-12.67A12.67,12.67,0,0,1,1746.07,2338.29Z" transform="translate(-1730.57 -2309.9)"/><path class="cls-2" d="M1742.65,2329.37a4.53,4.53,0,0,0,3.32,1.37,5.35,5.35,0,0,0,4.37-2.12l2.32,2.39a8.77,8.77,0,0,1-12.71.74,8.59,8.59,0,0,1,0-12,8.34,8.34,0,0,1,6.06-2.42,8.59,8.59,0,0,1,6.7,3l-2.25,2.56a5.29,5.29,0,0,0-4.28-2.14,5,5,0,0,0-3.5,1.34,4.66,4.66,0,0,0-1.45,3.6A4.92,4.92,0,0,0,1742.65,2329.37Z" transform="translate(-1730.57 -2309.9)"/></svg>