<svg id="FINAL" xmlns="http://www.w3.org/2000/svg" viewBox="0 0 122.93 31.38"><defs><style>.cls-1{fill:#fff;}</style></defs><title>InC-EU-ORPHAN.white</title><path class="cls-1" d="M2622,1544.52h7.21V1547h-4.57v3.21h4v2.46h-4v3.29h4.65v2.46H2622v-13.86Z" transform="translate(-2584.43 -1544.3)"/><path class="cls-1" d="M2630.9,1553.63v-9.11h2.65v9.25c0,1.6.69,2.36,1.76,2.36s1.76-.73,1.76-2.34v-9.27h2.63v9.09c0,3.39-1.78,5-4.42,5S2630.9,1557,2630.9,1553.63Z" transform="translate(-2584.43 -1544.3)"/><path class="cls-1" d="M2645,1551.69v-0.46c0-4.38,2.06-6.93,5-6.93s5,2.55,5,6.91v0.46c0,4.36-2.06,6.93-5,6.93S2645,1556,2645,1551.69Zm7.37-.1v-0.26c0-3.13-1-4.59-2.34-4.59s-2.32,1.45-2.32,4.57v0.26c0,3.13,1,4.59,2.34,4.59S2652.38,1554.72,2652.38,1551.59Z" transform="translate(-2584.43 -1544.3)"/><path class="cls-1" d="M2656.85,1544.52h3.92a4.78,4.78,0,0,1,3.47,1.23,4.43,4.43,0,0,1,1.15,3.25v0.12a4.17,4.17,0,0,1-2.12,3.9l2.44,5.37h-3l-2.08-4.69h-1.17v4.69h-2.65v-13.86Zm3.7,6.81a2,2,0,0,0,2.18-2.2,2,2,0,0,0-2.24-2.18h-1v4.38h1Z" transform="translate(-2584.43 -1544.3)"/><path class="cls-1" d="M2667.1,1544.52h3.45c2.89,0,4.79,1.62,4.79,4.71v0c0,3.17-2,4.71-4.71,4.83h-0.87v4.28h-2.65v-13.86Zm3.35,7.17a2.1,2.1,0,0,0,2.22-2.36c0-1.52-.69-2.38-2.2-2.38h-0.71v4.73h0.69Z" transform="translate(-2584.43 -1544.3)"/><path class="cls-1" d="M2676.8,1544.52h2.65v5.64h3.39v-5.64h2.65v13.86h-2.65v-5.72h-3.39v5.72h-2.65v-13.86Z" transform="translate(-2584.43 -1544.3)"/><path class="cls-1" d="M2690.6,1544.46h2.67l3.86,13.92h-2.71l-0.75-2.89h-3.56l-0.73,2.89h-2.61Zm2.44,8.67-1.13-4.55-1.17,4.55h2.3Z" transform="translate(-2584.43 -1544.3)"/><path class="cls-1" d="M2698.38,1544.52h2.46l3.94,7.56v-7.56h2.59v13.86h-2.3l-4.1-7.88v7.88h-2.59v-13.86Z" transform="translate(-2584.43 -1544.3)"/><path class="cls-1" d="M2621.18,1561.6H2624l1.7,8.83,1.9-8.85h2.38l1.9,8.85,1.7-8.83h2.71l-3.07,13.92h-2.59l-1.88-8.53-1.88,8.53h-2.57Z" transform="translate(-2584.43 -1544.3)"/><path class="cls-1" d="M2636.8,1568.77v-0.46c0-4.38,2.06-6.93,5-6.93s5,2.55,5,6.91v0.46c0,4.36-2.06,6.93-5,6.93S2636.8,1573.12,2636.8,1568.77Zm7.37-.1v-0.26c0-3.13-1-4.59-2.34-4.59s-2.32,1.45-2.32,4.57v0.26c0,3.13,1,4.59,2.34,4.59S2644.17,1571.8,2644.17,1568.67Z" transform="translate(-2584.43 -1544.3)"/><path class="cls-1" d="M2648.64,1561.6h3.92a4.78,4.78,0,0,1,3.47,1.23,4.43,4.43,0,0,1,1.15,3.25v0.12a4.17,4.17,0,0,1-2.12,3.9l2.44,5.37h-3l-2.08-4.69h-1.17v4.69h-2.65V1561.6Zm3.7,6.81a2,2,0,0,0,2.18-2.2,2,2,0,0,0-2.24-2.18h-1v4.38h1Z" transform="translate(-2584.43 -1544.3)"/><path class="cls-1" d="M2658.89,1561.6h2.65v5.9l3.31-5.9h3.09l-3.56,5.86,3.68,8h-3l-2.53-5.49-0.93,1.56v3.92h-2.65V1561.6Z" transform="translate(-2584.43 -1544.3)"/><path class="cls-1" d="M2599.93,1544.52a15.5,15.5,0,0,0-15.5,15.5v15.5h15.5a15.5,15.5,0,0,0,15.5-15.5v-15.5h-15.5Zm0,28.17a12.67,12.67,0,1,1,12.67-12.67A12.67,12.67,0,0,1,2599.94,1572.7Z" transform="translate(-2584.43 -1544.3)"/><path class="cls-1" d="M2596.51,1563.78a4.53,4.53,0,0,0,3.32,1.37,5.35,5.35,0,0,0,4.37-2.12l2.32,2.39a8.77,8.77,0,0,1-12.71.74,8.59,8.59,0,0,1,0-12,8.34,8.34,0,0,1,6.06-2.42,8.59,8.59,0,0,1,6.7,3l-2.25,2.56a5.29,5.29,0,0,0-4.28-2.14,5,5,0,0,0-3.5,1.34,4.66,4.66,0,0,0-1.45,3.6A4.92,4.92,0,0,0,2596.51,1563.78Z" transform="translate(-2584.43 -1544.3)"/></svg>