<svg id="FINAL" xmlns="http://www.w3.org/2000/svg" viewBox="0 0 121.76 31.21"><defs><style>.cls-1{fill:#414042;}</style></defs><title>InC.dark</title><path class="cls-1" d="M1005.6,1819.53v-0.32c0-4.51,2.22-6.93,5.21-6.93a4.49,4.49,0,0,1,3.31,1.35l-1.51,2.12a2.64,2.64,0,0,0-1.82-.93c-1.37,0-2.48,1.52-2.48,4.49v0.1c0,3.17,1.19,4.51,2.44,4.51a2.73,2.73,0,0,0,2-1l1.41,2.06a4.87,4.87,0,0,1-3.48,1.5C1007.56,1826.46,1005.6,1824,1005.6,1819.53Z" transform="translate(-968.42 -1795.31)"/><path class="cls-1" d="M1014.75,1819.61v-0.46c0-4.38,2.06-6.93,5-6.93s5,2.55,5,6.91v0.46c0,4.36-2.06,6.93-5,6.93S1014.75,1824,1014.75,1819.61Zm7.37-.1v-0.26c0-3.13-1-4.59-2.34-4.59s-2.32,1.45-2.32,4.57v0.26c0,3.13,1,4.59,2.34,4.59S1022.11,1822.64,1022.11,1819.51Z" transform="translate(-968.42 -1795.31)"/><path class="cls-1" d="M1026.58,1812.44H1030c2.89,0,4.79,1.62,4.79,4.71v0c0,3.17-2,4.71-4.71,4.83h-0.87v4.28h-2.65v-13.86Zm3.35,7.17a2.1,2.1,0,0,0,2.22-2.36c0-1.52-.69-2.38-2.2-2.38h-0.71v4.73h0.69Z" transform="translate(-968.42 -1795.31)"/><path class="cls-1" d="M1038.7,1820.84l-3.6-8.4H1038l2.06,5.33,2.08-5.33h2.81l-3.58,8.38v5.49h-2.65v-5.47Z" transform="translate(-968.42 -1795.31)"/><path class="cls-1" d="M1046.1,1812.44H1050a4.78,4.78,0,0,1,3.46,1.23,4.43,4.43,0,0,1,1.15,3.25V1817a4.17,4.17,0,0,1-2.12,3.9l2.44,5.37h-3l-2.08-4.69h-1.17v4.69h-2.65v-13.86Zm3.7,6.81a2,2,0,0,0,2.18-2.2,2,2,0,0,0-2.24-2.18h-1v4.38h1Z" transform="translate(-968.42 -1795.31)"/><path class="cls-1" d="M1056.43,1812.44h2.63v13.86h-2.63v-13.86Z" transform="translate(-968.42 -1795.31)"/><path class="cls-1" d="M1060.91,1819.53v-0.32c0-4.28,2.34-6.93,5.6-6.93a5.3,5.3,0,0,1,3.52,1.31l-1.46,2.18a2.61,2.61,0,0,0-2-1c-1.7,0-2.91,1.64-2.91,4.42v0.28c0,3.21,1.37,4.53,2.93,4.53a2.2,2.2,0,0,0,1.13-.28v-3h-1.88v-2.34h4.36v6.87a6.86,6.86,0,0,1-3.78,1.19C1063.3,1826.46,1060.91,1824.15,1060.91,1819.53Z" transform="translate(-968.42 -1795.31)"/><path class="cls-1" d="M1072.07,1812.44h2.65v5.64h3.39v-5.64h2.65v13.86h-2.65v-5.72h-3.39v5.72h-2.65v-13.86Z" transform="translate(-968.42 -1795.31)"/><path class="cls-1" d="M1084.9,1814.94h-2.63v-2.49h7.92v2.49h-2.63v11.37h-2.65v-11.37Z" transform="translate(-968.42 -1795.31)"/><path class="cls-1" d="M1005.6,1795.31h2.63v13.86h-2.63v-13.86Z" transform="translate(-968.42 -1795.31)"/><path class="cls-1" d="M1010.45,1795.31h2.45l3.94,7.56v-7.56h2.59v13.86h-2.3l-4.1-7.88v7.88h-2.59v-13.86Z" transform="translate(-968.42 -1795.31)"/><path class="cls-1" d="M983.92,1795.38a15.5,15.5,0,0,0-15.5,15.5v15.5h15.5a15.5,15.5,0,0,0,15.5-15.5v-15.5h-15.5Zm0,28.17a12.67,12.67,0,1,1,12.67-12.67A12.67,12.67,0,0,1,983.92,1823.56Z" transform="translate(-968.42 -1795.31)"/><path class="cls-1" d="M980.5,1814.64a4.53,4.53,0,0,0,3.32,1.37,5.35,5.35,0,0,0,4.37-2.12l2.32,2.39a8.77,8.77,0,0,1-12.71.74,8.59,8.59,0,0,1,0-12,8.34,8.34,0,0,1,6.06-2.42,8.59,8.59,0,0,1,6.7,3l-2.25,2.56a5.29,5.29,0,0,0-4.28-2.14,5,5,0,0,0-3.5,1.34,4.66,4.66,0,0,0-1.45,3.6A4.92,4.92,0,0,0,980.5,1814.64Z" transform="translate(-968.42 -1795.31)"/></svg>