<svg id="FINAL" xmlns="http://www.w3.org/2000/svg" viewBox="0 0 175.24 31.45"><defs><style>.cls-1{fill:#414042;}</style></defs><title>NoC-NONCOMMERCIAL.dark</title><path class="cls-1" d="M1224.58,1795.53H1227l3.94,7.56v-7.56h2.59v13.86h-2.3l-4.1-7.88v7.88h-2.59v-13.86Z" transform="translate(-1187.02 -1795.31)"/><path class="cls-1" d="M1235.33,1802.69v-0.46c0-4.38,2.06-6.93,5-6.93s5,2.55,5,6.91v0.46c0,4.36-2.06,6.93-5,6.93S1235.33,1807.05,1235.33,1802.69Zm7.37-.1v-0.26c0-3.13-1-4.59-2.34-4.59s-2.32,1.45-2.32,4.57v0.26c0,3.13,1,4.59,2.34,4.59S1242.69,1805.72,1242.69,1802.6Z" transform="translate(-1187.02 -1795.31)"/><path class="cls-1" d="M1247.16,1795.53h2.45l3.94,7.56v-7.56h2.59v13.86h-2.3l-4.1-7.88v7.88h-2.59v-13.86Z" transform="translate(-1187.02 -1795.31)"/><path class="cls-1" d="M1258.07,1802h5.49v2.57h-5.49V1802Z" transform="translate(-1187.02 -1795.31)"/><path class="cls-1" d="M1265.1,1802.62v-0.32c0-4.51,2.22-6.93,5.21-6.93a4.49,4.49,0,0,1,3.31,1.35l-1.51,2.12a2.64,2.64,0,0,0-1.82-.93c-1.37,0-2.48,1.52-2.48,4.49v0.1c0,3.17,1.19,4.52,2.44,4.52a2.73,2.73,0,0,0,2-1l1.41,2.06a4.87,4.87,0,0,1-3.48,1.5C1267.06,1809.55,1265.1,1807.13,1265.1,1802.62Z" transform="translate(-1187.02 -1795.31)"/><path class="cls-1" d="M1274.24,1802.69v-0.46c0-4.38,2.06-6.93,5-6.93s5,2.55,5,6.91v0.46c0,4.36-2.06,6.93-5,6.93S1274.24,1807.05,1274.24,1802.69Zm7.37-.1v-0.26c0-3.13-1-4.59-2.34-4.59s-2.32,1.45-2.32,4.57v0.26c0,3.13,1,4.59,2.34,4.59S1281.61,1805.72,1281.61,1802.6Z" transform="translate(-1187.02 -1795.31)"/><path class="cls-1" d="M1286.08,1795.53h2.71l2.44,5.37,2.42-5.37h2.73v13.86h-2.59v-8.63l-2.55,5.5h0l-2.55-5.47v8.59h-2.55v-13.86Z" transform="translate(-1187.02 -1795.31)"/><path class="cls-1" d="M1298.49,1795.53h2.71l2.44,5.37,2.42-5.37h2.73v13.86h-2.59v-8.63l-2.55,5.5h0l-2.55-5.47v8.59h-2.55v-13.86Z" transform="translate(-1187.02 -1795.31)"/><path class="cls-1" d="M1310.9,1795.53h7.21V1798h-4.57v3.21h4v2.46h-4v3.29h4.65v2.46h-7.29v-13.86Z" transform="translate(-1187.02 -1795.31)"/><path class="cls-1" d="M1319.92,1795.53h3.92a4.78,4.78,0,0,1,3.46,1.23,4.43,4.43,0,0,1,1.15,3.25v0.12a4.17,4.17,0,0,1-2.12,3.9l2.44,5.37h-3l-2.08-4.69h-1.17v4.69h-2.65v-13.86Zm3.7,6.81a2,2,0,0,0,2.18-2.2,2,2,0,0,0-2.24-2.18h-1v4.38h1Z" transform="translate(-1187.02 -1795.31)"/><path class="cls-1" d="M1329.8,1802.62v-0.32c0-4.51,2.22-6.93,5.21-6.93a4.49,4.49,0,0,1,3.31,1.35l-1.51,2.12a2.64,2.64,0,0,0-1.82-.93c-1.37,0-2.48,1.52-2.48,4.49v0.1c0,3.17,1.19,4.52,2.44,4.52a2.73,2.73,0,0,0,2-1l1.41,2.06a4.87,4.87,0,0,1-3.49,1.5C1331.76,1809.55,1329.8,1807.13,1329.8,1802.62Z" transform="translate(-1187.02 -1795.31)"/><path class="cls-1" d="M1339.86,1795.53h2.63v13.86h-2.63v-13.86Z" transform="translate(-1187.02 -1795.31)"/><path class="cls-1" d="M1347.67,1795.47h2.67l3.86,13.92h-2.71l-0.75-2.89h-3.56l-0.73,2.89h-2.61Zm2.44,8.67-1.13-4.55-1.17,4.55h2.3Z" transform="translate(-1187.02 -1795.31)"/><path class="cls-1" d="M1355.45,1795.53h2.65v11.39h4.16v2.48h-6.81v-13.86Z" transform="translate(-1187.02 -1795.31)"/><path class="cls-1" d="M1224.46,1821.79v-9.11h2.65v9.25c0,1.6.69,2.36,1.76,2.36s1.76-.73,1.76-2.34v-9.27h2.63v9.09c0,3.39-1.78,5-4.42,5S1224.46,1825.14,1224.46,1821.79Z" transform="translate(-1187.02 -1795.31)"/><path class="cls-1" d="M1234.24,1824.84l1.58-2.06a4,4,0,0,0,2.65,1.45,1.42,1.42,0,0,0,1.54-1.43c0-.61-0.32-1.09-1.88-2-2.1-1.25-3.33-2.34-3.33-4.28v0a3.86,3.86,0,0,1,4.18-3.92,5.18,5.18,0,0,1,3.74,1.6l-1.62,2a3.2,3.2,0,0,0-2.24-1.19,1.25,1.25,0,0,0-1.39,1.21c0,0.65.32,1.13,2.24,2.32s3,2.28,3,4.12v0a4,4,0,0,1-4.18,4A5.92,5.92,0,0,1,1234.24,1824.84Z" transform="translate(-1187.02 -1795.31)"/><path class="cls-1" d="M1244.18,1812.68h7.21v2.46h-4.57v3.21h4v2.46h-4v3.29h4.65v2.46h-7.29v-13.86Z" transform="translate(-1187.02 -1795.31)"/><path class="cls-1" d="M1256.47,1819.85v-0.46c0-4.38,2.06-6.93,5-6.93s5,2.55,5,6.91v0.46c0,4.36-2.06,6.93-5,6.93S1256.47,1824.21,1256.47,1819.85Zm7.37-.1v-0.26c0-3.13-1-4.59-2.34-4.59s-2.32,1.45-2.32,4.57v0.26c0,3.13,1,4.59,2.34,4.59S1263.83,1822.88,1263.83,1819.75Z" transform="translate(-1187.02 -1795.31)"/><path class="cls-1" d="M1268.3,1812.68h2.45l3.94,7.56v-7.56h2.59v13.86H1275l-4.1-7.88v7.88h-2.59v-13.86Z" transform="translate(-1187.02 -1795.31)"/><path class="cls-1" d="M1279.43,1812.68h2.65v11.39h4.16v2.48h-6.81v-13.86Z" transform="translate(-1187.02 -1795.31)"/><path class="cls-1" d="M1288.87,1821.08l-3.6-8.4h2.89l2.06,5.33,2.08-5.33h2.81l-3.58,8.38v5.49h-2.65v-5.47Z" transform="translate(-1187.02 -1795.31)"/><path class="cls-1" d="M1218,1795.54V1811a15.5,15.5,0,0,1-15.5,15.5H1187V1811a15.5,15.5,0,0,1,15.5-15.5H1218Zm-24,15.65a8.13,8.13,0,0,1,2.47-6,8.36,8.36,0,0,1,6.06-2.41,8.51,8.51,0,0,1,4.53,1.22l3.06-3.06a12.66,12.66,0,0,0-17.72,17.72l2.86-2.86A8.14,8.14,0,0,1,1194,1811.19Zm18.51-8-12.35,12.35a4.5,4.5,0,0,0,2.27.58,5.37,5.37,0,0,0,4.38-2.12l2.32,2.4a8.48,8.48,0,0,1-6.53,3.11,8.81,8.81,0,0,1-5-1.41l-2.86,2.86a12.54,12.54,0,0,0,7.79,2.7A12.66,12.66,0,0,0,1212.5,1803.23Zm-14.77,7.91a5.8,5.8,0,0,0,.28,1.87l6.49-6.49a5.06,5.06,0,0,0-1.81-.31,5,5,0,0,0-3.5,1.33A4.67,4.67,0,0,0,1197.73,1811.14Z" transform="translate(-1187.02 -1795.31)"/></svg>