<svg id="FINAL" xmlns="http://www.w3.org/2000/svg" viewBox="0 0 142.7 31.45"><defs><style>.cls-1{fill:#fff;}.cls-2{fill:#414042;}</style></defs><title>NoC-OTHER.dark-white-interior</title><circle class="cls-1" cx="15.24" cy="15.67" r="13.81"/><path class="cls-2" d="M1986.35,2317.31v-0.46c0-4.38,2.06-6.93,5-6.93s5,2.55,5,6.91v0.46c0,4.36-2.06,6.93-5,6.93S1986.35,2321.67,1986.35,2317.31Zm7.37-.1V2317c0-3.13-1-4.59-2.34-4.59s-2.32,1.45-2.32,4.57v0.26c0,3.13,1,4.59,2.34,4.59S1993.72,2320.34,1993.72,2317.21Z" transform="translate(-1949.17 -2309.93)"/><path class="cls-2" d="M1999.72,2312.64h-2.63v-2.5H2005v2.5h-2.63V2324h-2.65v-11.37Z" transform="translate(-1949.17 -2309.93)"/><path class="cls-2" d="M2006.5,2310.14h2.65v5.64h3.39v-5.64h2.65V2324h-2.65v-5.72h-3.39V2324h-2.65v-13.86Z" transform="translate(-1949.17 -2309.93)"/><path class="cls-2" d="M2017.33,2310.14h7.21v2.46H2020v3.21h4v2.46h-4v3.29h4.65V2324h-7.29v-13.86Z" transform="translate(-1949.17 -2309.93)"/><path class="cls-2" d="M2026.36,2310.14h3.92a4.78,4.78,0,0,1,3.47,1.23,4.43,4.43,0,0,1,1.15,3.25v0.12a4.17,4.17,0,0,1-2.12,3.9l2.44,5.37h-3l-2.08-4.69H2029V2324h-2.65v-13.86Zm3.7,6.81a2,2,0,0,0,2.18-2.2,2,2,0,0,0-2.24-2.18h-1V2317h1Z" transform="translate(-1949.17 -2309.93)"/><path class="cls-2" d="M2040.25,2310.14h2.65v11.39h4.16V2324h-6.81v-13.86Z" transform="translate(-1949.17 -2309.93)"/><path class="cls-2" d="M2048.52,2310.14h7.21v2.46h-4.57v3.21h4v2.46h-4v3.29h4.65V2324h-7.29v-13.86Z" transform="translate(-1949.17 -2309.93)"/><path class="cls-2" d="M2057.06,2317.23v-0.32c0-4.28,2.34-6.93,5.6-6.93a5.3,5.3,0,0,1,3.52,1.31l-1.46,2.18a2.61,2.61,0,0,0-2-1c-1.7,0-2.91,1.64-2.91,4.42v0.28c0,3.21,1.37,4.53,2.93,4.53a2.2,2.2,0,0,0,1.13-.28v-3h-1.88v-2.34h4.36V2323a6.86,6.86,0,0,1-3.78,1.19C2059.45,2324.16,2057.06,2321.85,2057.06,2317.23Z" transform="translate(-1949.17 -2309.93)"/><path class="cls-2" d="M2071.19,2310.09h2.67l3.86,13.92H2075l-0.75-2.89h-3.56L2070,2324h-2.61Zm2.44,8.67-1.13-4.55-1.17,4.55h2.3Z" transform="translate(-1949.17 -2309.93)"/><path class="cls-2" d="M2079,2310.14h2.65v11.39h4.16V2324H2079v-13.86Z" transform="translate(-1949.17 -2309.93)"/><path class="cls-2" d="M1986.73,2327.3h3.92a4.78,4.78,0,0,1,3.46,1.23,4.43,4.43,0,0,1,1.15,3.25v0.12a4.17,4.17,0,0,1-2.12,3.9l2.44,5.37h-3l-2.08-4.69h-1.17v4.69h-2.65V2327.3Zm3.7,6.81a2,2,0,0,0,2.18-2.2,2,2,0,0,0-2.24-2.18h-1v4.38h1Z" transform="translate(-1949.17 -2309.93)"/><path class="cls-2" d="M1997,2327.3h7.21v2.46h-4.57V2333h4v2.46h-4v3.29h4.65v2.46H1997V2327.3Z" transform="translate(-1949.17 -2309.93)"/><path class="cls-2" d="M2004.94,2339.46l1.58-2.06a4,4,0,0,0,2.65,1.45,1.42,1.42,0,0,0,1.54-1.43c0-.61-0.32-1.09-1.88-2-2.1-1.25-3.33-2.34-3.33-4.28v0a3.86,3.86,0,0,1,4.18-3.92,5.18,5.18,0,0,1,3.74,1.6l-1.62,2a3.2,3.2,0,0,0-2.24-1.19,1.25,1.25,0,0,0-1.39,1.21c0,0.65.32,1.13,2.24,2.32s3,2.28,3,4.12v0a4,4,0,0,1-4.18,4A5.92,5.92,0,0,1,2004.94,2339.46Z" transform="translate(-1949.17 -2309.93)"/><path class="cls-2" d="M2016.58,2329.79h-2.63v-2.5h7.92v2.5h-2.63v11.37h-2.65v-11.37Z" transform="translate(-1949.17 -2309.93)"/><path class="cls-2" d="M2023.37,2327.3h3.92a4.78,4.78,0,0,1,3.47,1.23,4.43,4.43,0,0,1,1.15,3.25v0.12a4.17,4.17,0,0,1-2.12,3.9l2.44,5.37h-3l-2.08-4.69H2026v4.69h-2.65V2327.3Zm3.7,6.81a2,2,0,0,0,2.18-2.2,2,2,0,0,0-2.24-2.18h-1v4.38h1Z" transform="translate(-1949.17 -2309.93)"/><path class="cls-2" d="M2033.7,2327.3h2.63v13.86h-2.63V2327.3Z" transform="translate(-1949.17 -2309.93)"/><path class="cls-2" d="M2038.17,2334.39v-0.32c0-4.51,2.22-6.93,5.21-6.93a4.49,4.49,0,0,1,3.31,1.35l-1.51,2.12a2.65,2.65,0,0,0-1.82-.93c-1.37,0-2.48,1.52-2.48,4.49v0.1c0,3.17,1.19,4.52,2.44,4.52a2.73,2.73,0,0,0,2-1l1.41,2.06a4.87,4.87,0,0,1-3.49,1.5C2040.13,2341.32,2038.17,2338.9,2038.17,2334.39Z" transform="translate(-1949.17 -2309.93)"/><path class="cls-2" d="M2050.15,2329.79h-2.63v-2.5h7.92v2.5h-2.63v11.37h-2.65v-11.37Z" transform="translate(-1949.17 -2309.93)"/><path class="cls-2" d="M2057,2327.3h2.63v13.86H2057V2327.3Z" transform="translate(-1949.17 -2309.93)"/><path class="cls-2" d="M2061.49,2334.47V2334c0-4.38,2.06-6.93,5-6.93s5,2.55,5,6.91v0.46c0,4.36-2.06,6.93-5,6.93S2061.49,2338.82,2061.49,2334.47Zm7.37-.1v-0.26c0-3.13-1-4.59-2.34-4.59s-2.32,1.45-2.32,4.57v0.26c0,3.13,1,4.59,2.34,4.59S2068.85,2337.5,2068.85,2334.37Z" transform="translate(-1949.17 -2309.93)"/><path class="cls-2" d="M2073.32,2327.3h2.46l3.94,7.56v-7.56h2.59v13.86H2080l-4.1-7.88v7.88h-2.59V2327.3Z" transform="translate(-1949.17 -2309.93)"/><path class="cls-2" d="M2083.38,2339.46l1.58-2.06a4,4,0,0,0,2.65,1.45,1.42,1.42,0,0,0,1.54-1.43c0-.61-0.32-1.09-1.88-2-2.1-1.25-3.33-2.34-3.33-4.28v0a3.86,3.86,0,0,1,4.18-3.92,5.18,5.18,0,0,1,3.74,1.6l-1.62,2a3.2,3.2,0,0,0-2.24-1.19,1.25,1.25,0,0,0-1.39,1.21c0,0.65.32,1.13,2.24,2.32s3,2.28,3,4.12v0a4,4,0,0,1-4.18,4A5.92,5.92,0,0,1,2083.38,2339.46Z" transform="translate(-1949.17 -2309.93)"/><path class="cls-2" d="M1980.17,2310.15v15.5a15.5,15.5,0,0,1-15.5,15.5h-15.5v-15.5a15.5,15.5,0,0,1,15.5-15.5h15.5Zm-24,15.65a8.13,8.13,0,0,1,2.47-6,8.36,8.36,0,0,1,6.06-2.41,8.51,8.51,0,0,1,4.53,1.22l3.06-3.06a12.66,12.66,0,0,0-17.72,17.72l2.86-2.86A8.14,8.14,0,0,1,1956.14,2325.81Zm18.51-8-12.35,12.35a4.5,4.5,0,0,0,2.27.58,5.37,5.37,0,0,0,4.38-2.12l2.32,2.4a8.48,8.48,0,0,1-6.53,3.11,8.81,8.81,0,0,1-5-1.41l-2.86,2.86a12.54,12.54,0,0,0,7.79,2.7A12.66,12.66,0,0,0,1974.65,2317.85Zm-14.77,7.91a5.8,5.8,0,0,0,.28,1.87l6.49-6.49a5.06,5.06,0,0,0-1.81-.31,5,5,0,0,0-3.5,1.33A4.67,4.67,0,0,0,1959.88,2325.76Z" transform="translate(-1949.17 -2309.93)"/></svg>