<svg id="FINAL" xmlns="http://www.w3.org/2000/svg" viewBox="0 0 142.7 31.45"><defs><style>.cls-1{fill:#fff;}.cls-2{fill:#008cc8;}.cls-3{fill:#414042;}</style></defs><title>NoC-OTHER.dark-white-interior-blue-type</title><circle class="cls-1" cx="15.04" cy="15.47" r="13.91"/><path class="cls-2" d="M1971.73,2699.07v-0.46c0-4.38,2.06-6.93,5-6.93s5,2.55,5,6.91V2699c0,4.36-2.06,6.93-5,6.93S1971.73,2703.43,1971.73,2699.07Zm7.37-.1v-0.26c0-3.13-1-4.59-2.34-4.59s-2.32,1.45-2.32,4.57V2699c0,3.13,1,4.59,2.34,4.59S1979.1,2702.1,1979.1,2699Z" transform="translate(-1934.55 -2691.68)"/><path class="cls-2" d="M1985.09,2694.4h-2.63v-2.5h7.92v2.5h-2.63v11.37h-2.65V2694.4Z" transform="translate(-1934.55 -2691.68)"/><path class="cls-2" d="M1991.88,2691.9h2.65v5.64h3.39v-5.64h2.65v13.86h-2.65V2700h-3.39v5.72h-2.65V2691.9Z" transform="translate(-1934.55 -2691.68)"/><path class="cls-2" d="M2002.71,2691.9h7.21v2.46h-4.57v3.21h4V2700h-4v3.29H2010v2.46h-7.29V2691.9Z" transform="translate(-1934.55 -2691.68)"/><path class="cls-2" d="M2011.73,2691.9h3.92a4.78,4.78,0,0,1,3.47,1.23,4.43,4.43,0,0,1,1.15,3.25v0.12a4.17,4.17,0,0,1-2.12,3.9l2.44,5.37h-3l-2.08-4.69h-1.17v4.69h-2.65V2691.9Zm3.7,6.81a2,2,0,0,0,2.18-2.2,2,2,0,0,0-2.24-2.18h-1v4.38h1Z" transform="translate(-1934.55 -2691.68)"/><path class="cls-2" d="M2025.63,2691.9h2.65v11.39h4.16v2.48h-6.81V2691.9Z" transform="translate(-1934.55 -2691.68)"/><path class="cls-2" d="M2033.9,2691.9h7.21v2.46h-4.57v3.21h4V2700h-4v3.29h4.65v2.46h-7.29V2691.9Z" transform="translate(-1934.55 -2691.68)"/><path class="cls-2" d="M2042.43,2699v-0.32c0-4.28,2.34-6.93,5.6-6.93a5.3,5.3,0,0,1,3.52,1.31l-1.46,2.18a2.61,2.61,0,0,0-2-1c-1.7,0-2.91,1.64-2.91,4.42V2699c0,3.21,1.37,4.53,2.93,4.53a2.2,2.2,0,0,0,1.13-.28v-3h-1.88v-2.34h4.36v6.87a6.86,6.86,0,0,1-3.78,1.19C2044.83,2705.92,2042.43,2703.6,2042.43,2699Z" transform="translate(-1934.55 -2691.68)"/><path class="cls-2" d="M2056.56,2691.84h2.67l3.86,13.92h-2.71l-0.75-2.89h-3.56l-0.73,2.89h-2.61Zm2.44,8.67-1.13-4.55-1.17,4.55h2.3Z" transform="translate(-1934.55 -2691.68)"/><path class="cls-2" d="M2064.34,2691.9H2067v11.39h4.16v2.48h-6.81V2691.9Z" transform="translate(-1934.55 -2691.68)"/><path class="cls-2" d="M1972.11,2709.06H1976a4.78,4.78,0,0,1,3.46,1.23,4.43,4.43,0,0,1,1.15,3.25v0.12a4.17,4.17,0,0,1-2.12,3.9l2.44,5.37h-3l-2.08-4.69h-1.17v4.69h-2.65v-13.86Zm3.7,6.81a2,2,0,0,0,2.18-2.2,2,2,0,0,0-2.24-2.18h-1v4.38h1Z" transform="translate(-1934.55 -2691.68)"/><path class="cls-2" d="M1982.36,2709.06h7.21v2.46H1985v3.21h4v2.46h-4v3.29h4.65v2.46h-7.29v-13.86Z" transform="translate(-1934.55 -2691.68)"/><path class="cls-2" d="M1990.31,2721.21l1.58-2.06a4,4,0,0,0,2.65,1.45,1.42,1.42,0,0,0,1.54-1.43c0-.61-0.32-1.09-1.88-2-2.1-1.25-3.33-2.34-3.33-4.28v0a3.86,3.86,0,0,1,4.18-3.92,5.18,5.18,0,0,1,3.74,1.6l-1.62,2a3.2,3.2,0,0,0-2.24-1.19,1.25,1.25,0,0,0-1.39,1.21c0,0.65.32,1.13,2.24,2.32s3,2.28,3,4.12v0a4,4,0,0,1-4.18,4A5.92,5.92,0,0,1,1990.31,2721.21Z" transform="translate(-1934.55 -2691.68)"/><path class="cls-2" d="M2002,2711.55h-2.63v-2.5h7.92v2.5h-2.63v11.37H2002v-11.37Z" transform="translate(-1934.55 -2691.68)"/><path class="cls-2" d="M2008.74,2709.06h3.92a4.78,4.78,0,0,1,3.47,1.23,4.43,4.43,0,0,1,1.15,3.25v0.12a4.17,4.17,0,0,1-2.12,3.9l2.44,5.37h-3l-2.08-4.69h-1.17v4.69h-2.65v-13.86Zm3.7,6.81a2,2,0,0,0,2.18-2.2,2,2,0,0,0-2.24-2.18h-1v4.38h1Z" transform="translate(-1934.55 -2691.68)"/><path class="cls-2" d="M2019.07,2709.06h2.63v13.86h-2.63v-13.86Z" transform="translate(-1934.55 -2691.68)"/><path class="cls-2" d="M2023.55,2716.14v-0.32c0-4.51,2.22-6.93,5.21-6.93a4.49,4.49,0,0,1,3.31,1.35l-1.51,2.12a2.65,2.65,0,0,0-1.82-.93c-1.37,0-2.48,1.52-2.48,4.49v0.1c0,3.17,1.19,4.52,2.44,4.52a2.73,2.73,0,0,0,2-1l1.41,2.06a4.87,4.87,0,0,1-3.49,1.5C2025.51,2723.08,2023.55,2720.66,2023.55,2716.14Z" transform="translate(-1934.55 -2691.68)"/><path class="cls-2" d="M2035.52,2711.55h-2.63v-2.5h7.92v2.5h-2.63v11.37h-2.65v-11.37Z" transform="translate(-1934.55 -2691.68)"/><path class="cls-2" d="M2042.39,2709.06H2045v13.86h-2.63v-13.86Z" transform="translate(-1934.55 -2691.68)"/><path class="cls-2" d="M2046.86,2716.22v-0.46c0-4.38,2.06-6.93,5-6.93s5,2.55,5,6.91v0.46c0,4.36-2.06,6.93-5,6.93S2046.86,2720.58,2046.86,2716.22Zm7.37-.1v-0.26c0-3.13-1-4.59-2.34-4.59s-2.32,1.45-2.32,4.57v0.26c0,3.13,1,4.59,2.34,4.59S2054.23,2719.25,2054.23,2716.13Z" transform="translate(-1934.55 -2691.68)"/><path class="cls-2" d="M2058.7,2709.06h2.46l3.94,7.56v-7.56h2.59v13.86h-2.3l-4.1-7.88v7.88h-2.59v-13.86Z" transform="translate(-1934.55 -2691.68)"/><path class="cls-2" d="M2068.75,2721.21l1.58-2.06a4,4,0,0,0,2.65,1.45,1.42,1.42,0,0,0,1.54-1.43c0-.61-0.32-1.09-1.88-2-2.1-1.25-3.33-2.34-3.33-4.28v0a3.86,3.86,0,0,1,4.18-3.92,5.18,5.18,0,0,1,3.74,1.6l-1.62,2a3.2,3.2,0,0,0-2.24-1.19,1.25,1.25,0,0,0-1.39,1.21c0,0.65.32,1.13,2.24,2.32s3,2.28,3,4.12v0a4,4,0,0,1-4.18,4A5.92,5.92,0,0,1,2068.75,2721.21Z" transform="translate(-1934.55 -2691.68)"/><path class="cls-3" d="M1965.55,2691.91v15.5a15.5,15.5,0,0,1-15.5,15.5h-15.5v-15.5a15.5,15.5,0,0,1,15.5-15.5h15.5Zm-24,15.65a8.13,8.13,0,0,1,2.47-6,8.36,8.36,0,0,1,6.06-2.41,8.51,8.51,0,0,1,4.53,1.22l3.06-3.06a12.66,12.66,0,0,0-17.72,17.72l2.86-2.86A8.14,8.14,0,0,1,1941.51,2707.56Zm18.51-8L1947.67,2712a4.5,4.5,0,0,0,2.27.58,5.37,5.37,0,0,0,4.38-2.12l2.32,2.4a8.48,8.48,0,0,1-6.53,3.11,8.81,8.81,0,0,1-5-1.41l-2.86,2.86a12.54,12.54,0,0,0,7.79,2.7A12.66,12.66,0,0,0,1960,2699.6Zm-14.77,7.91a5.8,5.8,0,0,0,.28,1.87l6.49-6.49a5.06,5.06,0,0,0-1.81-.31,5,5,0,0,0-3.5,1.33A4.67,4.67,0,0,0,1945.25,2707.51Z" transform="translate(-1934.55 -2691.68)"/></svg>