<svg id="FINAL" xmlns="http://www.w3.org/2000/svg" viewBox="0 0 148.03 31.21"><defs><style>.cls-1{fill:#414042;}</style></defs><title>NoC-US.dark</title><path class="cls-1" d="M1224.66,1983.1h2.63V1997h-2.63V1983.1Z" transform="translate(-1187.02 -1983.1)"/><path class="cls-1" d="M1229.51,1983.1H1232l3.94,7.56v-7.56h2.59V1997h-2.3l-4.1-7.88V1997h-2.59V1983.1Z" transform="translate(-1187.02 -1983.1)"/><path class="cls-1" d="M1246.27,1985.59h-2.63v-2.5h7.92v2.5h-2.63V1997h-2.65v-11.37Z" transform="translate(-1187.02 -1983.1)"/><path class="cls-1" d="M1253.06,1983.1h2.65v5.64h3.39v-5.64h2.65V1997h-2.65v-5.72h-3.39V1997h-2.65V1983.1Z" transform="translate(-1187.02 -1983.1)"/><path class="cls-1" d="M1263.89,1983.1h7.21v2.46h-4.57v3.21h4v2.46h-4v3.29h4.65V1997h-7.29V1983.1Z" transform="translate(-1187.02 -1983.1)"/><path class="cls-1" d="M1224.46,2009.36v-9.11h2.65v9.25c0,1.6.69,2.36,1.76,2.36s1.76-.73,1.76-2.34v-9.27h2.63v9.09c0,3.39-1.78,5-4.42,5S1224.46,2012.71,1224.46,2009.36Z" transform="translate(-1187.02 -1983.1)"/><path class="cls-1" d="M1235.31,2000.25h2.45l3.94,7.56v-7.56h2.59v13.86H1242l-4.1-7.88v7.88h-2.59v-13.86Z" transform="translate(-1187.02 -1983.1)"/><path class="cls-1" d="M1246.51,2000.25h2.63v13.86h-2.63v-13.86Z" transform="translate(-1187.02 -1983.1)"/><path class="cls-1" d="M1253.36,2002.75h-2.63v-2.5h7.92v2.5H1256v11.37h-2.65v-11.37Z" transform="translate(-1187.02 -1983.1)"/><path class="cls-1" d="M1260.15,2000.25h7.21v2.46h-4.57v3.21h4v2.46h-4v3.29h4.65v2.46h-7.29v-13.86Z" transform="translate(-1187.02 -1983.1)"/><path class="cls-1" d="M1269.17,2000.25h3.43c3.62,0,5.78,2.52,5.78,6.77v0.32c0,4.24-2.16,6.77-5.78,6.77h-3.43v-13.86Zm2.65,2.42v9h0.73c1.84,0,3.09-1.33,3.09-4.42v-0.2c0-3.09-1.25-4.42-3.09-4.42h-0.73Z" transform="translate(-1187.02 -1983.1)"/><path class="cls-1" d="M1282.69,2012.41l1.58-2.06a4,4,0,0,0,2.65,1.45,1.42,1.42,0,0,0,1.54-1.43c0-.61-0.32-1.09-1.88-2-2.1-1.25-3.33-2.34-3.33-4.28v0a3.86,3.86,0,0,1,4.18-3.92,5.19,5.19,0,0,1,3.74,1.6l-1.62,2a3.2,3.2,0,0,0-2.24-1.19,1.25,1.25,0,0,0-1.39,1.21c0,0.65.32,1.13,2.24,2.32s3,2.28,3,4.12v0a4,4,0,0,1-4.18,4A5.92,5.92,0,0,1,1282.69,2012.41Z" transform="translate(-1187.02 -1983.1)"/><path class="cls-1" d="M1294.33,2002.75h-2.63v-2.5h7.92v2.5H1297v11.37h-2.65v-11.37Z" transform="translate(-1187.02 -1983.1)"/><path class="cls-1" d="M1303.06,2000.19h2.67l3.86,13.92h-2.71l-0.75-2.89h-3.56l-0.73,2.89h-2.61Zm2.44,8.67-1.13-4.55-1.17,4.55h2.3Z" transform="translate(-1187.02 -1983.1)"/><path class="cls-1" d="M1311.81,2002.75h-2.63v-2.5h7.92v2.5h-2.63v11.37h-2.65v-11.37Z" transform="translate(-1187.02 -1983.1)"/><path class="cls-1" d="M1318.6,2000.25h7.21v2.46h-4.57v3.21h4v2.46h-4v3.29h4.65v2.46h-7.29v-13.86Z" transform="translate(-1187.02 -1983.1)"/><path class="cls-1" d="M1326.55,2012.41l1.58-2.06a4,4,0,0,0,2.65,1.45,1.42,1.42,0,0,0,1.54-1.43c0-.61-0.32-1.09-1.88-2-2.1-1.25-3.33-2.34-3.33-4.28v0a3.86,3.86,0,0,1,4.18-3.92,5.18,5.18,0,0,1,3.74,1.6l-1.62,2a3.2,3.2,0,0,0-2.24-1.19,1.25,1.25,0,0,0-1.39,1.21c0,0.65.32,1.13,2.24,2.32s3,2.28,3,4.12v0a4,4,0,0,1-4.18,4A5.92,5.92,0,0,1,1326.55,2012.41Z" transform="translate(-1187.02 -1983.1)"/><path class="cls-1" d="M1218,1983.11v15.5a15.5,15.5,0,0,1-15.5,15.5H1187v-15.5a15.5,15.5,0,0,1,15.5-15.5H1218Zm-24,15.65a8.13,8.13,0,0,1,2.47-6,8.36,8.36,0,0,1,6.06-2.41,8.51,8.51,0,0,1,4.53,1.22l3.06-3.06a12.66,12.66,0,0,0-17.72,17.72l2.86-2.86A8.14,8.14,0,0,1,1194,1998.76Zm18.51-8-12.35,12.35a4.5,4.5,0,0,0,2.27.58,5.37,5.37,0,0,0,4.38-2.12l2.32,2.4a8.48,8.48,0,0,1-6.53,3.11,8.81,8.81,0,0,1-5-1.41l-2.86,2.86a12.54,12.54,0,0,0,7.79,2.7A12.66,12.66,0,0,0,1212.5,1990.8Zm-14.77,7.91a5.8,5.8,0,0,0,.28,1.87l6.49-6.49a5.06,5.06,0,0,0-1.81-.31,5,5,0,0,0-3.5,1.33A4.67,4.67,0,0,0,1197.73,1998.71Z" transform="translate(-1187.02 -1983.1)"/></svg>