<svg id="FINAL" xmlns="http://www.w3.org/2000/svg" viewBox="0 0 175.24 31.45"><defs><style>.cls-1{fill:#fff;}.cls-2{fill:#008cc8;}.cls-3{fill:#414042;}</style></defs><title>NoC-NONCOMMERCIAL.dark-white-interior-blue-type</title><circle class="cls-1" cx="15.04" cy="15.79" r="13.91"/><path class="cls-2" d="M1972.11,2566.85h2.45l3.94,7.56v-7.56h2.59v13.86h-2.3l-4.1-7.88v7.88h-2.59v-13.86Z" transform="translate(-1934.55 -2566.64)"/><path class="cls-2" d="M1982.85,2574v-0.46c0-4.38,2.06-6.93,5-6.93s5,2.55,5,6.91V2574c0,4.36-2.06,6.93-5,6.93S1982.85,2578.38,1982.85,2574Zm7.37-.1v-0.26c0-3.13-1-4.59-2.34-4.59s-2.32,1.45-2.32,4.57v0.26c0,3.13,1,4.59,2.34,4.59S1990.22,2577.05,1990.22,2573.92Z" transform="translate(-1934.55 -2566.64)"/><path class="cls-2" d="M1994.69,2566.85h2.45l3.94,7.56v-7.56h2.59v13.86h-2.3l-4.1-7.88v7.88h-2.59v-13.86Z" transform="translate(-1934.55 -2566.64)"/><path class="cls-2" d="M2005.6,2573.29h5.49v2.57h-5.49v-2.57Z" transform="translate(-1934.55 -2566.64)"/><path class="cls-2" d="M2012.62,2573.94v-0.32c0-4.51,2.22-6.93,5.21-6.93a4.49,4.49,0,0,1,3.31,1.35l-1.51,2.12a2.64,2.64,0,0,0-1.82-.93c-1.37,0-2.48,1.52-2.48,4.49v0.1c0,3.17,1.19,4.52,2.44,4.52a2.73,2.73,0,0,0,2-1l1.41,2.06a4.87,4.87,0,0,1-3.48,1.5C2014.58,2580.87,2012.62,2578.46,2012.62,2573.94Z" transform="translate(-1934.55 -2566.64)"/><path class="cls-2" d="M2021.77,2574v-0.46c0-4.38,2.06-6.93,5-6.93s5,2.55,5,6.91V2574c0,4.36-2.06,6.93-5,6.93S2021.77,2578.38,2021.77,2574Zm7.37-.1v-0.26c0-3.13-1-4.59-2.34-4.59s-2.32,1.45-2.32,4.57v0.26c0,3.13,1,4.59,2.34,4.59S2029.13,2577.05,2029.13,2573.92Z" transform="translate(-1934.55 -2566.64)"/><path class="cls-2" d="M2033.6,2566.85h2.71l2.44,5.37,2.42-5.37h2.73v13.86h-2.59v-8.63l-2.55,5.5h0l-2.55-5.47v8.59h-2.55v-13.86Z" transform="translate(-1934.55 -2566.64)"/><path class="cls-2" d="M2046,2566.85h2.71l2.44,5.37,2.42-5.37h2.73v13.86h-2.59v-8.63l-2.55,5.5h0l-2.55-5.47v8.59H2046v-13.86Z" transform="translate(-1934.55 -2566.64)"/><path class="cls-2" d="M2058.42,2566.85h7.21v2.46h-4.57v3.21h4V2575h-4v3.29h4.65v2.46h-7.29v-13.86Z" transform="translate(-1934.55 -2566.64)"/><path class="cls-2" d="M2067.45,2566.85h3.92a4.78,4.78,0,0,1,3.46,1.23,4.43,4.43,0,0,1,1.15,3.25v0.12a4.17,4.17,0,0,1-2.12,3.9l2.44,5.37h-3l-2.08-4.69h-1.17v4.69h-2.65v-13.86Zm3.7,6.81a2,2,0,0,0,2.18-2.2,2,2,0,0,0-2.24-2.18h-1v4.38h1Z" transform="translate(-1934.55 -2566.64)"/><path class="cls-2" d="M2077.33,2573.94v-0.32c0-4.51,2.22-6.93,5.21-6.93a4.49,4.49,0,0,1,3.31,1.35l-1.51,2.12a2.64,2.64,0,0,0-1.82-.93c-1.37,0-2.48,1.52-2.48,4.49v0.1c0,3.17,1.19,4.52,2.44,4.52a2.73,2.73,0,0,0,2-1l1.41,2.06a4.87,4.87,0,0,1-3.49,1.5C2079.29,2580.87,2077.33,2578.46,2077.33,2573.94Z" transform="translate(-1934.55 -2566.64)"/><path class="cls-2" d="M2087.38,2566.85H2090v13.86h-2.63v-13.86Z" transform="translate(-1934.55 -2566.64)"/><path class="cls-2" d="M2095.2,2566.8h2.67l3.86,13.92H2099l-0.75-2.89h-3.56l-0.73,2.89h-2.61Zm2.44,8.67-1.13-4.55-1.17,4.55h2.3Z" transform="translate(-1934.55 -2566.64)"/><path class="cls-2" d="M2103,2566.85h2.65v11.39h4.16v2.48H2103v-13.86Z" transform="translate(-1934.55 -2566.64)"/><path class="cls-2" d="M1972,2593.12V2584h2.65v9.25c0,1.6.69,2.36,1.76,2.36s1.76-.73,1.76-2.34V2584h2.63v9.09c0,3.39-1.78,5-4.42,5S1972,2596.46,1972,2593.12Z" transform="translate(-1934.55 -2566.64)"/><path class="cls-2" d="M1981.76,2596.17l1.58-2.06a4,4,0,0,0,2.65,1.45,1.42,1.42,0,0,0,1.54-1.43c0-.61-0.32-1.09-1.88-2-2.1-1.25-3.33-2.34-3.33-4.28v0a3.86,3.86,0,0,1,4.18-3.92,5.18,5.18,0,0,1,3.74,1.6l-1.62,2a3.2,3.2,0,0,0-2.24-1.19,1.25,1.25,0,0,0-1.39,1.21c0,0.65.32,1.13,2.24,2.32s3,2.28,3,4.12v0a4,4,0,0,1-4.18,4A5.92,5.92,0,0,1,1981.76,2596.17Z" transform="translate(-1934.55 -2566.64)"/><path class="cls-2" d="M1991.7,2584h7.21v2.46h-4.57v3.21h4v2.46h-4v3.29H1999v2.46h-7.29V2584Z" transform="translate(-1934.55 -2566.64)"/><path class="cls-2" d="M2004,2591.18v-0.46c0-4.38,2.06-6.93,5-6.93s5,2.55,5,6.91v0.46c0,4.36-2.06,6.93-5,6.93S2004,2595.53,2004,2591.18Zm7.37-.1v-0.26c0-3.13-1-4.59-2.34-4.59s-2.32,1.45-2.32,4.57v0.26c0,3.13,1,4.59,2.34,4.59S2011.36,2594.21,2011.36,2591.08Z" transform="translate(-1934.55 -2566.64)"/><path class="cls-2" d="M2015.83,2584h2.45l3.94,7.56V2584h2.59v13.86h-2.3l-4.1-7.88v7.88h-2.59V2584Z" transform="translate(-1934.55 -2566.64)"/><path class="cls-2" d="M2027,2584h2.65v11.39h4.16v2.48H2027V2584Z" transform="translate(-1934.55 -2566.64)"/><path class="cls-2" d="M2036.39,2592.4l-3.6-8.4h2.89l2.06,5.33,2.08-5.33h2.81l-3.58,8.38v5.49h-2.65v-5.47Z" transform="translate(-1934.55 -2566.64)"/><path class="cls-3" d="M1965.55,2566.86v15.5a15.5,15.5,0,0,1-15.5,15.5h-15.5v-15.5a15.5,15.5,0,0,1,15.5-15.5h15.5Zm-24,15.65a8.13,8.13,0,0,1,2.47-6,8.36,8.36,0,0,1,6.06-2.41,8.51,8.51,0,0,1,4.53,1.22l3.06-3.06a12.66,12.66,0,0,0-17.72,17.72l2.86-2.86A8.14,8.14,0,0,1,1941.51,2582.51Zm18.51-8-12.35,12.35a4.5,4.5,0,0,0,2.27.58,5.37,5.37,0,0,0,4.38-2.12l2.32,2.4a8.48,8.48,0,0,1-6.53,3.11,8.81,8.81,0,0,1-5-1.41l-2.86,2.86a12.54,12.54,0,0,0,7.79,2.7A12.66,12.66,0,0,0,1960,2574.56Zm-14.77,7.91a5.8,5.8,0,0,0,.28,1.87l6.49-6.49a5.06,5.06,0,0,0-1.81-.31,5,5,0,0,0-3.5,1.33A4.67,4.67,0,0,0,1945.25,2582.46Z" transform="translate(-1934.55 -2566.64)"/></svg>