<svg id="FINAL" xmlns="http://www.w3.org/2000/svg" viewBox="0 0 142.7 31.45"><defs><style>.cls-1{fill:#414042;}</style></defs><title>NoC-OTHER.dark</title><path class="cls-1" d="M1224.2,1927.74v-0.46c0-4.38,2.06-6.93,5-6.93s5,2.55,5,6.91v0.46c0,4.36-2.06,6.93-5,6.93S1224.2,1932.1,1224.2,1927.74Zm7.37-.1v-0.26c0-3.13-1-4.59-2.34-4.59s-2.32,1.45-2.32,4.57v0.26c0,3.13,1,4.59,2.34,4.59S1231.57,1930.77,1231.57,1927.64Z" transform="translate(-1187.02 -1920.36)"/><path class="cls-1" d="M1237.57,1923.07h-2.63v-2.5h7.92v2.5h-2.63v11.37h-2.65v-11.37Z" transform="translate(-1187.02 -1920.36)"/><path class="cls-1" d="M1244.35,1920.57H1247v5.64h3.39v-5.64H1253v13.86h-2.65v-5.72H1247v5.72h-2.65v-13.86Z" transform="translate(-1187.02 -1920.36)"/><path class="cls-1" d="M1255.18,1920.57h7.21V1923h-4.57v3.21h4v2.46h-4V1932h4.65v2.46h-7.29v-13.86Z" transform="translate(-1187.02 -1920.36)"/><path class="cls-1" d="M1264.21,1920.57h3.92a4.78,4.78,0,0,1,3.47,1.23,4.43,4.43,0,0,1,1.15,3.25v0.12a4.17,4.17,0,0,1-2.12,3.9l2.44,5.37h-3l-2.08-4.69h-1.17v4.69h-2.65v-13.86Zm3.7,6.81a2,2,0,0,0,2.18-2.2,2,2,0,0,0-2.24-2.18h-1v4.38h1Z" transform="translate(-1187.02 -1920.36)"/><path class="cls-1" d="M1278.1,1920.57h2.65V1932h4.16v2.48h-6.81v-13.86Z" transform="translate(-1187.02 -1920.36)"/><path class="cls-1" d="M1286.37,1920.57h7.21V1923H1289v3.21h4v2.46h-4V1932h4.65v2.46h-7.29v-13.86Z" transform="translate(-1187.02 -1920.36)"/><path class="cls-1" d="M1294.9,1927.66v-0.32c0-4.28,2.34-6.93,5.6-6.93a5.3,5.3,0,0,1,3.52,1.31l-1.46,2.18a2.61,2.61,0,0,0-2-1c-1.7,0-2.91,1.64-2.91,4.42v0.28c0,3.21,1.37,4.53,2.93,4.53a2.2,2.2,0,0,0,1.13-.28v-3h-1.88v-2.34h4.36v6.87a6.86,6.86,0,0,1-3.78,1.19C1297.3,1934.59,1294.9,1932.28,1294.9,1927.66Z" transform="translate(-1187.02 -1920.36)"/><path class="cls-1" d="M1309,1920.51h2.67l3.86,13.92h-2.71l-0.75-2.89h-3.56l-0.73,2.89h-2.61Zm2.44,8.67-1.13-4.55-1.17,4.55h2.3Z" transform="translate(-1187.02 -1920.36)"/><path class="cls-1" d="M1316.82,1920.57h2.65V1932h4.16v2.48h-6.81v-13.86Z" transform="translate(-1187.02 -1920.36)"/><path class="cls-1" d="M1224.58,1937.73h3.92A4.78,4.78,0,0,1,1232,1939a4.43,4.43,0,0,1,1.15,3.25v0.12a4.17,4.17,0,0,1-2.12,3.9l2.44,5.37h-3l-2.08-4.69h-1.17v4.69h-2.65v-13.86Zm3.7,6.81a2,2,0,0,0,2.18-2.2,2,2,0,0,0-2.24-2.18h-1v4.38h1Z" transform="translate(-1187.02 -1920.36)"/><path class="cls-1" d="M1234.83,1937.73H1242v2.46h-4.57v3.21h4v2.46h-4v3.29h4.65v2.46h-7.29v-13.86Z" transform="translate(-1187.02 -1920.36)"/><path class="cls-1" d="M1242.79,1949.89l1.58-2.06a4,4,0,0,0,2.65,1.45,1.42,1.42,0,0,0,1.54-1.43c0-.61-0.32-1.09-1.88-2-2.1-1.25-3.33-2.34-3.33-4.28v0a3.86,3.86,0,0,1,4.18-3.92,5.18,5.18,0,0,1,3.74,1.6l-1.62,2a3.2,3.2,0,0,0-2.24-1.19,1.25,1.25,0,0,0-1.39,1.21c0,0.65.32,1.13,2.24,2.32s3,2.28,3,4.12v0a4,4,0,0,1-4.18,4A5.92,5.92,0,0,1,1242.79,1949.89Z" transform="translate(-1187.02 -1920.36)"/><path class="cls-1" d="M1254.43,1940.22h-2.63v-2.5h7.92v2.5h-2.63v11.37h-2.65v-11.37Z" transform="translate(-1187.02 -1920.36)"/><path class="cls-1" d="M1261.22,1937.73h3.92a4.78,4.78,0,0,1,3.47,1.23,4.43,4.43,0,0,1,1.15,3.25v0.12a4.17,4.17,0,0,1-2.12,3.9l2.44,5.37h-3l-2.08-4.69h-1.17v4.69h-2.65v-13.86Zm3.7,6.81a2,2,0,0,0,2.18-2.2,2,2,0,0,0-2.24-2.18h-1v4.38h1Z" transform="translate(-1187.02 -1920.36)"/><path class="cls-1" d="M1271.55,1937.73h2.63v13.86h-2.63v-13.86Z" transform="translate(-1187.02 -1920.36)"/><path class="cls-1" d="M1276,1944.82v-0.32c0-4.51,2.22-6.93,5.21-6.93a4.49,4.49,0,0,1,3.31,1.35L1283,1941a2.65,2.65,0,0,0-1.82-.93c-1.37,0-2.48,1.52-2.48,4.49v0.1c0,3.17,1.19,4.52,2.44,4.52a2.73,2.73,0,0,0,2-1l1.41,2.06a4.87,4.87,0,0,1-3.49,1.5C1278,1951.75,1276,1949.33,1276,1944.82Z" transform="translate(-1187.02 -1920.36)"/><path class="cls-1" d="M1288,1940.22h-2.63v-2.5h7.92v2.5h-2.63v11.37H1288v-11.37Z" transform="translate(-1187.02 -1920.36)"/><path class="cls-1" d="M1294.86,1937.73h2.63v13.86h-2.63v-13.86Z" transform="translate(-1187.02 -1920.36)"/><path class="cls-1" d="M1299.34,1944.9v-0.46c0-4.38,2.06-6.93,5-6.93s5,2.55,5,6.91v0.46c0,4.36-2.06,6.93-5,6.93S1299.34,1949.25,1299.34,1944.9Zm7.37-.1v-0.26c0-3.13-1-4.59-2.34-4.59s-2.32,1.45-2.32,4.57v0.26c0,3.13,1,4.59,2.34,4.59S1306.7,1947.93,1306.7,1944.8Z" transform="translate(-1187.02 -1920.36)"/><path class="cls-1" d="M1311.17,1937.73h2.46l3.94,7.56v-7.56h2.59v13.86h-2.3l-4.1-7.88v7.88h-2.59v-13.86Z" transform="translate(-1187.02 -1920.36)"/><path class="cls-1" d="M1321.23,1949.89l1.58-2.06a4,4,0,0,0,2.65,1.45,1.42,1.42,0,0,0,1.54-1.43c0-.61-0.32-1.09-1.88-2-2.1-1.25-3.33-2.34-3.33-4.28v0a3.86,3.86,0,0,1,4.18-3.92,5.18,5.18,0,0,1,3.74,1.6l-1.62,2a3.2,3.2,0,0,0-2.24-1.19,1.25,1.25,0,0,0-1.39,1.21c0,0.65.32,1.13,2.24,2.32s3,2.28,3,4.12v0a4,4,0,0,1-4.18,4A5.92,5.92,0,0,1,1321.23,1949.89Z" transform="translate(-1187.02 -1920.36)"/><path class="cls-1" d="M1218,1920.58v15.5a15.5,15.5,0,0,1-15.5,15.5H1187v-15.5a15.5,15.5,0,0,1,15.5-15.5H1218Zm-24,15.65a8.13,8.13,0,0,1,2.47-6,8.36,8.36,0,0,1,6.06-2.41,8.51,8.51,0,0,1,4.53,1.22l3.06-3.06a12.66,12.66,0,0,0-17.72,17.72l2.86-2.86A8.14,8.14,0,0,1,1194,1936.23Zm18.51-8-12.35,12.35a4.5,4.5,0,0,0,2.27.58,5.37,5.37,0,0,0,4.38-2.12l2.32,2.4a8.48,8.48,0,0,1-6.53,3.11,8.81,8.81,0,0,1-5-1.41l-2.86,2.86a12.54,12.54,0,0,0,7.79,2.7A12.66,12.66,0,0,0,1212.5,1928.28Zm-14.77,7.91a5.8,5.8,0,0,0,.28,1.87l6.49-6.49a5.06,5.06,0,0,0-1.81-.31,5,5,0,0,0-3.5,1.33A4.67,4.67,0,0,0,1197.73,1936.18Z" transform="translate(-1187.02 -1920.36)"/></svg>