<svg id="FINAL" xmlns="http://www.w3.org/2000/svg" viewBox="0 0 121.76 31.45"><defs><style>.cls-1{fill:#fff;}.cls-2{fill:#414042;}</style></defs><title>Other-UNKNOWN.dark-white-interior</title><circle class="cls-1" cx="15.13" cy="15.82" r="13.81"/><path class="cls-2" d="M2207.13,2185.1h2.45l3.94,7.56v-7.56h2.59V2199h-2.3l-4.1-7.88V2199h-2.59V2185.1Z" transform="translate(-2169.57 -2184.88)"/><path class="cls-2" d="M2217.88,2192.27v-0.46c0-4.38,2.06-6.93,5-6.93s5,2.55,5,6.91v0.46c0,4.36-2.06,6.93-5,6.93S2217.88,2196.62,2217.88,2192.27Zm7.37-.1v-0.26c0-3.13-1-4.59-2.34-4.59s-2.32,1.45-2.32,4.57v0.26c0,3.13,1,4.59,2.34,4.59S2225.25,2195.3,2225.25,2192.17Z" transform="translate(-2169.57 -2184.88)"/><path class="cls-2" d="M2233.36,2185.1H2236v5.9l3.31-5.9h3.09l-3.56,5.86,3.68,8h-3l-2.53-5.49L2236,2195V2199h-2.65V2185.1Z" transform="translate(-2169.57 -2184.88)"/><path class="cls-2" d="M2243.73,2185.1h2.46l3.94,7.56v-7.56h2.59V2199h-2.3l-4.1-7.88V2199h-2.59V2185.1Z" transform="translate(-2169.57 -2184.88)"/><path class="cls-2" d="M2254.48,2192.27v-0.46c0-4.38,2.06-6.93,5-6.93s5,2.55,5,6.91v0.46c0,4.36-2.06,6.93-5,6.93S2254.48,2196.62,2254.48,2192.27Zm7.37-.1v-0.26c0-3.13-1-4.59-2.34-4.59s-2.32,1.45-2.32,4.57v0.26c0,3.13,1,4.59,2.34,4.59S2261.84,2195.3,2261.84,2192.17Z" transform="translate(-2169.57 -2184.88)"/><path class="cls-2" d="M2265.09,2185.1h2.77l1.7,8.83,1.9-8.85h2.38l1.9,8.85,1.7-8.83h2.71l-3.07,13.92h-2.59l-1.88-8.53-1.88,8.53h-2.57Z" transform="translate(-2169.57 -2184.88)"/><path class="cls-2" d="M2281.5,2185.1H2284l3.94,7.56v-7.56h2.59V2199h-2.3l-4.1-7.88V2199h-2.59V2185.1Z" transform="translate(-2169.57 -2184.88)"/><path class="cls-2" d="M2206.76,2209.34V2209c0-4.51,2.22-6.93,5.21-6.93a4.49,4.49,0,0,1,3.31,1.35l-1.51,2.12a2.64,2.64,0,0,0-1.82-.93c-1.37,0-2.48,1.52-2.48,4.49v0.1c0,3.17,1.19,4.51,2.44,4.51a2.73,2.73,0,0,0,2-1l1.41,2.06a4.87,4.87,0,0,1-3.48,1.5C2208.72,2216.27,2206.76,2213.86,2206.76,2209.34Z" transform="translate(-2169.57 -2184.88)"/><path class="cls-2" d="M2215.9,2209.42V2209c0-4.38,2.06-6.93,5-6.93s5,2.55,5,6.91v0.46c0,4.36-2.06,6.93-5,6.93S2215.9,2213.78,2215.9,2209.42Zm7.37-.1v-0.26c0-3.13-1-4.59-2.34-4.59s-2.32,1.45-2.32,4.57v0.26c0,3.13,1,4.59,2.34,4.59S2223.27,2212.45,2223.27,2209.32Z" transform="translate(-2169.57 -2184.88)"/><path class="cls-2" d="M2227.74,2202.25h3.45c2.89,0,4.79,1.62,4.79,4.71v0c0,3.17-2,4.71-4.71,4.83h-0.87v4.28h-2.65v-13.86Zm3.35,7.17a2.1,2.1,0,0,0,2.22-2.36c0-1.52-.69-2.38-2.2-2.38h-0.71v4.73h0.69Z" transform="translate(-2169.57 -2184.88)"/><path class="cls-2" d="M2239.85,2210.65l-3.6-8.4h2.89l2.06,5.33,2.08-5.33h2.81l-3.58,8.38v5.49h-2.65v-5.47Z" transform="translate(-2169.57 -2184.88)"/><path class="cls-2" d="M2247.25,2202.25h3.92a4.78,4.78,0,0,1,3.46,1.23,4.43,4.43,0,0,1,1.15,3.25v0.12a4.17,4.17,0,0,1-2.12,3.9l2.44,5.37h-3l-2.08-4.69h-1.17v4.69h-2.65v-13.86Zm3.7,6.81a2,2,0,0,0,2.18-2.2,2,2,0,0,0-2.24-2.18h-1v4.38h1Z" transform="translate(-2169.57 -2184.88)"/><path class="cls-2" d="M2257.59,2202.25h2.63v13.86h-2.63v-13.86Z" transform="translate(-2169.57 -2184.88)"/><path class="cls-2" d="M2262.06,2209.34V2209c0-4.28,2.34-6.93,5.6-6.93a5.3,5.3,0,0,1,3.52,1.31l-1.46,2.18a2.61,2.61,0,0,0-2-1c-1.7,0-2.91,1.64-2.91,4.42v0.28c0,3.21,1.37,4.53,2.93,4.53a2.2,2.2,0,0,0,1.13-.28v-3h-1.88v-2.34h4.36v6.87a6.86,6.86,0,0,1-3.78,1.19C2264.45,2216.27,2262.06,2214,2262.06,2209.34Z" transform="translate(-2169.57 -2184.88)"/><path class="cls-2" d="M2273.22,2202.25h2.65v5.64h3.39v-5.64h2.65v13.86h-2.65v-5.72h-3.39v5.72h-2.65v-13.86Z" transform="translate(-2169.57 -2184.88)"/><path class="cls-2" d="M2286,2204.75h-2.63v-2.49h7.92v2.49h-2.63v11.37H2286v-11.37Z" transform="translate(-2169.57 -2184.88)"/><path class="cls-2" d="M2200.57,2185.11v15.5a15.5,15.5,0,0,1-15.5,15.5h-15.5v-15.5a15.5,15.5,0,0,1,15.5-15.5h15.5Zm-28.17,15.5a12.67,12.67,0,1,0,12.67-12.67A12.67,12.67,0,0,0,2172.4,2200.61Z" transform="translate(-2169.57 -2184.88)"/><path class="cls-2" d="M2190.17,2196.87a3.15,3.15,0,0,1-.24,1.41c-0.15.3-.26,0.51-0.33,0.65a3.25,3.25,0,0,1-.43.6l-0.46.51-1.07,1.05a3.41,3.41,0,0,0-.67.8,2.1,2.1,0,0,0-.16,1v1.41h-3.58v-1.76a3.31,3.31,0,0,1,.25-1.44,6.65,6.65,0,0,1,1-1.31l1.59-1.64a1.6,1.6,0,0,0,.35-1.08,1.65,1.65,0,0,0-.38-1.12,1.2,1.2,0,0,0-1-.45,1.23,1.23,0,0,0-1,.53,2.58,2.58,0,0,0-.5,1.41h-3.74a5.62,5.62,0,0,1,1.72-3.69,5.17,5.17,0,0,1,3.64-1.34,5.23,5.23,0,0,1,3.58,1.2A4.13,4.13,0,0,1,2190.17,2196.87Z" transform="translate(-2169.57 -2184.88)"/><path class="cls-2" d="M2186.54,2205.81a2.06,2.06,0,1,0,0,2.92A2.08,2.08,0,0,0,2186.54,2205.81Z" transform="translate(-2169.57 -2184.88)"/></svg>