<svg id="FINAL" xmlns="http://www.w3.org/2000/svg" viewBox="0 0 121.76 31.45"><defs><style>.cls-1{fill:#fff;}</style></defs><title>Other-UNKNOWN.white</title><path class="cls-1" d="M3061,1482h2.45l3.94,7.56V1482H3070v13.86h-2.3l-4.1-7.88v7.88H3061V1482Z" transform="translate(-3023.44 -1481.81)"/><path class="cls-1" d="M3071.74,1489.19v-0.46c0-4.38,2.06-6.93,5-6.93s5,2.55,5,6.91v0.46c0,4.36-2.06,6.93-5,6.93S3071.74,1493.55,3071.74,1489.19Zm7.37-.1v-0.26c0-3.13-1-4.59-2.34-4.59s-2.32,1.45-2.32,4.57v0.26c0,3.13,1,4.59,2.34,4.59S3079.11,1492.22,3079.11,1489.09Z" transform="translate(-3023.44 -1481.81)"/><path class="cls-1" d="M3087.22,1482h2.65v5.9l3.31-5.9h3.09l-3.56,5.86,3.68,8h-3l-2.53-5.49-0.93,1.56v3.92h-2.65V1482Z" transform="translate(-3023.44 -1481.81)"/><path class="cls-1" d="M3097.59,1482H3100l3.94,7.56V1482h2.59v13.86h-2.3l-4.1-7.88v7.88h-2.59V1482Z" transform="translate(-3023.44 -1481.81)"/><path class="cls-1" d="M3108.34,1489.19v-0.46c0-4.38,2.06-6.93,5-6.93s5,2.55,5,6.91v0.46c0,4.36-2.06,6.93-5,6.93S3108.34,1493.55,3108.34,1489.19Zm7.37-.1v-0.26c0-3.13-1-4.59-2.34-4.59s-2.32,1.45-2.32,4.57v0.26c0,3.13,1,4.59,2.34,4.59S3115.71,1492.22,3115.71,1489.09Z" transform="translate(-3023.44 -1481.81)"/><path class="cls-1" d="M3118.95,1482h2.77l1.7,8.83,1.9-8.85h2.38l1.9,8.85,1.7-8.83H3134l-3.07,13.92h-2.59l-1.88-8.53-1.88,8.53H3122Z" transform="translate(-3023.44 -1481.81)"/><path class="cls-1" d="M3135.36,1482h2.45l3.94,7.56V1482h2.59v13.86h-2.3L3138,1488v7.88h-2.59V1482Z" transform="translate(-3023.44 -1481.81)"/><path class="cls-1" d="M3060.62,1506.27v-0.32c0-4.51,2.22-6.93,5.21-6.93a4.49,4.49,0,0,1,3.31,1.35l-1.51,2.12a2.64,2.64,0,0,0-1.82-.93c-1.37,0-2.48,1.52-2.48,4.49v0.1c0,3.17,1.19,4.51,2.44,4.51a2.73,2.73,0,0,0,2-1l1.41,2.06a4.87,4.87,0,0,1-3.48,1.5C3062.58,1513.2,3060.62,1510.78,3060.62,1506.27Z" transform="translate(-3023.44 -1481.81)"/><path class="cls-1" d="M3069.76,1506.35v-0.46c0-4.38,2.06-6.93,5-6.93s5,2.55,5,6.91v0.46c0,4.36-2.06,6.93-5,6.93S3069.76,1510.7,3069.76,1506.35Zm7.37-.1V1506c0-3.13-1-4.59-2.34-4.59s-2.32,1.45-2.32,4.57v0.26c0,3.13,1,4.59,2.34,4.59S3077.13,1509.38,3077.13,1506.25Z" transform="translate(-3023.44 -1481.81)"/><path class="cls-1" d="M3081.6,1499.18H3085c2.89,0,4.79,1.62,4.79,4.71v0c0,3.17-2,4.71-4.71,4.83h-0.87V1513h-2.65v-13.86Zm3.35,7.17a2.1,2.1,0,0,0,2.22-2.36c0-1.52-.69-2.38-2.2-2.38h-0.71v4.73h0.69Z" transform="translate(-3023.44 -1481.81)"/><path class="cls-1" d="M3093.71,1507.57l-3.6-8.4H3093l2.06,5.33,2.08-5.33H3100l-3.58,8.38V1513h-2.65v-5.47Z" transform="translate(-3023.44 -1481.81)"/><path class="cls-1" d="M3101.12,1499.18H3105a4.78,4.78,0,0,1,3.46,1.23,4.43,4.43,0,0,1,1.15,3.25v0.12a4.17,4.17,0,0,1-2.12,3.9L3110,1513h-3l-2.08-4.69h-1.17V1513h-2.65v-13.86Zm3.7,6.81a2,2,0,0,0,2.18-2.2,2,2,0,0,0-2.24-2.18h-1V1506h1Z" transform="translate(-3023.44 -1481.81)"/><path class="cls-1" d="M3111.45,1499.18h2.63V1513h-2.63v-13.86Z" transform="translate(-3023.44 -1481.81)"/><path class="cls-1" d="M3115.92,1506.27v-0.32c0-4.28,2.34-6.93,5.6-6.93a5.3,5.3,0,0,1,3.52,1.31l-1.46,2.18a2.61,2.61,0,0,0-2-1c-1.7,0-2.91,1.64-2.91,4.42v0.28c0,3.21,1.37,4.53,2.93,4.53a2.2,2.2,0,0,0,1.13-.28v-3h-1.88v-2.34h4.36V1512a6.86,6.86,0,0,1-3.78,1.19C3118.32,1513.2,3115.92,1510.88,3115.92,1506.27Z" transform="translate(-3023.44 -1481.81)"/><path class="cls-1" d="M3127.09,1499.18h2.65v5.64h3.39v-5.64h2.65V1513h-2.65v-5.72h-3.39V1513h-2.65v-13.86Z" transform="translate(-3023.44 -1481.81)"/><path class="cls-1" d="M3139.91,1501.67h-2.63v-2.49h7.92v2.49h-2.63V1513h-2.65v-11.37Z" transform="translate(-3023.44 -1481.81)"/><path class="cls-1" d="M3054.44,1482v15.5a15.5,15.5,0,0,1-15.5,15.5h-15.5v-15.5a15.5,15.5,0,0,1,15.5-15.5h15.5Zm-28.17,15.5a12.67,12.67,0,1,0,12.67-12.67A12.67,12.67,0,0,0,3026.27,1497.53Z" transform="translate(-3023.44 -1481.81)"/><path class="cls-1" d="M3044,1493.8a3.15,3.15,0,0,1-.24,1.41c-0.15.3-.26,0.51-0.33,0.65a3.25,3.25,0,0,1-.43.6l-0.46.51-1.07,1.05a3.41,3.41,0,0,0-.67.8,2.1,2.1,0,0,0-.16,1v1.41h-3.58v-1.76a3.31,3.31,0,0,1,.25-1.44,6.65,6.65,0,0,1,1-1.31L3040,1495a1.6,1.6,0,0,0,.35-1.08,1.65,1.65,0,0,0-.38-1.12,1.2,1.2,0,0,0-1-.45,1.23,1.23,0,0,0-1,.53,2.58,2.58,0,0,0-.5,1.41h-3.74a5.62,5.62,0,0,1,1.72-3.69,5.17,5.17,0,0,1,3.64-1.34,5.23,5.23,0,0,1,3.58,1.2A4.13,4.13,0,0,1,3044,1493.8Z" transform="translate(-3023.44 -1481.81)"/><path class="cls-1" d="M3040.41,1502.73a2.06,2.06,0,1,0,0,2.92A2.08,2.08,0,0,0,3040.41,1502.73Z" transform="translate(-3023.44 -1481.81)"/></svg>