<svg id="FINAL" xmlns="http://www.w3.org/2000/svg" viewBox="0 0 153.65 31.44"><defs><style>.cls-1{fill:#fff;}</style></defs><title>Other-UNDETERMINED.white</title><path class="cls-1" d="M2194.92,1904.2v15.5a15.5,15.5,0,0,1-15.5,15.5h-15.5v-15.5a15.5,15.5,0,0,1,15.5-15.5h15.5Zm-28.17,15.5a12.67,12.67,0,1,0,12.67-12.67A12.67,12.67,0,0,0,2166.75,1919.7Z" transform="translate(-2163.92 -1903.93)"/><path class="cls-1" d="M2184.51,1916a3.15,3.15,0,0,1-.24,1.41c-0.15.3-.26,0.51-0.33,0.65a3.25,3.25,0,0,1-.43.6l-0.46.51-1.07,1.05a3.41,3.41,0,0,0-.67.8,2.1,2.1,0,0,0-.16,1v1.41h-3.58v-1.76a3.31,3.31,0,0,1,.25-1.44,6.65,6.65,0,0,1,1-1.31l1.59-1.64a1.6,1.6,0,0,0,.35-1.08,1.65,1.65,0,0,0-.38-1.12,1.2,1.2,0,0,0-1-.45,1.23,1.23,0,0,0-1,.53,2.58,2.58,0,0,0-.5,1.41h-3.74a5.62,5.62,0,0,1,1.72-3.69,5.17,5.17,0,0,1,3.64-1.34,5.23,5.23,0,0,1,3.58,1.2A4.13,4.13,0,0,1,2184.51,1916Z" transform="translate(-2163.92 -1903.93)"/><path class="cls-1" d="M2180.89,1924.9a2.06,2.06,0,1,0,0,2.92A2.08,2.08,0,0,0,2180.89,1924.9Z" transform="translate(-2163.92 -1903.93)"/><path class="cls-1" d="M2201,1911.24v-0.32c0-4.52,2.22-6.93,5.21-6.93a4.49,4.49,0,0,1,3.31,1.35l-1.51,2.12a2.65,2.65,0,0,0-1.82-.93c-1.37,0-2.48,1.52-2.48,4.5v0.1c0,3.17,1.19,4.52,2.44,4.52a2.73,2.73,0,0,0,2-1l1.41,2.06a4.87,4.87,0,0,1-3.49,1.5C2203,1918.17,2201,1915.76,2201,1911.24Z" transform="translate(-2163.92 -1903.93)"/><path class="cls-1" d="M2210.12,1911.32v-0.46c0-4.38,2.06-6.93,5.05-6.93s5,2.56,5,6.91v0.46c0,4.36-2.06,6.93-5.05,6.93S2210.12,1915.68,2210.12,1911.32Zm7.37-.1V1911c0-3.13-1-4.6-2.34-4.6s-2.32,1.45-2.32,4.58v0.26c0,3.13,1,4.6,2.34,4.6S2217.48,1914.35,2217.48,1911.22Z" transform="translate(-2163.92 -1903.93)"/><path class="cls-1" d="M2221.92,1904.15h3.45c2.89,0,4.79,1.62,4.79,4.71v0c0,3.17-2,4.71-4.71,4.83h-0.87V1918h-2.65v-13.86Zm3.35,7.17a2.1,2.1,0,0,0,2.22-2.36c0-1.52-.69-2.38-2.2-2.38h-0.71v4.73h0.69Z" transform="translate(-2163.92 -1903.93)"/><path class="cls-1" d="M2234,1912.55l-3.6-8.4h2.89l2.06,5.33,2.08-5.33h2.81l-3.58,8.38V1918H2234v-5.47Z" transform="translate(-2163.92 -1903.93)"/><path class="cls-1" d="M2241.36,1904.15h3.92a4.78,4.78,0,0,1,3.47,1.23,4.43,4.43,0,0,1,1.15,3.25v0.12a4.17,4.17,0,0,1-2.12,3.9l2.44,5.37h-3l-2.08-4.69H2244V1918h-2.65v-13.86Zm3.7,6.81a2,2,0,0,0,2.18-2.2,2,2,0,0,0-2.24-2.18h-1V1911h1Z" transform="translate(-2163.92 -1903.93)"/><path class="cls-1" d="M2251.66,1904.15h2.63V1918h-2.63v-13.86Z" transform="translate(-2163.92 -1903.93)"/><path class="cls-1" d="M2256.09,1911.24v-0.32c0-4.28,2.34-6.93,5.6-6.93a5.3,5.3,0,0,1,3.53,1.31l-1.47,2.18a2.61,2.61,0,0,0-2-1c-1.7,0-2.91,1.64-2.91,4.42v0.28c0,3.21,1.37,4.54,2.93,4.54a2.2,2.2,0,0,0,1.13-.28v-3H2261v-2.34h4.36V1917a6.86,6.86,0,0,1-3.78,1.19C2258.49,1918.17,2256.09,1915.85,2256.09,1911.24Z" transform="translate(-2163.92 -1903.93)"/><path class="cls-1" d="M2267.22,1904.15h2.65v5.65h3.39v-5.65h2.65V1918h-2.65v-5.72h-3.39V1918h-2.65v-13.86Z" transform="translate(-2163.92 -1903.93)"/><path class="cls-1" d="M2280,1906.64h-2.63v-2.5h7.92v2.5h-2.63V1918H2280v-11.37Z" transform="translate(-2163.92 -1903.93)"/><path class="cls-1" d="M2201.26,1930.42v-9.11h2.65v9.25c0,1.6.69,2.36,1.76,2.36s1.76-.73,1.76-2.34v-9.27h2.63v9.09c0,3.39-1.78,5-4.42,5S2201.26,1933.77,2201.26,1930.42Z" transform="translate(-2163.92 -1903.93)"/><path class="cls-1" d="M2212.08,1921.31h2.46l3.94,7.57v-7.57h2.59v13.86h-2.3l-4.1-7.88v7.88h-2.59v-13.86Z" transform="translate(-2163.92 -1903.93)"/><path class="cls-1" d="M2223.16,1921.31h3.43c3.62,0,5.78,2.52,5.78,6.77v0.32c0,4.24-2.16,6.77-5.78,6.77h-3.43v-13.86Zm2.65,2.42v9h0.73c1.84,0,3.09-1.33,3.09-4.42v-0.2c0-3.09-1.25-4.42-3.09-4.42h-0.73Z" transform="translate(-2163.92 -1903.93)"/><path class="cls-1" d="M2234.07,1921.31h7.21v2.46h-4.58V1927h4v2.46h-4v3.29h4.65v2.46h-7.29v-13.86Z" transform="translate(-2163.92 -1903.93)"/><path class="cls-1" d="M2245.06,1923.8h-2.63v-2.5h7.92v2.5h-2.63v11.37h-2.65V1923.8Z" transform="translate(-2163.92 -1903.93)"/><path class="cls-1" d="M2251.81,1921.31H2259v2.46h-4.58V1927h4v2.46h-4v3.29h4.65v2.46h-7.29v-13.86Z" transform="translate(-2163.92 -1903.93)"/><path class="cls-1" d="M2260.8,1921.31h3.92a4.78,4.78,0,0,1,3.47,1.23,4.43,4.43,0,0,1,1.15,3.25v0.12a4.17,4.17,0,0,1-2.12,3.9l2.44,5.37h-3l-2.08-4.69h-1.17v4.69h-2.65v-13.86Zm3.7,6.81a2,2,0,0,0,2.18-2.2,2,2,0,0,0-2.24-2.18h-1v4.38h1Z" transform="translate(-2163.92 -1903.93)"/><path class="cls-1" d="M2271,1921.31h2.71l2.44,5.37,2.42-5.37h2.73v13.86h-2.59v-8.64l-2.55,5.51h0l-2.56-5.47v8.6H2271v-13.86Z" transform="translate(-2163.92 -1903.93)"/><path class="cls-1" d="M2283.47,1921.31h2.63v13.86h-2.63v-13.86Z" transform="translate(-2163.92 -1903.93)"/><path class="cls-1" d="M2288.28,1921.31h2.46l3.94,7.57v-7.57h2.59v13.86H2295l-4.1-7.88v7.88h-2.59v-13.86Z" transform="translate(-2163.92 -1903.93)"/><path class="cls-1" d="M2299.37,1921.31h7.21v2.46H2302V1927h4v2.46h-4v3.29h4.65v2.46h-7.29v-13.86Z" transform="translate(-2163.92 -1903.93)"/><path class="cls-1" d="M2308.36,1921.31h3.43c3.62,0,5.78,2.52,5.78,6.77v0.32c0,4.24-2.16,6.77-5.78,6.77h-3.43v-13.86Zm2.65,2.42v9h0.73c1.84,0,3.09-1.33,3.09-4.42v-0.2c0-3.09-1.25-4.42-3.09-4.42H2311Z" transform="translate(-2163.92 -1903.93)"/></svg>