<svg id="FINAL" xmlns="http://www.w3.org/2000/svg" viewBox="0 0 156.22 31.46"><defs><style>.cls-1{fill:#414042;}</style></defs><title>Other-NOTEVALUATED.dark</title><path class="cls-1" d="M1438.42,1858.22v15.5a15.5,15.5,0,0,1-15.5,15.5h-15.5v-15.5a15.5,15.5,0,0,1,15.5-15.5h15.5Zm-28.17,15.5a12.67,12.67,0,1,0,12.67-12.67A12.67,12.67,0,0,0,1410.25,1873.72Z" transform="translate(-1407.42 -1857.9)"/><path class="cls-1" d="M1428,1870a3.15,3.15,0,0,1-.24,1.41c-0.15.3-.26,0.51-0.33,0.65a3.25,3.25,0,0,1-.43.6l-0.46.51-1.07,1.05a3.41,3.41,0,0,0-.67.8,2.1,2.1,0,0,0-.16,1v1.41h-3.58v-1.76a3.31,3.31,0,0,1,.25-1.44,6.65,6.65,0,0,1,1-1.31l1.59-1.64a1.6,1.6,0,0,0,.35-1.08,1.65,1.65,0,0,0-.38-1.12,1.2,1.2,0,0,0-1-.45,1.23,1.23,0,0,0-1,.53,2.58,2.58,0,0,0-.5,1.41h-3.74a5.62,5.62,0,0,1,1.72-3.69,5.17,5.17,0,0,1,3.64-1.34,5.23,5.23,0,0,1,3.58,1.2A4.13,4.13,0,0,1,1428,1870Z" transform="translate(-1407.42 -1857.9)"/><path class="cls-1" d="M1424.39,1878.92a2.06,2.06,0,1,0,0,2.92A2.08,2.08,0,0,0,1424.39,1878.92Z" transform="translate(-1407.42 -1857.9)"/><path class="cls-1" d="M1444.47,1865.24v-0.32c0-4.51,2.21-6.93,5.2-6.94a4.49,4.49,0,0,1,3.31,1.34l-1.5,2.12a2.64,2.64,0,0,0-1.82-.93c-1.37,0-2.47,1.53-2.47,4.5v0.1c0,3.17,1.2,4.51,2.44,4.51a2.73,2.73,0,0,0,2-1l1.41,2.06a4.87,4.87,0,0,1-3.48,1.51C1446.45,1872.17,1444.48,1869.76,1444.47,1865.24Z" transform="translate(-1407.42 -1857.9)"/><path class="cls-1" d="M1453.62,1865.31v-0.46c0-4.38,2-6.93,5-6.94s5,2.55,5,6.9v0.45c0,4.36-2,6.93-5,6.94S1453.63,1869.66,1453.62,1865.31Zm7.37-.11v-0.26c0-3.13-1-4.59-2.34-4.59s-2.31,1.45-2.31,4.58v0.26c0,3.13,1,4.59,2.34,4.59S1461,1868.33,1461,1865.2Z" transform="translate(-1407.42 -1857.9)"/><path class="cls-1" d="M1465.44,1858.12h3.45c2.89,0,4.79,1.62,4.8,4.71v0c0,3.17-2,4.72-4.71,4.84h-0.87V1872h-2.65Zm3.36,7.16a2.1,2.1,0,0,0,2.21-2.36c0-1.52-.7-2.37-2.2-2.37h-0.71v4.73h0.69Z" transform="translate(-1407.42 -1857.9)"/><path class="cls-1" d="M1477.57,1866.5l-3.62-8.39h2.89l2.07,5.32,2.07-5.33h2.81l-3.57,8.38V1872h-2.65v-5.47Z" transform="translate(-1407.42 -1857.9)"/><path class="cls-1" d="M1485,1858.09h3.92a4.78,4.78,0,0,1,3.47,1.22,4.43,4.43,0,0,1,1.15,3.25v0.12a4.17,4.17,0,0,1-2.11,3.9l2.44,5.36h-3l-2.09-4.69h-1.17v4.69H1485Zm3.71,6.81a2,2,0,0,0,2.17-2.2,2,2,0,0,0-2.24-2.18h-1v4.38h1Z" transform="translate(-1407.42 -1857.9)"/><path class="cls-1" d="M1495.29,1858.07h2.63l0,13.86h-2.63Z" transform="translate(-1407.42 -1857.9)"/><path class="cls-1" d="M1499.78,1865.16v-0.32c0-4.28,2.33-6.93,5.59-6.94a5.3,5.3,0,0,1,3.53,1.3l-1.46,2.18a2.61,2.61,0,0,0-2-1c-1.7,0-2.91,1.65-2.9,4.42v0.28c0,3.21,1.37,4.53,2.94,4.53a2.2,2.2,0,0,0,1.13-.28v-3h-1.88V1864H1509v6.87a6.85,6.85,0,0,1-3.78,1.19C1502.18,1872.08,1499.78,1869.77,1499.78,1865.16Z" transform="translate(-1407.42 -1857.9)"/><path class="cls-1" d="M1510.93,1858h2.65v5.64H1517V1858h2.65l0,13.86H1517v-5.72h-3.39v5.72H1511Z" transform="translate(-1407.42 -1857.9)"/><path class="cls-1" d="M1523.76,1860.52h-2.63V1858H1529v2.49h-2.63l0,11.37h-2.65Z" transform="translate(-1407.42 -1857.9)"/><path class="cls-1" d="M1444.87,1875.31h2.46l4,7.56v-7.56h2.59l0,13.86h-2.3l-4.11-7.87v7.88h-2.59Z" transform="translate(-1407.42 -1857.9)"/><path class="cls-1" d="M1455.62,1882.46V1882c0-4.38,2-6.93,5-6.94s5,2.55,5,6.9v0.46c0,4.36-2,6.93-5,6.94S1455.63,1886.81,1455.62,1882.46Zm7.37-.11v-0.26c0-3.13-1-4.59-2.34-4.59s-2.32,1.45-2.31,4.58v0.26c0,3.13,1,4.59,2.34,4.59S1463,1885.48,1463,1882.35Z" transform="translate(-1407.42 -1857.9)"/><path class="cls-1" d="M1469,1877.76h-2.63v-2.5h7.92v2.5h-2.63l0,11.37H1469Z" transform="translate(-1407.42 -1857.9)"/><path class="cls-1" d="M1479.41,1875.25h7.21v2.46H1482v3.21h4v2.46h-4v3.29h4.65v2.46h-7.29Z" transform="translate(-1407.42 -1857.9)"/><path class="cls-1" d="M1487.56,1875.24h2.79l2.17,9.3,2.14-9.31h2.71l-3.6,13.93h-2.57Z" transform="translate(-1407.42 -1857.9)"/><path class="cls-1" d="M1500.62,1875.16h2.67l3.88,13.91h-2.71l-0.76-2.89h-3.56l-0.73,2.89h-2.61Zm2.45,8.67-1.14-4.55-1.16,4.56h2.3Z" transform="translate(-1407.42 -1857.9)"/><path class="cls-1" d="M1508.4,1875.21h2.65l0,11.39h4.16v2.48h-6.81Z" transform="translate(-1407.42 -1857.9)"/><path class="cls-1" d="M1516.29,1884.3v-9.11h2.65v9.25c0,1.6.7,2.36,1.77,2.35s1.76-.74,1.76-2.34v-9.27h2.63v9.09c0,3.39-1.77,5-4.41,5S1516.3,1887.65,1516.29,1884.3Z" transform="translate(-1407.42 -1857.9)"/><path class="cls-1" d="M1529.86,1875.11h2.67l3.88,13.91h-2.71l-0.76-2.89h-3.56l-0.73,2.89H1526Zm2.45,8.67-1.14-4.55-1.16,4.56h2.3Z" transform="translate(-1407.42 -1857.9)"/><path class="cls-1" d="M1538.61,1877.66H1536v-2.49h7.92v2.49h-2.63l0,11.37h-2.65Z" transform="translate(-1407.42 -1857.9)"/><path class="cls-1" d="M1545.4,1875.15h7.21v2.45H1548v3.21h4v2.46h-4v3.29h4.65V1889h-7.29Z" transform="translate(-1407.42 -1857.9)"/><path class="cls-1" d="M1554.42,1875.14h3.43c3.62,0,5.79,2.51,5.79,6.76v0.32c0,4.24-2.15,6.78-5.77,6.78h-3.43Zm2.66,2.41v9h0.73c1.84,0,3.09-1.33,3.08-4.42V1882c0-3.09-1.26-4.41-3.1-4.41h-0.73Z" transform="translate(-1407.42 -1857.9)"/></svg>