<svg id="FINAL" xmlns="http://www.w3.org/2000/svg" viewBox="0 0 121.76 31.45"><defs><style>.cls-1{fill:#fff;}.cls-2{fill:#008cc8;}.cls-3{fill:#414042;}</style></defs><title>Other-UNKNOWN.dark-white-interior-blue-type</title><circle class="cls-1" cx="15.57" cy="15.79" r="13.91"/><path class="cls-2" d="M2192.51,2566.85H2195l3.94,7.56v-7.56h2.59v13.86h-2.3l-4.1-7.88v7.88h-2.59v-13.86Z" transform="translate(-2154.95 -2566.64)"/><path class="cls-2" d="M2203.25,2574v-0.46c0-4.38,2.06-6.93,5-6.93s5,2.55,5,6.91V2574c0,4.36-2.06,6.93-5,6.93S2203.25,2578.38,2203.25,2574Zm7.37-.1v-0.26c0-3.13-1-4.59-2.34-4.59s-2.32,1.45-2.32,4.57v0.26c0,3.13,1,4.59,2.34,4.59S2210.62,2577.05,2210.62,2573.92Z" transform="translate(-2154.95 -2566.64)"/><path class="cls-2" d="M2218.73,2566.85h2.65v5.9l3.31-5.9h3.09l-3.56,5.86,3.68,8h-3l-2.53-5.49-0.93,1.56v3.92h-2.65v-13.86Z" transform="translate(-2154.95 -2566.64)"/><path class="cls-2" d="M2229.1,2566.85h2.46l3.94,7.56v-7.56h2.59v13.86h-2.3l-4.1-7.88v7.88h-2.59v-13.86Z" transform="translate(-2154.95 -2566.64)"/><path class="cls-2" d="M2239.85,2574v-0.46c0-4.38,2.06-6.93,5-6.93s5,2.55,5,6.91V2574c0,4.36-2.06,6.93-5,6.93S2239.85,2578.38,2239.85,2574Zm7.37-.1v-0.26c0-3.13-1-4.59-2.34-4.59s-2.32,1.45-2.32,4.57v0.26c0,3.13,1,4.59,2.34,4.59S2247.22,2577.05,2247.22,2573.92Z" transform="translate(-2154.95 -2566.64)"/><path class="cls-2" d="M2250.46,2566.85h2.77l1.7,8.83,1.9-8.85h2.38l1.9,8.85,1.7-8.83h2.71l-3.07,13.92h-2.59l-1.88-8.53-1.88,8.53h-2.57Z" transform="translate(-2154.95 -2566.64)"/><path class="cls-2" d="M2266.87,2566.85h2.45l3.94,7.56v-7.56h2.59v13.86h-2.3l-4.1-7.88v7.88h-2.59v-13.86Z" transform="translate(-2154.95 -2566.64)"/><path class="cls-2" d="M2192.13,2591.1v-0.32c0-4.51,2.22-6.93,5.21-6.93a4.49,4.49,0,0,1,3.31,1.35l-1.51,2.12a2.64,2.64,0,0,0-1.82-.93c-1.37,0-2.48,1.52-2.48,4.49v0.1c0,3.17,1.19,4.51,2.44,4.51a2.73,2.73,0,0,0,2-1l1.41,2.06a4.87,4.87,0,0,1-3.48,1.5C2194.09,2598,2192.13,2595.61,2192.13,2591.1Z" transform="translate(-2154.95 -2566.64)"/><path class="cls-2" d="M2201.28,2591.18v-0.46c0-4.38,2.06-6.93,5-6.93s5,2.55,5,6.91v0.46c0,4.36-2.06,6.93-5,6.93S2201.28,2595.53,2201.28,2591.18Zm7.37-.1v-0.26c0-3.13-1-4.59-2.34-4.59s-2.32,1.45-2.32,4.57v0.26c0,3.13,1,4.59,2.34,4.59S2208.64,2594.21,2208.64,2591.08Z" transform="translate(-2154.95 -2566.64)"/><path class="cls-2" d="M2213.11,2584h3.45c2.89,0,4.79,1.62,4.79,4.71v0c0,3.17-2,4.71-4.71,4.83h-0.87v4.28h-2.65V2584Zm3.35,7.17a2.1,2.1,0,0,0,2.22-2.36c0-1.52-.69-2.38-2.2-2.38h-0.71v4.73h0.69Z" transform="translate(-2154.95 -2566.64)"/><path class="cls-2" d="M2225.23,2592.4l-3.6-8.4h2.89l2.06,5.33,2.08-5.33h2.81l-3.58,8.38v5.49h-2.65v-5.47Z" transform="translate(-2154.95 -2566.64)"/><path class="cls-2" d="M2232.63,2584h3.92a4.78,4.78,0,0,1,3.46,1.23,4.43,4.43,0,0,1,1.15,3.25v0.12a4.17,4.17,0,0,1-2.12,3.9l2.44,5.37h-3l-2.08-4.69h-1.17v4.69h-2.65V2584Zm3.7,6.81a2,2,0,0,0,2.18-2.2,2,2,0,0,0-2.24-2.18h-1v4.38h1Z" transform="translate(-2154.95 -2566.64)"/><path class="cls-2" d="M2243,2584h2.63v13.86H2243V2584Z" transform="translate(-2154.95 -2566.64)"/><path class="cls-2" d="M2247.43,2591.1v-0.32c0-4.28,2.34-6.93,5.6-6.93a5.3,5.3,0,0,1,3.52,1.31l-1.46,2.18a2.61,2.61,0,0,0-2-1c-1.7,0-2.91,1.64-2.91,4.42v0.28c0,3.21,1.37,4.53,2.93,4.53a2.2,2.2,0,0,0,1.13-.28v-3h-1.88V2590h4.36v6.87a6.86,6.86,0,0,1-3.78,1.19C2249.83,2598,2247.43,2595.71,2247.43,2591.1Z" transform="translate(-2154.95 -2566.64)"/><path class="cls-2" d="M2258.6,2584h2.65v5.64h3.39V2584h2.65v13.86h-2.65v-5.72h-3.39v5.72h-2.65V2584Z" transform="translate(-2154.95 -2566.64)"/><path class="cls-2" d="M2271.42,2586.5h-2.63V2584h7.92v2.49h-2.63v11.37h-2.65V2586.5Z" transform="translate(-2154.95 -2566.64)"/><path class="cls-3" d="M2185.95,2566.87v15.5a15.5,15.5,0,0,1-15.5,15.5h-15.5v-15.5a15.5,15.5,0,0,1,15.5-15.5h15.5Zm-28.17,15.5a12.67,12.67,0,1,0,12.67-12.67A12.67,12.67,0,0,0,2157.78,2582.36Z" transform="translate(-2154.95 -2566.64)"/><path class="cls-3" d="M2175.54,2578.63a3.15,3.15,0,0,1-.24,1.41c-0.15.3-.26,0.51-0.33,0.65a3.25,3.25,0,0,1-.43.6l-0.46.51-1.07,1.05a3.41,3.41,0,0,0-.67.8,2.1,2.1,0,0,0-.16,1V2586h-3.58v-1.76a3.31,3.31,0,0,1,.25-1.44,6.65,6.65,0,0,1,1-1.31l1.59-1.64a1.6,1.6,0,0,0,.35-1.08,1.65,1.65,0,0,0-.38-1.12,1.2,1.2,0,0,0-1-.45,1.23,1.23,0,0,0-1,.53,2.58,2.58,0,0,0-.5,1.41h-3.74a5.62,5.62,0,0,1,1.72-3.69,5.17,5.17,0,0,1,3.64-1.34,5.23,5.23,0,0,1,3.58,1.2A4.13,4.13,0,0,1,2175.54,2578.63Z" transform="translate(-2154.95 -2566.64)"/><path class="cls-3" d="M2171.92,2587.56a2.06,2.06,0,1,0,0,2.92A2.08,2.08,0,0,0,2171.92,2587.56Z" transform="translate(-2154.95 -2566.64)"/></svg>