<svg id="FINAL" xmlns="http://www.w3.org/2000/svg" viewBox="0 0 156.22 31.46"><defs><style>.cls-1{fill:#fff;}</style></defs><title>Other-NOTEVALUATED.white</title><path class="cls-1" d="M3054.44,1544.72v15.5a15.5,15.5,0,0,1-15.5,15.5h-15.5v-15.5a15.5,15.5,0,0,1,15.5-15.5h15.5Zm-28.17,15.5a12.67,12.67,0,1,0,12.67-12.67A12.67,12.67,0,0,0,3026.27,1560.22Z" transform="translate(-3023.44 -1544.4)"/><path class="cls-1" d="M3044,1556.48a3.15,3.15,0,0,1-.24,1.41c-0.15.3-.26,0.51-0.33,0.65a3.25,3.25,0,0,1-.43.6l-0.46.51-1.07,1.05a3.41,3.41,0,0,0-.67.8,2.1,2.1,0,0,0-.16,1v1.41h-3.58v-1.76a3.31,3.31,0,0,1,.25-1.44,6.65,6.65,0,0,1,1-1.31l1.59-1.64a1.6,1.6,0,0,0,.35-1.08,1.65,1.65,0,0,0-.38-1.12,1.2,1.2,0,0,0-1-.45,1.23,1.23,0,0,0-1,.53,2.58,2.58,0,0,0-.5,1.41h-3.74a5.62,5.62,0,0,1,1.72-3.69,5.17,5.17,0,0,1,3.64-1.34,5.23,5.23,0,0,1,3.58,1.2A4.13,4.13,0,0,1,3044,1556.48Z" transform="translate(-3023.44 -1544.4)"/><path class="cls-1" d="M3040.41,1565.42a2.06,2.06,0,1,0,0,2.92A2.08,2.08,0,0,0,3040.41,1565.42Z" transform="translate(-3023.44 -1544.4)"/><path class="cls-1" d="M3060.49,1551.74v-0.32c0-4.51,2.21-6.93,5.2-6.94a4.49,4.49,0,0,1,3.31,1.34l-1.5,2.12a2.64,2.64,0,0,0-1.82-.93c-1.37,0-2.47,1.53-2.47,4.5v0.1c0,3.17,1.2,4.51,2.44,4.51a2.73,2.73,0,0,0,2-1l1.41,2.06a4.87,4.87,0,0,1-3.48,1.51C3062.46,1558.67,3060.5,1556.25,3060.49,1551.74Z" transform="translate(-3023.44 -1544.4)"/><path class="cls-1" d="M3069.63,1551.8v-0.46c0-4.38,2-6.93,5-6.94s5,2.55,5,6.9v0.45c0,4.36-2,6.93-5,6.94S3069.64,1556.16,3069.63,1551.8Zm7.37-.11v-0.26c0-3.13-1-4.59-2.34-4.59s-2.31,1.45-2.31,4.58v0.26c0,3.13,1,4.59,2.34,4.59S3077,1554.82,3077,1551.69Z" transform="translate(-3023.44 -1544.4)"/><path class="cls-1" d="M3081.46,1544.62h3.45c2.89,0,4.79,1.62,4.8,4.71v0c0,3.17-2,4.72-4.71,4.84h-0.87v4.28h-2.65Zm3.36,7.16a2.1,2.1,0,0,0,2.21-2.36c0-1.52-.7-2.37-2.2-2.37h-0.71v4.73h0.69Z" transform="translate(-3023.44 -1544.4)"/><path class="cls-1" d="M3093.59,1553l-3.62-8.39h2.89l2.07,5.32,2.07-5.33h2.81l-3.57,8.38v5.48h-2.65V1553Z" transform="translate(-3023.44 -1544.4)"/><path class="cls-1" d="M3101,1544.59h3.92a4.78,4.78,0,0,1,3.47,1.22,4.43,4.43,0,0,1,1.15,3.25v0.12a4.17,4.17,0,0,1-2.11,3.9l2.44,5.36h-3l-2.09-4.69h-1.17v4.69H3101Zm3.71,6.81a2,2,0,0,0,2.17-2.2,2,2,0,0,0-2.24-2.18h-1v4.38h1Z" transform="translate(-3023.44 -1544.4)"/><path class="cls-1" d="M3111.31,1544.57h2.63l0,13.86h-2.63Z" transform="translate(-3023.44 -1544.4)"/><path class="cls-1" d="M3115.79,1551.65v-0.32c0-4.28,2.33-6.93,5.59-6.94a5.3,5.3,0,0,1,3.53,1.3l-1.46,2.18a2.61,2.61,0,0,0-2-1c-1.7,0-2.91,1.65-2.9,4.42v0.28c0,3.21,1.37,4.53,2.94,4.53a2.2,2.2,0,0,0,1.13-.28v-3h-1.88v-2.34H3125v6.87a6.85,6.85,0,0,1-3.78,1.19C3118.2,1558.58,3115.8,1556.27,3115.79,1551.65Z" transform="translate(-3023.44 -1544.4)"/><path class="cls-1" d="M3126.94,1544.55h2.65v5.64H3133v-5.64h2.65l0,13.86H3133v-5.72h-3.39v5.72H3127Z" transform="translate(-3023.44 -1544.4)"/><path class="cls-1" d="M3139.77,1547h-2.63v-2.49h7.92V1547h-2.63l0,11.37h-2.65Z" transform="translate(-3023.44 -1544.4)"/><path class="cls-1" d="M3060.88,1561.8h2.46l4,7.56v-7.56h2.59l0,13.86h-2.3l-4.11-7.87v7.88h-2.59Z" transform="translate(-3023.44 -1544.4)"/><path class="cls-1" d="M3071.64,1569v-0.46c0-4.38,2-6.93,5-6.94s5,2.55,5,6.9v0.46c0,4.36-2,6.93-5,6.94S3071.65,1573.31,3071.64,1569Zm7.37-.11v-0.26c0-3.13-1-4.59-2.34-4.59s-2.32,1.45-2.31,4.58v0.26c0,3.13,1,4.59,2.34,4.59S3079,1572,3079,1568.84Z" transform="translate(-3023.44 -1544.4)"/><path class="cls-1" d="M3085,1564.26h-2.63v-2.5h7.92v2.5h-2.63l0,11.37H3085Z" transform="translate(-3023.44 -1544.4)"/><path class="cls-1" d="M3095.42,1561.75h7.21v2.46h-4.57v3.21h4v2.46h-4v3.29h4.65v2.46h-7.29Z" transform="translate(-3023.44 -1544.4)"/><path class="cls-1" d="M3103.57,1561.74h2.79l2.17,9.3,2.14-9.31h2.71l-3.6,13.93h-2.57Z" transform="translate(-3023.44 -1544.4)"/><path class="cls-1" d="M3116.64,1561.66h2.67l3.88,13.91h-2.71l-0.76-2.89h-3.56l-0.73,2.89h-2.61Zm2.45,8.67-1.14-4.55-1.16,4.56h2.3Z" transform="translate(-3023.44 -1544.4)"/><path class="cls-1" d="M3124.42,1561.7h2.65l0,11.39h4.16v2.48h-6.81Z" transform="translate(-3023.44 -1544.4)"/><path class="cls-1" d="M3132.31,1570.8v-9.11h2.65v9.25c0,1.6.7,2.36,1.77,2.35s1.76-.74,1.76-2.34v-9.27h2.63v9.09c0,3.39-1.77,5-4.41,5S3132.31,1574.15,3132.31,1570.8Z" transform="translate(-3023.44 -1544.4)"/><path class="cls-1" d="M3145.87,1561.61h2.67l3.88,13.91h-2.71l-0.76-2.89h-3.56l-0.73,2.89h-2.61Zm2.45,8.67-1.14-4.55-1.16,4.56h2.3Z" transform="translate(-3023.44 -1544.4)"/><path class="cls-1" d="M3154.63,1564.15H3152v-2.49h7.92v2.49h-2.63l0,11.37h-2.65Z" transform="translate(-3023.44 -1544.4)"/><path class="cls-1" d="M3161.41,1561.65h7.21v2.45H3164v3.21h4v2.46h-4V1573h4.65v2.46h-7.29Z" transform="translate(-3023.44 -1544.4)"/><path class="cls-1" d="M3170.44,1561.63h3.43c3.62,0,5.79,2.51,5.79,6.76v0.32c0,4.24-2.15,6.78-5.77,6.78h-3.43Zm2.66,2.41v9h0.73c1.84,0,3.09-1.33,3.08-4.42v-0.2c0-3.09-1.26-4.41-3.1-4.41h-0.73Z" transform="translate(-3023.44 -1544.4)"/></svg>