<?xml version="1.0" encoding="utf-8"?>
<!-- Generated by IcoMoon.io -->
<!DOCTYPE svg PUBLIC "-//W3C//DTD SVG 1.1//EN" "http://www.w3.org/Graphics/SVG/1.1/DTD/svg11.dtd">
<svg version="1.1" xmlns="http://www.w3.org/2000/svg" xmlns:xlink="http://www.w3.org/1999/xlink" width="28" height="32" viewBox="0 0 28 32">
<g id="icomoon-ignore">
</g>
<path d="M23.883 6.086l-2.82 2.832c1.89 1.891 2.937 4.406 2.937 7.082 0 5.516-4.484 10-10 10v-2l-4 4 4 4v-2c7.719 0 14-6.281 14-14 0-3.746-1.461-7.266-4.117-9.914zM18 4l-4-4v2c-7.719 0-14 6.281-14 14 0 3.746 1.461 7.266 4.117 9.914l2.82-2.832c-1.89-1.891-2.937-4.406-2.937-7.082 0-5.516 4.484-10 10-10v2l4-4z" fill="#000000"></path>
</svg>
