<svg style="position: absolute; width: 0; height: 0;" width="0" height="0" version="1.1" xmlns="http://www.w3.org/2000/svg" xmlns:xlink="http://www.w3.org/1999/xlink">
<defs>
<symbol id="icon-search" viewBox="0 0 951 1024">
	<title>search</title>
	<path class="path1" d="M658.286 475.429q0-105.714-75.143-180.857t-180.857-75.143-180.857 75.143-75.143 180.857 75.143 180.857 180.857 75.143 180.857-75.143 75.143-180.857zM950.857 950.857q0 29.714-21.714 51.429t-51.429 21.714q-30.857 0-51.429-21.714l-196-195.429q-102.286 70.857-228 70.857-81.714 0-156.286-31.714t-128.571-85.714-85.714-128.571-31.714-156.286 31.714-156.286 85.714-128.571 128.571-85.714 156.286-31.714 156.286 31.714 128.571 85.714 85.714 128.571 31.714 156.286q0 125.714-70.857 228l196 196q21.143 21.143 21.143 51.429z"></path>
</symbol>
<symbol id="icon-share" viewBox="0 0 1024 1024">
	<title>share</title>
	<path class="path1" d="M767.998 836.936h-665.6v-479.202h153.334c0 0 37.596-52.532 113.868-101.866h-318.4c-28.268 0-51.2 22.664-51.2 50.932v581.064c0 28.004 22.932 50.934 51.2 50.934h767.998c28.266 0 51.202-22.664 51.202-50.934v-290.662l-102.4 83.732v156.002h-0.002zM682.664 426.536v170.4l341.336-254.666-341.336-257.068v159.2c-412.796 0-426.662 438.136-426.662 438.136 116.798-190.668 202.668-256.002 426.662-256.002v0z"></path>
</symbol>
<symbol id="icon-google-plus" viewBox="0 0 951 1024">
	<title>google-plus</title>
	<path class="path1" d="M420 454.857q0 20.571 18.286 40.286t44.286 38.857 51.714 42 44 59.429 18.286 81.143q0 51.429-27.429 98.857-41.143 69.714-120.571 102.571t-170.286 32.857q-75.429 0-140.857-23.714t-98-78.571q-21.143-34.286-21.143-74.857 0-46.286 25.429-85.714t67.714-65.714q74.857-46.857 230.857-57.143-18.286-24-27.143-42.286t-8.857-41.714q0-20.571 12-48.571-26.286 2.286-38.857 2.286-84.571 0-142.571-55.143t-58-139.714q0-46.857 20.571-90.857t56.571-74.857q44-37.714 104.286-56t124.286-18.286h238.857l-78.857 50.286h-74.857q42.286 36 64 76t21.714 91.429q0 41.143-14 74t-33.714 53.143-39.714 37.143-34 35.143-14 37.714zM336.571 400q21.714 0 44.571-9.429t37.714-24.857q30.286-32.571 30.286-90.857 0-33.143-9.714-71.429t-27.714-74-48.286-59.143-66.857-23.429q-24 0-47.143 11.143t-37.429 30q-26.857 33.714-26.857 91.429 0 26.286 5.714 55.714t18 58.857 29.714 52.857 42.857 38.286 55.143 14.857zM337.714 898.857q33.143 0 63.714-7.429t56.571-22.286 41.714-41.714 15.714-62.286q0-14.286-4-28t-8.286-24-15.429-23.714-16.857-20-22-19.714-20.857-16.571-23.714-17.143-20.857-14.857q-9.143-1.143-27.429-1.143-30.286 0-60 4t-61.429 14.286-55.429 26.286-39.143 42.571-15.429 60.286q0 40 20 70.571t52.286 47.429 68 25.143 72.857 8.286zM800.571 398.286h121.714v61.714h-121.714v125.143h-60v-125.143h-121.143v-61.714h121.143v-124h60v124z"></path>
</symbol>
<symbol id="icon-linkedin" viewBox="0 0 1024 1024">
	<title>linkedin</title>
	<path class="path1" d="M199.429 357.143v566.286h-188.571v-566.286h188.571zM211.429 182.286q0.571 41.714-28.857 69.714t-77.429 28h-1.143q-46.857 0-75.429-28t-28.571-69.714q0-42.286 29.429-70t76.857-27.714 76 27.714 29.143 70zM877.714 598.857v324.571h-188v-302.857q0-60-23.143-94t-72.286-34q-36 0-60.286 19.714t-36.286 48.857q-6.286 17.143-6.286 46.286v316h-188q1.143-228 1.143-369.714t-0.571-169.143l-0.571-27.429h188v82.286h-1.143q11.429-18.286 23.429-32t32.286-29.714 49.714-24.857 65.429-8.857q97.714 0 157.143 64.857t59.429 190z"></path>
</symbol>
<symbol id="icon-instagram" viewBox="0 0 1024 1024">
	<title>instagram</title>
	<path class="path1" d="M778.286 814.857v-370.286h-77.143q11.429 36 11.429 74.857 0 72-36.571 132.857t-99.429 96.286-137.143 35.429q-112.571 0-192.571-77.429t-80-187.143q0-38.857 11.429-74.857h-80.571v370.286q0 14.857 10 24.857t24.857 10h610.857q14.286 0 24.571-10t10.286-24.857zM616 510.286q0-70.857-51.714-120.857t-124.857-50q-72.571 0-124.286 50t-51.714 120.857 51.714 120.857 124.286 50q73.143 0 124.857-50t51.714-120.857zM778.286 304.571v-94.286q0-16-11.429-27.714t-28-11.714h-99.429q-16.571 0-28 11.714t-11.429 27.714v94.286q0 16.571 11.429 28t28 11.429h99.429q16.571 0 28-11.429t11.429-28zM877.714 185.714v652.571q0 46.286-33.143 79.429t-79.429 33.143h-652.571q-46.286 0-79.429-33.143t-33.143-79.429v-652.571q0-46.286 33.143-79.429t79.429-33.143h652.571q46.286 0 79.429 33.143t33.143 79.429z"></path>
</symbol>
<symbol id="icon-twitter" viewBox="0 0 951 1024">
	<title>twitter</title>
	<path class="path1" d="M925.714 233.143q-38.286 56-92.571 95.429 0.571 8 0.571 24 0 74.286-21.714 148.286t-66 142-105.429 120.286-147.429 83.429-184.571 31.143q-154.857 0-283.429-82.857 20 2.286 44.571 2.286 128.571 0 229.143-78.857-60-1.143-107.429-36.857t-65.143-91.143q18.857 2.857 34.857 2.857 24.571 0 48.571-6.286-64-13.143-106-63.714t-42-117.429v-2.286q38.857 21.714 83.429 23.429-37.714-25.143-60-65.714t-22.286-88q0-50.286 25.143-93.143 69.143 85.143 168.286 136.286t212.286 56.857q-4.571-21.714-4.571-42.286 0-76.571 54-130.571t130.571-54q80 0 134.857 58.286 62.286-12 117.143-44.571-21.143 65.714-81.143 101.714 53.143-5.714 106.286-28.571z"></path>
</symbol>
<symbol id="icon-facebook" viewBox="0 0 585 1024">
	<title>facebook</title>
	<path class="path1" d="M548 6.857v150.857h-89.714q-49.143 0-66.286 20.571t-17.143 61.714v108h167.429l-22.286 169.143h-145.143v433.714h-174.857v-433.714h-145.714v-169.143h145.714v-124.571q0-106.286 59.429-164.857t158.286-58.571q84 0 130.286 6.857z"></path>
</symbol>
<symbol id="icon-off" viewBox="0 0 1024 1024">
	<title>off</title>
	<path class="path1" d="M877.714 512q0 89.143-34.857 170.286t-93.714 140-140 93.714-170.286 34.857-170.286-34.857-140-93.714-93.714-140-34.857-170.286q0-104 46-196t129.429-154.286q24.571-18.286 54.571-14.286t47.714 28.571q18.286 24 14 54t-28.286 48.286q-56 42.286-86.571 103.429t-30.571 130.286q0 59.429 23.143 113.429t62.571 93.429 93.429 62.571 113.429 23.143 113.429-23.143 93.429-62.571 62.571-93.429 23.143-113.429q0-69.143-30.571-130.286t-86.571-103.429q-24-18.286-28.286-48.286t14-54q17.714-24.571 48-28.571t54.286 14.286q83.429 62.286 129.429 154.286t46 196zM512 73.143v365.714q0 29.714-21.714 51.429t-51.429 21.714-51.429-21.714-21.714-51.429v-365.714q0-29.714 21.714-51.429t51.429-21.714 51.429 21.714 21.714 51.429z"></path>
</symbol>
<symbol id="icon-ok" viewBox="0 0 1024 1024">
	<title>ok</title>
	<path class="path1" d="M432.608 567.264l-145.056-145.12-90.496 90.496 235.584 235.616 398.208-398.24-90.496-90.496z"></path>
</symbol>
<symbol id="icon-ok-circle" viewBox="0 0 1024 1024">
	<title>ok-circle</title>
	<path class="path1" d="M512 0c-282.752 0-512 229.248-512 512s229.248 512 512 512 512-229.248 512-512-229.248-512-512-512zM432.64 748.256l-235.584-235.616 90.496-90.496 145.056 145.12 307.744-307.744 90.496 90.496-398.208 398.24z"></path>
</symbol>
<symbol id="icon-minus" viewBox="0 0 1024 1024">
	<title>minus</title>
	<path class="path1" d="M198.246 580.267h627.541v-136.533h-627.541z"></path>
</symbol>
<symbol id="icon-minus-circle" viewBox="0 0 1024 1024">
	<title>minus-circle</title>
	<path class="path1" d="M512 0c-282.752 0-512 229.248-512 512 0 282.72 229.248 512 512 512 282.784 0 512-229.248 512-512s-229.216-512-512-512zM806.144 576h-588.288v-128h588.32v128z"></path>
</symbol>
<symbol id="icon-plus" viewBox="0 0 1024 1024">
	<title>plus</title>
	<path class="path1" d="M580.267 198.246h-136.533v245.487h-245.487v136.533h245.487v245.453h136.533v-245.453h245.453v-136.533h-245.453z"></path>
</symbol>
<symbol id="icon-plus-circle" viewBox="0 0 1024 1024">
	<title>plus-circle</title>
	<path class="path1" d="M512 0c-282.752 0-512 229.248-512 512s229.248 512 512 512c282.784 0 512-229.248 512-512s-229.216-512-512-512zM806.144 576h-230.144v230.144h-128v-230.144h-230.144v-128h230.144v-230.144h128v230.144h230.144v128z"></path>
</symbol>
<symbol id="icon-help" viewBox="0 0 1024 1024">
	<title>help</title>
	<path class="path1" d="M579.008 751.84c1.344-44.096-29.056-75.904-73.792-77.248l-2.592-0.032c-42.112 0-73.536 30.656-74.784 72.8-1.216 42.88 29.504 75.040 73.024 76.288h2.848c43.072 0 74.112-29.536 75.296-71.808z"></path>
	<path class="path2" d="M594.432 536.512l31.264-21.664c28.384-22.080 50.88-40.192 61.184-54.688 19.616-26.976 29.632-56.672 29.696-88.224 0-56.416-20.32-99.712-60.384-128.608-39.488-28.48-89.824-43.008-149.312-43.008-45.44 0-84.384 10.208-115.648 30.4-49.92 31.68-76.768 85.888-79.936 161.216l-0.224 5.408h122.976v-5.152c0-20.448 5.984-40.448 18.080-59.52 11.68-18.592 31.136-27.648 59.648-27.648 28.704 0 48.608 7.456 59.040 22.208 10.88 15.264 16.384 32.416 16.384 50.944 0 13.312-5.504 26.912-18.016 44.192-5.408 7.808-12.608 15.104-21.088 21.568-2.496 1.568-62.048 39.936-89.056 71.584-17.184 20.192-18.272 44.608-19.712 86.048l-0.32 10.176h119.296v-5.088c0.288-19.68 1.728-22.208 4.864-32.064 3.776-12.224 14.112-24.768 31.264-38.080z"></path>
</symbol>
<symbol id="icon-help-circle" viewBox="0 0 1024 1024">
	<title>help-circle</title>
	<path class="path1" d="M505.216 0.032c-282.752 3.776-508.928 236.16-505.184 518.88 3.808 282.592 236.096 508.832 518.88 505.056 282.656-3.808 508.864-236.096 505.024-518.88-3.712-282.656-236-508.8-518.72-505.056v0zM503.712 823.648h-2.848c-43.52-1.248-74.24-33.376-73.024-76.288 1.248-42.144 32.672-72.8 74.784-72.8l2.592 0.032c44.736 1.344 75.136 33.152 73.792 77.248-1.216 42.272-32.224 71.808-75.296 71.808v0zM686.88 460.16c-10.304 14.496-32.8 32.608-61.184 54.688l-31.264 21.632c-17.152 13.344-27.488 25.888-31.328 38.112-3.136 9.824-4.576 12.384-4.832 32.064l-0.032 5.088h-119.264l0.32-10.176c1.44-41.44 2.528-65.856 19.712-86.048 27.008-31.648 86.56-70.016 89.056-71.584 8.512-6.464 15.68-13.76 21.088-21.568 12.544-17.28 18.048-30.88 18.048-44.192 0-18.528-5.504-35.68-16.384-50.944-10.464-14.752-30.336-22.208-59.040-22.208-28.512 0-47.968 9.056-59.648 27.648-12.096 19.072-18.080 39.072-18.080 59.52v5.152h-122.976l0.224-5.408c3.168-75.328 30.016-129.536 79.936-161.216 31.264-20.192 70.208-30.4 115.648-30.4 59.488 0 109.792 14.528 149.312 43.008 40.064 28.896 60.384 72.192 60.384 128.608-0.096 31.552-10.080 61.248-29.696 88.224v0z"></path>
</symbol>
<symbol id="icon-info-circle" viewBox="0 0 1024 1024">
	<title>info-circle</title>
	<path class="path1" d="M460.798 767.998h102.398v-307.2h-102.398v307.2zM512 0c-282.88 0-512 229.118-512 512s229.118 512 512 512 512-229.118 512-512-229.118-512-512-512v0zM512 921.602c-225.794 0-409.6-183.806-409.6-409.602 0-225.794 183.808-409.6 409.6-409.6s409.602 183.808 409.602 409.6c0 225.792-183.808 409.602-409.602 409.602zM460.798 358.402h102.398v-102.398h-102.398v102.398z"></path>
</symbol>
<symbol id="icon-user" viewBox="0 0 1024 1024">
	<title>user</title>
	<path class="path1" d="M792.742 792.938c-126.208-45.978-166.554-84.787-166.554-167.885 0-49.869 38.554-33.587 55.45-124.928 7.014-37.888 41.062-0.614 47.616-87.091 0-34.458-18.586-43.059-18.586-43.059s9.472-51.046 13.158-90.266c4.506-48.947-28.262-175.309-203.469-175.309-175.155 0-208.026 126.362-203.418 175.309 3.686 39.219 13.158 90.266 13.158 90.266s-18.637 8.55-18.637 43.059c6.502 86.477 40.55 49.203 47.565 87.091 16.947 91.341 55.501 75.059 55.501 124.928 0 83.098-40.346 121.907-166.554 167.885-126.669 46.080-208.896 93.133-208.896 125.235 0 32.051 0 107.776 0 107.776h962.56c0 0 0-75.725 0-107.776s-82.278-79.104-208.896-125.235z"></path>
</symbol>
<symbol id="icon-cross" viewBox="0 0 1024 1024">
	<title>cross</title>
	<path class="path1" d="M685.602 241.869l-173.602 173.602-173.602-173.602-96.529 96.529 173.602 173.602-173.602 173.602 96.529 96.529 173.602-173.602 173.602 173.602 96.529-96.529-173.602-173.602 173.602-173.602z"></path>
</symbol>
<symbol id="icon-cross-circle" viewBox="0 0 1024 1024">
	<title>cross-circle</title>
	<path class="path1" d="M512 0c-282.752 0-512 229.248-512 512s229.248 512 512 512 512-229.248 512-512-229.248-512-512-512zM765.248 674.752l-90.496 90.496-162.752-162.752-162.752 162.752-90.496-90.496 162.752-162.752-162.752-162.752 90.496-90.496 162.752 162.752 162.752-162.752 90.496 90.496-162.752 162.752 162.752 162.752z"></path>
</symbol>
<symbol id="icon-grab" viewBox="0 0 384 1024">
	<title>grab</title>
	<path class="path1" d="M0 64h128v128h-128v-128z"></path>
	<path class="path2" d="M0 320h128v128h-128v-128z"></path>
	<path class="path3" d="M0 576h128v128h-128v-128z"></path>
	<path class="path4" d="M0 832h128v128h-128v-128z"></path>
	<path class="path5" d="M256 64h128v128h-128v-128z"></path>
	<path class="path6" d="M256 320h128v128h-128v-128z"></path>
	<path class="path7" d="M256 576h128v128h-128v-128z"></path>
	<path class="path8" d="M256 832h128v128h-128v-128z"></path>
</symbol>
<symbol id="icon-logo" viewBox="0 0 5972 1024">
	<title>logo</title>
	<path class="path1" d="M836.14 219.438c0 42.1-13.076 84.198-37.73 120.492l-184.372 261.3h13.076c58.076 0 110.35 23.188 148.078 60.98 37.73 37.7 60.948 89.972 60.948 148.018 0 58.106-23.22 110.35-60.948 148.11-37.73 37.7-90.002 60.948-148.078 60.948h-418.056c-76.956 0-149.544-43.534-185.808-113.222-15.978-30.49-23.248-62.414-23.248-95.836 0-42.068 13.076-84.168 39.196-120.462l184.342-261.3h-14.48c-114.686 0-209.058-94.372-209.058-209.028 0-58.076 23.248-110.318 60.978-148.080 37.73-37.73 91.438-62.414 148.080-62.414h418.056c78.394 0 149.514 45 185.808 113.222 15.978 30.49 23.22 63.88 23.22 97.274zM1848.028 514.116v1.466c0 65.318-11.608 132.1-37.73 193.050-11.608 30.49-27.618 59.544-46.468 87.1-18.88 27.586-40.664 53.708-63.882 76.928-21.782 21.784-46.436 42.13-72.588 60.98-26.122 17.414-53.678 33.422-84.198 46.468-29.022 13.044-59.512 21.752-91.438 29.024-30.49 7.27-62.446 10.174-94.372 11.61h-29.022c-62.414-1.436-126.296-14.512-185.808-40.632-29.022-13.044-58.046-29.054-84.198-46.468-26.122-18.85-50.806-39.196-74.024-60.98-23.22-23.22-43.534-49.34-62.414-76.928-18.88-27.558-34.858-56.61-47.904-87.1-24.684-60.948-37.76-127.732-37.76-193.050v-1.466c0-65.318 13.076-132.1 37.76-193.050 13.044-30.49 29.024-59.542 46.468-87.1 18.85-27.586 39.166-52.272 62.414-76.956l4.338-2.902c40.632-40.632 90.002-76.928 146.614-101.61 52.272-23.218 108.884-37.73 166.93-42.098 17.414-1.466 30.49-1.466 37.76-1.466h11.608c5.806 0 17.414 0 34.858 1.466 58.046 4.368 114.656 18.88 166.93 42.098 56.61 26.152 105.95 60.98 146.582 101.61l4.368 2.902c45.032 47.902 82.762 103.078 108.884 164.056 24.684 60.95 36.294 127.732 36.294 193.050zM2679.192 217.99c0 114.658-94.34 209.028-210.494 209.028v383.226c0 116.154-92.906 209.058-209.028 209.058s-209.028-92.904-209.028-209.058v-383.226c-114.686-1.466-207.592-94.37-207.592-209.028 0-116.154 92.904-210.494 209.058-210.494h416.588c116.154 0 210.494 94.34 210.494 210.494zM3683.634 514.116v1.466c0 65.318-11.608 132.1-37.73 193.050-11.608 30.49-27.618 59.544-46.468 87.1-18.88 27.586-40.664 53.708-63.88 76.928-21.782 21.784-46.436 42.13-72.588 60.98-26.122 17.414-53.678 33.422-84.198 46.468-29.024 13.044-59.512 21.752-91.438 29.024-30.49 7.27-62.414 10.174-94.372 11.61h-29.024c-62.414-1.436-126.296-14.512-185.81-40.632-29.024-13.044-58.046-29.054-84.198-46.468-26.122-18.85-50.806-39.196-74.024-60.98-23.22-23.22-43.534-49.34-62.414-76.928-18.88-27.558-34.858-56.61-47.902-87.1-24.684-60.948-37.76-127.732-37.76-193.050v-1.466c0-65.318 13.076-132.1 37.76-193.050 13.046-30.49 29.024-59.542 46.468-87.1 18.85-27.586 39.166-52.272 62.414-76.956l4.338-2.902c40.632-40.632 90.002-76.928 146.612-101.61 52.272-23.218 108.882-37.73 166.93-42.098 17.414-1.466 30.49-1.466 37.76-1.466h11.608c5.804 0 17.414 0 34.858 1.466 58.046 4.368 114.658 18.88 166.93 42.098 56.61 26.152 105.95 60.98 146.582 101.61l4.37 2.902c45.032 47.902 82.762 103.078 108.882 164.056 24.684 60.95 36.294 127.732 36.294 193.050zM4158.66 159.918c24.686-88.536 105.98-152.418 200.35-152.418 58.046 0 110.288 24.684 148.048 62.414 37.762 37.76 62.414 90.002 62.414 148.080v592.254c0 91.47-59.512 171.298-146.614 198.854-20.346 7.302-42.1 10.174-62.446 10.174-68.22 0-132.070-31.956-172.734-88.536l-43.534-62.414c-24.686 87.1-105.95 150.952-200.32 150.952-58.078 0-110.35-23.22-148.080-60.948-37.73-37.76-60.978-90.002-60.978-148.080v-592.254c0-91.468 58.078-172.764 145.178-200.35 21.782-5.804 42.1-8.706 63.88-8.706 66.754 0 130.636 31.956 171.266 88.566l43.564 62.414zM5046.748 810.236c0 116.154-92.904 209.058-209.028 209.058-58.078 0-110.318-23.25-148.048-60.948-37.762-37.79-61.010-90.034-61.010-148.11v-592.254c0-116.154 94.372-210.494 209.058-210.494 58.078 0 110.318 24.686 148.078 62.446 37.73 37.73 60.948 89.972 60.948 148.048v592.254zM5940.534 678.472c-27.006-45.886-93.332-83.312-158.376-80.654-53.86 0.702-86.458 19.644-101.948 24.166-17.292 5.774-33.118 11.274-80.744 11.73-33.972-1.284-45.276-9.44-60.582-27.006-14.48-17.964-26.886-52.182-26.672-94.738-0.214-42.588 11.548-78.728 26.458-97.242 15.704-17.932 28.78-29.42 76.896-30.978 17.69 0.032 32.658 4.034 55.908 12.282 23.006 7.15 53.28 23.402 106.072 24.716 55.296 0.396 106.194-25.48 137.784-61.438 32.078-35.988 49.37-81.080 49.614-129.32 0.704-49.432-20.712-98.312-50.47-130.024-44.94-48.24-98.068-68.342-149.422-82.12-51.844-13.106-104.604-17.812-154.098-17.842-147.346-0.458-279.476 52.394-371.252 146.306-92.202 93.454-141.572 224.12-141.266 365.662-0.122 133.966 43.994 262.736 133.202 358.664 88.168 95.716 220.422 153.364 373.146 153.364h2.75c62.812-0.458 136.042-9.074 206.584-36.6 35.132-14.268 70.572-33.332 102.010-65.624 31.346-31.376 56.366-81.846 55.602-135.4-0.55-24.928-2.962-63.086-31.192-107.904z"></path>
</symbol>
<symbol id="icon-logo-z" viewBox="0 0 1024 1024">
	<title>logo-z</title>
	<path class="path1" d="M829.754 287.98c0 32.012-9.946 63.994-28.672 91.586l-140.156 198.626h9.95c44.144 0 83.864 17.652 112.546 46.348 28.672 28.672 46.332 68.406 46.332 112.54 0 44.164-17.66 83.856-46.332 112.574-28.68 28.65-68.422 46.346-112.544 46.346h-317.77c-58.51 0-113.678-33.090-141.228-86.086-12.14-23.184-17.684-47.41-17.684-72.832 0-31.992 9.954-63.988 29.798-91.54l140.124-198.642h-10.984c-87.178 0-158.912-71.738-158.912-158.894 0-44.148 17.686-83.838 46.37-112.57 28.666-28.68 69.492-47.436 112.566-47.436h317.768c59.586 0 113.64 34.208 141.218 86.060 12.136 23.186 17.66 48.55 17.66 73.948l-0.050-0.028z"></path>
</symbol>
<symbol id="icon-edit" viewBox="0 0 1024 1024">
	<title>edit</title>
	<path class="path1" d="M847.923 176.026c-73.83-73.882-129.28-62.822-129.28-62.822l-554.291 554.291-51.712 243.866 243.866-51.712 554.24-554.24c0 0 11.11-55.45-62.822-129.382zM341.965 830.31l-83.098 17.92c-8.038-15.002-17.715-30.003-35.379-47.718-17.664-17.664-32.717-27.29-47.718-35.328l17.971-83.149 24.013-24.013c0 0 45.261 0.922 96.307 51.968 51.098 51.098 52.019 96.358 52.019 96.358l-24.115 23.962z"></path>
</symbol>
</defs>
</svg>
