<?xml version="1.0" encoding="utf-8"?>
<!-- Generator: Adobe Illustrator 15.1.0, SVG Export Plug-In . SVG Version: 6.00 Build 0)  -->
<!DOCTYPE svg PUBLIC "-//W3C//DTD SVG 1.1//EN" "http://www.w3.org/Graphics/SVG/1.1/DTD/svg11.dtd">
<svg version="1.1" id="Layer_1" xmlns="http://www.w3.org/2000/svg" xmlns:xlink="http://www.w3.org/1999/xlink" x="0px" y="0px"
	 width="877px" height="152px" viewBox="0 0 877 152" enable-background="new 0 0 877 152" xml:space="preserve">
<g>
	<path fill="#1BA5DE" d="M123.266,37.768c-0.197,1.465-0.586,2.98-1.172,4.541c-0.394,1.565-0.929,3.03-1.611,4.395
		c-0.687,1.369-1.515,2.737-2.49,4.102L91.039,89.184h2.051c1.95,0,3.955,0.197,6.006,0.586c2.051,0.394,3.955,0.979,5.713,1.758
		c1.95,0.783,3.758,1.712,5.42,2.783c1.657,1.076,3.172,2.298,4.541,3.662c1.364,1.369,2.586,2.884,3.662,4.541
		c1.071,1.662,2,3.369,2.783,5.127c0.778,1.955,1.364,3.91,1.758,5.859c0.389,1.955,0.586,4.006,0.586,6.152
		c0,2.152-0.197,4.248-0.586,6.299c-0.394,2.051-0.979,3.955-1.758,5.713c-0.783,1.758-1.712,3.471-2.783,5.127
		c-1.076,1.662-2.298,3.178-3.662,4.541c-1.369,1.365-2.884,2.637-4.541,3.809c-1.662,1.172-3.47,2.051-5.42,2.637
		c-1.758,0.779-3.662,1.414-5.713,1.904c-2.051,0.486-4.056,0.732-6.006,0.732h-61.23c-2.93,0-5.713-0.393-8.35-1.172
		c-2.637-0.783-5.228-1.955-7.764-3.516c-2.344-1.369-4.495-3.076-6.445-5.127c-1.955-2.051-3.516-4.344-4.688-6.885
		c-0.586-1.172-1.126-2.293-1.611-3.369c-0.49-1.07-0.833-2.197-1.025-3.369c-0.394-1.172-0.636-2.389-0.732-3.662
		c-0.101-1.268-0.146-2.49-0.146-3.662c0-1.561,0.096-3.076,0.293-4.541c0.192-1.465,0.586-2.975,1.172-4.541
		c0.389-1.561,0.975-3.025,1.758-4.395c0.778-1.363,1.657-2.732,2.637-4.102L33.91,63.695h-2.051c-4.298,0-8.304-0.778-12.012-2.344
		c-3.712-1.561-6.935-3.809-9.668-6.738c-2.737-2.733-4.935-5.956-6.592-9.668c-1.662-3.708-2.49-7.617-2.49-11.719
		c0-2.147,0.192-4.248,0.586-6.299c0.389-2.051,0.975-3.955,1.758-5.713c0.778-1.758,1.708-3.465,2.783-5.127
		c1.071-1.657,2.293-3.172,3.662-4.541c1.561-1.364,3.172-2.637,4.834-3.809c1.657-1.172,3.369-2.147,5.127-2.93
		c1.758-0.778,3.662-1.415,5.713-1.904c2.051-0.485,4.147-0.732,6.299-0.732h61.23c2.733,0,5.466,0.439,8.203,1.318
		c2.733,0.879,5.273,2.005,7.617,3.369c2.344,1.369,4.491,3.076,6.445,5.127c1.95,2.051,3.516,4.349,4.688,6.885
		c0.586,1.172,1.122,2.344,1.611,3.516c0.485,1.172,0.829,2.344,1.025,3.516c0.389,1.172,0.632,2.344,0.732,3.516
		c0.096,1.172,0.146,2.444,0.146,3.809C123.559,34.792,123.458,36.303,123.266,37.768z M271.801,76.586
		c0,2.344-0.101,4.738-0.293,7.178c-0.197,2.444-0.586,4.834-1.172,7.178c-0.394,2.344-0.929,4.688-1.611,7.031
		c-0.687,2.344-1.515,4.591-2.49,6.738c-0.394,1.172-0.833,2.299-1.318,3.369c-0.49,1.076-1.025,2.197-1.611,3.369
		c-0.586,0.98-1.222,2.006-1.904,3.076c-0.687,1.076-1.318,2.102-1.904,3.076c-0.783,0.98-1.515,1.955-2.197,2.93
		c-0.687,0.98-1.419,1.955-2.197,2.93c-0.783,0.98-1.611,1.904-2.49,2.783s-1.712,1.713-2.49,2.49
		c-0.783,0.783-1.611,1.566-2.49,2.344c-0.879,0.783-1.712,1.566-2.49,2.344c-0.979,0.783-1.904,1.516-2.783,2.197
		c-0.879,0.688-1.808,1.42-2.783,2.197c-0.979,0.586-1.955,1.172-2.93,1.758c-0.979,0.586-2.051,1.172-3.223,1.758
		c-0.979,0.586-2.005,1.172-3.076,1.758c-1.076,0.586-2.101,1.072-3.076,1.465c-1.172,0.389-2.298,0.828-3.369,1.318
		c-1.076,0.486-2.197,0.828-3.369,1.025c-0.979,0.389-2.051,0.732-3.223,1.025s-2.344,0.633-3.516,1.025
		c-1.172,0.193-2.344,0.389-3.516,0.586c-1.172,0.193-2.248,0.389-3.223,0.586c-1.172,0-2.344,0.047-3.516,0.146
		c-1.172,0.096-2.344,0.146-3.516,0.146h-4.395c-2.344,0-4.642-0.146-6.885-0.439c-2.248-0.293-4.541-0.637-6.885-1.025
		c-2.344-0.586-4.642-1.223-6.885-1.904c-2.248-0.686-4.445-1.516-6.592-2.49c-0.979-0.393-2.005-0.879-3.076-1.465
		c-1.076-0.586-2.101-1.172-3.076-1.758c-1.172-0.586-2.248-1.172-3.223-1.758c-0.979-0.586-1.955-1.172-2.93-1.758
		c-0.979-0.777-1.904-1.51-2.783-2.197c-0.879-0.682-1.808-1.414-2.783-2.197c-0.979-0.777-1.858-1.561-2.637-2.344
		c-0.783-0.777-1.662-1.561-2.637-2.344c-0.783-0.777-1.565-1.611-2.344-2.49c-0.783-0.879-1.565-1.803-2.344-2.783
		c-0.783-0.975-1.565-1.949-2.344-2.93c-0.783-0.975-1.465-1.949-2.051-2.93c-0.783-0.975-1.465-2-2.051-3.076
		c-0.586-1.07-1.172-2.096-1.758-3.076c-0.586-1.172-1.172-2.293-1.758-3.369c-0.586-1.07-1.076-2.197-1.465-3.369
		c-0.979-2.146-1.808-4.394-2.49-6.738c-0.687-2.344-1.222-4.688-1.611-7.031c-0.394-2.344-0.732-4.733-1.025-7.178
		c-0.293-2.439-0.439-4.834-0.439-7.178v-0.293c0-2.344,0.146-4.734,0.439-7.178c0.293-2.439,0.632-4.834,1.025-7.178
		c0.389-2.344,0.925-4.688,1.611-7.031c0.682-2.344,1.511-4.587,2.49-6.738c0.389-1.172,0.879-2.293,1.465-3.369
		c0.586-1.071,1.172-2.197,1.758-3.369c0.586-0.975,1.172-2,1.758-3.076c0.586-1.071,1.172-2.097,1.758-3.076
		c0.778-0.975,1.511-1.95,2.197-2.93c0.682-0.975,1.415-1.95,2.197-2.93c0.778-0.975,1.561-1.904,2.344-2.783
		c0.778-0.879,1.561-1.708,2.344-2.49l0.879-0.586c1.364-1.561,2.879-3.026,4.541-4.395c1.657-1.364,3.369-2.637,5.127-3.809
		c1.758-1.364,3.612-2.586,5.566-3.662c1.95-1.071,4.001-2.097,6.152-3.076c1.95-0.778,3.905-1.511,5.859-2.197
		c1.95-0.682,4.001-1.318,6.152-1.904c1.95-0.389,3.955-0.778,6.006-1.172c2.051-0.389,4.147-0.682,6.299-0.879
		c1.364,0,2.536-0.046,3.516-0.146c0.975-0.096,1.657-0.146,2.051-0.146h1.758c0.389,0,1.025,0.05,1.904,0.146
		c0.879,0.101,1.904,0.146,3.076,0.146c2.147,0.197,4.294,0.49,6.445,0.879c2.147,0.394,4.198,0.783,6.152,1.172
		c2.147,0.586,4.198,1.222,6.152,1.904c1.95,0.687,3.905,1.419,5.859,2.197c2.147,0.979,4.147,2.051,6.006,3.223
		c1.854,1.172,3.758,2.344,5.713,3.516c1.758,1.172,3.465,2.444,5.127,3.809c1.657,1.369,3.172,2.833,4.541,4.395l0.586,0.586
		c1.758,1.565,3.369,3.323,4.834,5.273c1.465,1.955,2.879,3.909,4.248,5.859c1.364,1.955,2.637,4.005,3.809,6.152
		c1.172,2.151,2.243,4.395,3.223,6.738c0.778,2.151,1.511,4.395,2.197,6.738c0.682,2.344,1.318,4.688,1.904,7.031
		c0.389,2.344,0.682,4.738,0.879,7.178c0.192,2.444,0.293,4.834,0.293,7.178V76.586z M391.186,44.799
		c-1.662,3.809-3.859,7.082-6.592,9.814c-2.93,2.737-6.253,4.935-9.961,6.592c-3.713,1.662-7.718,2.49-12.012,2.49v55.957
		c0,4.299-0.783,8.305-2.344,12.012c-1.565,3.713-3.713,6.936-6.445,9.668c-2.737,2.732-5.96,4.93-9.668,6.592
		c-3.713,1.658-7.718,2.49-12.012,2.49c-4.299,0-8.304-0.832-12.012-2.49c-3.713-1.662-6.936-3.859-9.668-6.592
		c-2.737-2.732-4.935-5.955-6.592-9.668c-1.662-3.707-2.49-7.713-2.49-12.012V63.695c-4.102-0.192-8.011-1.071-11.719-2.637
		c-3.712-1.561-6.935-3.809-9.668-6.738c-2.737-2.733-4.884-5.956-6.445-9.668c-1.565-3.708-2.344-7.617-2.344-11.719
		c0-4.294,0.778-8.299,2.344-12.012c1.561-3.708,3.708-6.931,6.445-9.668c2.733-2.93,5.956-5.173,9.668-6.738
		c3.708-1.561,7.713-2.344,12.012-2.344h60.938c4.294,0,8.299,0.783,12.012,2.344c3.708,1.565,7.031,3.809,9.961,6.738
		c2.732,2.737,4.93,5.96,6.592,9.668c1.657,3.712,2.49,7.718,2.49,12.012C393.676,37.035,392.843,40.99,391.186,44.799z
		 M540.746,76.586c0,2.344-0.102,4.738-0.293,7.178c-0.197,2.444-0.586,4.834-1.172,7.178c-0.395,2.344-0.93,4.688-1.611,7.031
		c-0.688,2.344-1.516,4.591-2.49,6.738c-0.395,1.172-0.834,2.299-1.318,3.369c-0.49,1.076-1.025,2.197-1.611,3.369
		c-0.586,0.98-1.223,2.006-1.904,3.076c-0.688,1.076-1.318,2.102-1.904,3.076c-0.783,0.98-1.516,1.955-2.197,2.93
		c-0.688,0.98-1.42,1.955-2.197,2.93c-0.783,0.98-1.611,1.904-2.49,2.783s-1.713,1.713-2.49,2.49
		c-0.783,0.783-1.611,1.566-2.49,2.344c-0.879,0.783-1.809,1.566-2.783,2.344c-0.783,0.783-1.662,1.516-2.637,2.197
		c-0.98,0.688-1.955,1.42-2.93,2.197c-0.783,0.586-1.713,1.172-2.783,1.758c-1.076,0.586-2.102,1.172-3.076,1.758
		c-0.98,0.586-2.005,1.172-3.077,1.758c-1.076,0.586-2.197,1.072-3.369,1.465c-0.979,0.389-2.005,0.828-3.076,1.318
		c-1.076,0.486-2.197,0.828-3.369,1.025c-1.172,0.389-2.298,0.732-3.369,1.025c-1.076,0.293-2.197,0.633-3.369,1.025
		c-1.172,0.193-2.344,0.389-3.516,0.586c-1.172,0.193-2.344,0.389-3.516,0.586c-1.172,0-2.344,0.047-3.516,0.146
		c-1.172,0.096-2.344,0.146-3.516,0.146h-4.102c-2.344,0-4.642-0.146-6.885-0.439c-2.248-0.293-4.541-0.637-6.885-1.025
		c-2.344-0.586-4.642-1.223-6.884-1.904c-2.248-0.686-4.445-1.516-6.592-2.49c-0.979-0.393-2.005-0.879-3.076-1.465
		c-1.076-0.586-2.197-1.172-3.369-1.758c-0.979-0.586-1.955-1.172-2.93-1.758c-0.979-0.586-1.955-1.172-2.93-1.758
		c-0.979-0.777-1.904-1.51-2.783-2.197c-0.879-0.682-1.809-1.414-2.783-2.197c-0.979-0.777-1.904-1.561-2.783-2.344
		c-0.879-0.777-1.712-1.561-2.49-2.344c-0.783-0.777-1.611-1.611-2.49-2.49s-1.611-1.803-2.197-2.783
		c-0.783-0.975-1.565-1.949-2.344-2.93c-0.783-0.975-1.465-1.949-2.051-2.93c-0.783-0.975-1.465-2-2.051-3.076
		c-0.586-1.07-1.172-2.096-1.758-3.076c-0.586-1.172-1.172-2.293-1.758-3.369c-0.586-1.07-1.076-2.197-1.465-3.369
		c-0.979-2.146-1.809-4.394-2.49-6.738c-0.687-2.344-1.223-4.688-1.611-7.031c-0.586-2.344-0.979-4.733-1.172-7.178
		c-0.197-2.439-0.293-4.834-0.293-7.178v-0.293c0-2.344,0.096-4.734,0.293-7.178c0.192-2.439,0.586-4.834,1.172-7.178
		c0.389-2.344,0.925-4.688,1.611-7.031c0.682-2.344,1.511-4.587,2.49-6.738c0.389-1.172,0.879-2.293,1.465-3.369
		c0.586-1.071,1.172-2.197,1.758-3.369c0.586-0.975,1.172-2,1.758-3.076c0.586-1.071,1.172-2.097,1.758-3.076
		c0.778-0.975,1.511-1.95,2.197-2.93c0.682-0.975,1.414-1.95,2.197-2.93c0.778-0.975,1.561-1.904,2.344-2.783
		c0.778-0.879,1.561-1.708,2.344-2.49l0.586-0.586c1.561-1.561,3.172-3.026,4.834-4.395c1.657-1.364,3.369-2.637,5.127-3.809
		c1.758-1.364,3.611-2.586,5.566-3.662c1.95-1.071,4.001-2.097,6.152-3.076c1.95-0.778,3.904-1.511,5.859-2.197
		c1.95-0.682,3.904-1.318,5.859-1.904c2.146-0.389,4.248-0.778,6.299-1.172c2.051-0.389,4.147-0.682,6.299-0.879
		c1.364,0,2.49-0.046,3.369-0.146c0.879-0.096,1.611-0.146,2.197-0.146h1.758c0.389,0,1.025,0.05,1.904,0.146
		c0.879,0.101,1.904,0.146,3.076,0.146c2.146,0.197,4.294,0.49,6.445,0.879c2.146,0.394,4.197,0.783,6.152,1.172
		c2.146,0.586,4.197,1.222,6.152,1.904c1.95,0.687,3.904,1.419,5.859,2.197c1.95,0.979,3.905,2.051,5.86,3.223
		c1.949,1.172,3.809,2.344,5.566,3.516c1.949,1.172,3.707,2.444,5.273,3.809c1.561,1.369,3.121,2.833,4.688,4.395l0.586,0.586
		c1.758,1.565,3.369,3.323,4.834,5.273c1.465,1.955,2.879,3.909,4.248,5.859c1.363,1.955,2.637,4.005,3.809,6.152
		c1.172,2.151,2.242,4.395,3.223,6.738c0.777,2.151,1.51,4.395,2.197,6.738c0.682,2.344,1.217,4.688,1.611,7.031
		c0.586,2.344,0.975,4.738,1.172,7.178c0.191,2.444,0.293,4.834,0.293,7.178V76.586z M614.428,15.355
		c1.854-2.733,4.051-5.077,6.592-7.031c2.732-1.95,5.662-3.465,8.789-4.541c3.121-1.071,6.445-1.611,9.961-1.611
		c1.949,0,3.955,0.197,6.006,0.586c2.051,0.394,3.955,0.979,5.713,1.758c1.949,0.783,3.707,1.758,5.273,2.93
		c1.561,1.172,3.121,2.444,4.688,3.809c1.363,1.369,2.586,2.884,3.662,4.541c1.07,1.662,2,3.369,2.783,5.127
		c0.777,1.955,1.414,3.909,1.904,5.859c0.484,1.955,0.732,4.005,0.732,6.152v86.719c0,3.324-0.541,6.547-1.611,9.668
		c-1.076,3.127-2.592,5.961-4.541,8.496c-1.758,2.541-3.955,4.734-6.592,6.592c-2.637,1.854-5.617,3.369-8.936,4.541
		c-1.369,0.389-2.834,0.732-4.395,1.025c-1.566,0.293-3.127,0.439-4.688,0.439c-2.541,0-4.98-0.293-7.324-0.879
		s-4.592-1.465-6.738-2.637c-2.152-1.172-4.203-2.541-6.152-4.102c-1.955-1.561-3.617-3.414-4.98-5.566l-6.445-9.082
		c-0.98,3.127-2.395,6.057-4.248,8.789c-1.859,2.738-4.057,5.076-6.592,7.031c-2.541,1.951-5.375,3.516-8.496,4.688
		c-3.127,1.172-6.445,1.758-9.961,1.758c-2.152,0-4.248-0.246-6.299-0.732c-2.051-0.49-3.955-1.125-5.713-1.904
		c-1.758-0.586-3.471-1.465-5.127-2.637c-1.662-1.172-3.178-2.443-4.541-3.809c-1.369-1.363-2.592-2.879-3.662-4.541
		c-1.076-1.656-2.006-3.369-2.783-5.127c-0.783-1.758-1.42-3.662-1.904-5.713c-0.49-2.051-0.732-4.146-0.732-6.299V32.934
		c0-3.319,0.535-6.542,1.611-9.668c1.07-3.122,2.49-5.956,4.248-8.496c1.949-2.536,4.248-4.784,6.885-6.738
		c2.637-1.95,5.516-3.415,8.643-4.395c1.561-0.389,3.121-0.732,4.688-1.025c1.561-0.293,3.121-0.439,4.688-0.439
		c2.344,0,4.732,0.293,7.178,0.879c2.439,0.586,4.732,1.465,6.885,2.637c2.146,1.172,4.146,2.541,6.006,4.102
		c1.854,1.565,3.561,3.419,5.127,5.566l6.152,9.082C611.154,21.119,612.568,18.093,614.428,15.355z M737.914,131.664
		c-1.566,3.713-3.713,6.936-6.445,9.668c-2.738,2.732-5.961,4.93-9.668,6.592c-3.713,1.658-7.719,2.49-12.012,2.49
		c-2.152,0-4.248-0.246-6.299-0.732c-2.051-0.49-3.955-1.125-5.713-1.904c-1.758-0.586-3.471-1.465-5.127-2.637
		c-1.662-1.172-3.178-2.443-4.541-3.809c-1.369-1.363-2.637-2.879-3.809-4.541c-1.172-1.656-2.051-3.369-2.637-5.127
		c-0.783-1.758-1.42-3.662-1.904-5.713c-0.49-2.051-0.732-4.146-0.732-6.299V32.934c0-4.294,0.828-8.299,2.49-12.012
		c1.656-3.708,3.854-6.931,6.592-9.668c2.732-2.93,5.955-5.173,9.668-6.738c3.707-1.561,7.713-2.344,12.012-2.344
		c2.146,0,4.197,0.197,6.152,0.586c1.949,0.394,3.904,0.979,5.859,1.758c1.758,0.783,3.465,1.758,5.127,2.93
		c1.656,1.172,3.172,2.444,4.541,3.809c1.363,1.369,2.586,2.884,3.662,4.541c1.07,1.662,2,3.369,2.783,5.127
		c0.777,1.955,1.363,3.909,1.758,5.859c0.389,1.955,0.586,4.005,0.586,6.152v86.719
		C740.258,123.951,739.475,127.957,737.914,131.664z M867.26,95.776c-1.662-1.465-3.471-2.783-5.42-3.955
		c-2.152-1.172-4.395-2.051-6.738-2.637s-4.688-0.778-7.031-0.586c-3.91,0-7.082,0.49-9.521,1.465
		c-2.445,0.979-4.248,1.662-5.42,2.051c-1.172,0.394-2.541,0.783-4.102,1.172c-1.566,0.394-4.102,0.586-7.617,0.586
		c-2.541-0.192-4.395-0.586-5.566-1.172s-2.344-1.561-3.516-2.93c-0.395-0.586-0.834-1.364-1.318-2.344
		c-0.49-0.975-0.93-2.051-1.318-3.223c-0.395-1.172-0.688-2.439-0.879-3.809c-0.197-1.364-0.293-2.829-0.293-4.395
		c0-1.561,0.096-3.077,0.293-4.542c0.191-1.465,0.484-2.783,0.879-3.955c0.389-1.172,0.828-2.243,1.318-3.223
		c0.484-0.975,0.924-1.854,1.318-2.637c0.586-0.586,1.172-1.122,1.758-1.611c0.586-0.485,1.268-0.925,2.051-1.318
		c0.975-0.389,2.051-0.732,3.223-1.025s2.637-0.439,4.395-0.439c1.172,0,2.389,0.146,3.662,0.439
		c1.268,0.293,2.783,0.732,4.541,1.318c0.777,0.197,1.656,0.49,2.637,0.879c0.975,0.394,2.146,0.783,3.516,1.172
		c1.172,0.394,2.535,0.732,4.102,1.025c1.561,0.293,3.318,0.439,5.273,0.439c1.949,0,3.904-0.192,5.859-0.586
		c1.949-0.389,3.809-0.975,5.566-1.758c1.758-0.778,3.369-1.758,4.834-2.93s2.783-2.344,3.955-3.516
		c1.172-1.364,2.197-2.783,3.076-4.248s1.611-2.976,2.197-4.541c0.586-1.758,1.025-3.465,1.318-5.127
		c0.293-1.657,0.439-3.369,0.439-5.127c0.191-1.758,0.096-3.516-0.293-5.273c-0.395-1.758-0.879-3.516-1.465-5.273
		c-0.783-1.561-1.611-3.076-2.49-4.541s-1.904-2.783-3.076-3.955c-1.566-1.758-3.223-3.269-4.98-4.541
		c-1.758-1.268-3.617-2.39-5.566-3.369c-1.758-0.975-3.617-1.758-5.566-2.344c-1.955-0.586-3.809-1.172-5.566-1.758
		c-1.955-0.586-3.91-1.025-5.859-1.318c-1.955-0.293-3.809-0.536-5.566-0.732c-1.955-0.192-3.859-0.339-5.713-0.439
		C826.729,1.05,824.824,1,822.875,1c-5.273,0-10.451,0.49-15.527,1.465c-5.082,0.979-9.961,2.344-14.648,4.102
		c-4.496,1.758-8.789,4.005-12.891,6.738c-4.102,2.737-7.814,5.763-11.133,9.082c-3.324,3.516-6.299,7.278-8.936,11.279
		c-2.637,4.005-4.834,8.35-6.592,13.037c-1.758,4.495-3.076,9.183-3.955,14.062c-0.879,4.885-1.318,9.961-1.318,15.235
		c0,4.885,0.389,9.719,1.172,14.502c0.777,4.788,2.051,9.426,3.809,13.916c1.561,4.496,3.561,8.744,6.006,12.744
		c2.439,4.006,5.318,7.764,8.643,11.279c3.121,3.516,6.688,6.693,10.693,9.521c4,2.834,8.35,5.223,13.037,7.178
		c4.688,1.758,9.617,3.172,14.795,4.248c5.172,1.072,10.496,1.611,15.967,1.611h0.586c2.344,0,4.732-0.1,7.178-0.293
		c2.439-0.197,4.93-0.49,7.471-0.879c2.535-0.393,5.127-0.93,7.764-1.611c2.637-0.686,5.223-1.516,7.764-2.49
		c1.363-0.586,2.682-1.172,3.955-1.758c1.268-0.586,2.49-1.271,3.662-2.051c1.363-0.777,2.637-1.656,3.809-2.637
		c1.172-0.975,2.344-2.051,3.516-3.223s2.242-2.49,3.223-3.955c0.975-1.465,1.854-3.076,2.637-4.834
		c0.777-1.758,1.363-3.561,1.758-5.42c0.389-1.854,0.586-3.758,0.586-5.713c0-0.777-0.051-1.758-0.146-2.93
		c-0.102-1.172-0.344-2.439-0.732-3.809c-0.197-1.363-0.586-2.783-1.172-4.248s-1.465-3.076-2.637-4.833
		C870.234,98.756,868.916,97.241,867.26,95.776z"/>
</g>
</svg>
