<?xml version="1.0" encoding="utf-8"?>
<!-- Generator: Adobe Illustrator 15.1.0, SVG Export Plug-In . SVG Version: 6.00 Build 0)  -->
<!DOCTYPE svg PUBLIC "-//W3C//DTD SVG 1.1//EN" "http://www.w3.org/Graphics/SVG/1.1/DTD/svg11.dtd">
<svg version="1.1" id="Layer_1" xmlns="http://www.w3.org/2000/svg" xmlns:xlink="http://www.w3.org/1999/xlink" x="0px" y="0px"
	 width="512px" height="512px" viewBox="253.5 264.5 512 512" enable-background="new 253.5 264.5 512 512" xml:space="preserve">
<g id="icomoon-ignore">
</g>
<rect x="253.5" y="264.5" fill="#039BE5" width="512" height="512"/>
<g id="icomoon-ignore_1_">
</g>
<path fill="#FFFFFF" d="M668.377,408.49c0,16.006-4.973,31.996-14.336,45.793l-70.078,99.312h4.975
	c22.072,0,41.932,8.826,56.273,23.174c14.336,14.336,23.166,34.203,23.166,56.27c0,22.082-8.83,41.928-23.166,56.287
	C630.871,703.652,611,712.5,588.939,712.5H430.055c-29.256,0-56.84-16.545-70.615-43.043c-6.07-11.592-8.842-23.705-8.842-36.416
	c0-15.996,4.977-31.994,14.9-45.77l70.061-99.32h-5.492c-43.588,0-79.455-35.869-79.455-79.447c0-22.074,8.842-41.92,23.184-56.285
	c14.334-14.34,34.746-23.719,56.283-23.719h158.885c29.793,0,56.82,17.105,70.609,43.031c6.068,11.592,8.83,24.275,8.83,36.973
	L668.377,408.49z"/>
</svg>
