<?xml version="1.0" encoding="utf-8"?>
<!-- Generator: Adobe Illustrator 15.1.0, SVG Export Plug-In . SVG Version: 6.00 Build 0)  -->
<!DOCTYPE svg PUBLIC "-//W3C//DTD SVG 1.1//EN" "http://www.w3.org/Graphics/SVG/1.1/DTD/svg11.dtd">
<svg version="1.1" id="Layer_1" xmlns="http://www.w3.org/2000/svg" xmlns:xlink="http://www.w3.org/1999/xlink" x="0px" y="0px"
	 width="512px" height="512px" viewBox="0 0 512 512" enable-background="new 0 0 512 512" xml:space="preserve">
<g id="icomoon-ignore">
</g>
<path fill="#039BE5" d="M414.877,143.99c0,16.006-4.973,31.997-14.336,45.793l-70.078,99.313h4.975
	c22.072,0,41.932,8.826,56.273,23.174c14.336,14.336,23.166,34.203,23.166,56.27c0,22.082-8.83,41.928-23.166,56.287
	C377.371,439.152,357.5,448,335.439,448H176.554c-29.255,0-56.839-16.545-70.614-43.043c-6.07-11.592-8.842-23.705-8.842-36.416
	c0-15.996,4.977-31.994,14.899-45.77l70.062-99.321h-5.492c-43.589,0-79.456-35.869-79.456-79.447
	c0-22.074,8.843-41.919,23.185-56.285C134.629,73.378,155.042,64,176.579,64h158.884c29.793,0,56.82,17.104,70.609,43.03
	c6.068,11.593,8.83,24.275,8.83,36.974L414.877,143.99z"/>
</svg>
