<?xml version="1.0" encoding="utf-8"?>
<!-- Generated by IcoMoon.io -->
<!DOCTYPE svg PUBLIC "-//W3C//DTD SVG 1.1//EN" "http://www.w3.org/Graphics/SVG/1.1/DTD/svg11.dtd">
<svg version="1.1" xmlns="http://www.w3.org/2000/svg" xmlns:xlink="http://www.w3.org/1999/xlink" width="32" height="32" viewBox="0 0 32 32">
<path fill="#000000" d="M27.429 16q0 2.786-1.089 5.321t-2.929 4.375-4.375 2.929-5.321 1.089-5.321-1.089-4.375-2.929-2.929-4.375-1.089-5.321q0-3.25 1.438-6.125t4.045-4.821q0.768-0.571 1.705-0.446t1.491 0.893q0.571 0.75 0.438 1.688t-0.884 1.509q-1.75 1.321-2.705 3.232t-0.955 4.071q0 1.857 0.723 3.545t1.955 2.92 2.92 1.955 3.545 0.723 3.545-0.723 2.92-1.955 1.955-2.92 0.723-3.545q0-2.161-0.955-4.071t-2.705-3.232q-0.75-0.571-0.884-1.509t0.438-1.688q0.554-0.768 1.5-0.893t1.696 0.446q2.607 1.946 4.045 4.821t1.438 6.125zM16 2.286v11.429q0 0.929-0.679 1.607t-1.607 0.679-1.607-0.679-0.679-1.607v-11.429q0-0.929 0.679-1.607t1.607-0.679 1.607 0.679 0.679 1.607z"></path>
</svg>
