<svg viewBox="0 0 30 30" xmlns="http://www.w3.org/2000/svg"><path d="M14.973 0c4.213 0 7.768 1.446 10.66 4.34C28.544 7.25 30 10.803 30 15c0 4.215-1.43 7.723-4.287 10.526C22.678 28.51 19.098 30 14.973 30c-4.054 0-7.571-1.474-10.553-4.42C1.474 22.633 0 19.107 0 15S1.474 7.34 4.42 4.34C7.313 1.446 10.83 0 14.973 0zm.054 2.706c-3.41 0-6.295 1.196-8.652 3.589-2.447 2.5-3.67 5.402-3.67 8.706 0 3.321 1.214 6.196 3.642 8.624 2.429 2.429 5.322 3.642 8.679 3.642 3.339 0 6.25-1.222 8.732-3.67 2.358-2.267 3.536-5.133 3.536-8.598 0-3.41-1.197-6.311-3.589-8.705-2.392-2.392-5.285-3.588-8.678-3.588zm4.018 8.57v6.134H17.33v7.286h-4.66V17.41h-1.714v-6.134a.93.93 0 01.28-.683.933.933 0 01.684-.281h6.161c.25 0 .474.093.67.28a.912.912 0 01.294.684zM12.91 7.42c0-1.41.696-2.116 2.09-2.116s2.09.705 2.09 2.116c0 1.393-.697 2.09-2.09 2.09-1.393 0-2.09-.697-2.09-2.09z" fill="currentColor"/></svg>
