<svg xmlns="http://www.w3.org/2000/svg" viewBox="0 0 30 30"><path d="M14.973 0c4.214 0 7.768 1.446 10.66 4.339C28.544 7.232 30 10.786 30 15c0 4.215-1.429 7.723-4.287 10.527C22.678 28.51 19.097 30 14.973 30c-4.072 0-7.59-1.482-10.553-4.446C1.474 22.607 0 19.09 0 15c0-4.107 1.474-7.66 4.42-10.66C7.313 1.446 10.83 0 14.973 0zM3.375 10.956c-.446 1.232-.67 2.58-.67 4.045 0 3.321 1.214 6.196 3.642 8.624 2.447 2.412 5.34 3.617 8.679 3.617 3.375 0 6.285-1.223 8.733-3.67.875-.839 1.561-1.714 2.061-2.626l-5.651-2.518a3.866 3.866 0 01-1.433 2.317c-.76.598-1.657.943-2.693 1.031v2.304h-1.74v-2.304c-1.661-.017-3.18-.615-4.554-1.794l2.063-2.089c.981.91 2.098 1.366 3.348 1.366.517 0 .96-.116 1.326-.349.366-.231.55-.615.55-1.151 0-.376-.135-.68-.402-.911l-1.447-.617-1.767-.804-2.384-1.044-7.661-3.427zm11.652-8.278c-3.41 0-6.295 1.206-8.652 3.616-.59.59-1.143 1.26-1.66 2.01l5.732 2.571a3.513 3.513 0 011.42-1.888c.695-.473 1.508-.737 2.437-.79V5.893h1.741v2.304c1.376.071 2.625.535 3.75 1.392L17.84 11.6c-.84-.59-1.697-.884-2.572-.884-.464 0-.88.09-1.245.267-.366.179-.55.483-.55.911 0 .125.045.25.134.375l1.902.858 1.313.59 2.41 1.07 7.687 3.429c.25-1.054.375-2.125.375-3.214 0-3.447-1.196-6.349-3.588-8.707-2.375-2.41-5.27-3.616-8.68-3.616z" fill="currentColor"/></svg>
