<svg viewBox="0 0 30 30" xmlns="http://www.w3.org/2000/svg"><path d="M14.973 0c4.196 0 7.75 1.455 10.66 4.366C28.544 7.26 30 10.804 30 15c0 4.197-1.43 7.714-4.287 10.553C22.696 28.518 19.115 30 14.973 30c-4.054 0-7.571-1.473-10.553-4.42C1.474 22.634 0 19.108 0 15c0-4.088 1.474-7.633 4.42-10.633C7.33 1.455 10.848 0 14.973 0zm.054 2.706c-3.41 0-6.295 1.205-8.652 3.616-2.447 2.483-3.67 5.375-3.67 8.678 0 3.34 1.214 6.214 3.642 8.625 2.429 2.43 5.322 3.643 8.679 3.643 3.339 0 6.25-1.223 8.732-3.67 2.358-2.285 3.536-5.151 3.536-8.598 0-3.428-1.197-6.321-3.589-8.678-2.375-2.412-5.268-3.616-8.678-3.616zM8.33 12.884c.286-1.84 1.026-3.264 2.223-4.273 1.196-1.008 2.651-1.513 4.366-1.513 2.356 0 4.232.76 5.625 2.277 1.393 1.517 2.09 3.464 2.09 5.839 0 2.304-.724 4.219-2.17 5.745-1.447 1.526-3.321 2.29-5.626 2.29-1.696 0-3.16-.508-4.392-1.527-1.233-1.018-1.973-2.464-2.224-4.339H12c.09 1.822 1.187 2.733 3.295 2.733 1.053 0 1.902-.456 2.544-1.366.644-.91.965-2.126.965-3.643 0-1.59-.294-2.799-.883-3.63-.59-.83-1.437-1.245-2.545-1.245-2.001 0-3.126.884-3.375 2.651h1.098l-2.973 2.973-2.973-2.973H8.33z" fill="currentColor"/></svg>
