<svg id="FINAL" xmlns="http://www.w3.org/2000/svg" viewBox="0 0 104.76 104.76"><defs><style>.cls-1{fill:#414042;}</style></defs><title>InC.Solo.dark</title><path class="cls-1" d="M1125.8,1605.88a52.38,52.38,0,0,0-52.38,52.38v52.38h52.38a52.38,52.38,0,0,0,52.38-52.38v-52.38H1125.8Zm0,95.21a42.81,42.81,0,1,1,42.81-42.81A42.82,42.82,0,0,1,1125.8,1701.09Z" transform="translate(-1073.42 -1605.88)"/><path class="cls-1" d="M1114.22,1670.95a15.3,15.3,0,0,0,11.24,4.64,18.09,18.09,0,0,0,14.77-7.15l7.86,8.09q-9.35,10.53-22,10.53t-20.9-8q-8.21-8-8.21-20.23a27.34,27.34,0,0,1,8.37-20.39,28.19,28.19,0,0,1,20.47-8.17,29,29,0,0,1,22.63,10.29l-7.62,8.64q-5.82-7.23-14.46-7.23a16.85,16.85,0,0,0-11.83,4.52q-4.91,4.52-4.91,12.18T1114.22,1670.95Z" transform="translate(-1073.42 -1605.88)"/></svg>