<svg id="FINAL" xmlns="http://www.w3.org/2000/svg" viewBox="0 0 104.76 104.76"><defs><style>.cls-1{fill:#414042;}</style></defs><title>NoC.Solo.dark</title><path class="cls-1" d="M1321.8,1606.1v52.38a52.38,52.38,0,0,1-52.38,52.38H1217v-52.38a52.38,52.38,0,0,1,52.38-52.38h52.38ZM1240.58,1659a27.47,27.47,0,0,1,8.35-20.4,28.25,28.25,0,0,1,20.49-8.14,28.75,28.75,0,0,1,15.31,4.11l10.35-10.35a42.77,42.77,0,0,0-59.89,59.89l9.67-9.67A27.52,27.52,0,0,1,1240.58,1659Zm62.56-26.89-41.73,41.73a15.19,15.19,0,0,0,7.68,2,18.14,18.14,0,0,0,14.8-7.17l7.85,8.1q-9.35,10.5-22.05,10.52a29.77,29.77,0,0,1-16.92-4.75l-9.67,9.67a42.37,42.37,0,0,0,26.34,9.12A42.78,42.78,0,0,0,1303.14,1632.1Zm-49.92,26.72a19.59,19.59,0,0,0,.93,6.32l21.93-21.93a17.11,17.11,0,0,0-6.11-1.06,16.82,16.82,0,0,0-11.83,4.5C1254.87,1649.66,1253.22,1653.73,1253.22,1658.82Z" transform="translate(-1217.04 -1606.1)"/></svg>