<?xml version="1.0" encoding="utf-8"?>
<!-- Generated by IcoMoon.io -->
<!DOCTYPE svg PUBLIC "-//W3C//DTD SVG 1.1//EN" "http://www.w3.org/Graphics/SVG/1.1/DTD/svg11.dtd">
<svg version="1.1" xmlns="http://www.w3.org/2000/svg" xmlns:xlink="http://www.w3.org/1999/xlink" width="30" height="32" viewBox="0 0 30 32">
<path fill="#000000" d="M13.125 14.214q0 0.643 0.571 1.259t1.384 1.214 1.616 1.313 1.375 1.857 0.571 2.536q0 1.607-0.857 3.089-1.286 2.179-3.768 3.205t-5.321 1.027q-2.357 0-4.402-0.741t-3.063-2.455q-0.661-1.071-0.661-2.339 0-1.446 0.795-2.679t2.116-2.054q2.339-1.464 7.214-1.786-0.571-0.75-0.848-1.321t-0.277-1.304q0-0.643 0.375-1.518-0.821 0.071-1.214 0.071-2.643 0-4.455-1.723t-1.813-4.366q0-1.464 0.643-2.839t1.768-2.339q1.375-1.179 3.259-1.75t3.884-0.571h7.464l-2.464 1.571h-2.339q1.321 1.125 2 2.375t0.679 2.857q0 1.286-0.438 2.312t-1.054 1.661-1.241 1.161-1.063 1.098-0.438 1.179zM10.518 12.5q0.679 0 1.393-0.295t1.179-0.777q0.946-1.018 0.946-2.839 0-1.036-0.304-2.232t-0.866-2.313-1.509-1.848-2.089-0.732q-0.75 0-1.473 0.348t-1.17 0.938q-0.839 1.054-0.839 2.857 0 0.821 0.179 1.741t0.563 1.839 0.929 1.652 1.339 1.196 1.723 0.464zM10.554 28.089q1.036 0 1.991-0.232t1.768-0.696 1.304-1.304 0.491-1.946q0-0.446-0.125-0.875t-0.259-0.75-0.482-0.741-0.527-0.625-0.688-0.616-0.652-0.518-0.741-0.536-0.652-0.464q-0.286-0.036-0.857-0.036-0.946 0-1.875 0.125t-1.92 0.446-1.732 0.821-1.223 1.33-0.482 1.884q0 1.25 0.625 2.205t1.634 1.482 2.125 0.786 2.277 0.259zM25.018 12.446h3.804v1.929h-3.804v3.911h-1.875v-3.911h-3.786v-1.929h3.786v-3.875h1.875v3.875z"></path>
</svg>
