<?xml version="1.0" encoding="utf-8"?>
<!-- Generated by IcoMoon.io -->
<!DOCTYPE svg PUBLIC "-//W3C//DTD SVG 1.1//EN" "http://www.w3.org/Graphics/SVG/1.1/DTD/svg11.dtd">
<svg version="1.1" xmlns="http://www.w3.org/2000/svg" xmlns:xlink="http://www.w3.org/1999/xlink" width="32" height="32" viewBox="0 0 32 32">
<path fill="#000000" d="M15.788 0.001c-8.836 0.118-15.904 7.38-15.787 16.215 0.119 8.831 7.378 15.901 16.215 15.783 8.833-0.119 15.902-7.378 15.782-16.215-0.116-8.833-7.375-15.9-16.21-15.783v0zM15.741 25.739h-0.089c-1.36-0.039-2.32-1.043-2.282-2.384 0.039-1.317 1.021-2.275 2.337-2.275l0.081 0.001c1.398 0.042 2.348 1.036 2.306 2.414-0.038 1.321-1.007 2.244-2.353 2.244v0zM21.465 14.38c-0.322 0.453-1.025 1.019-1.912 1.709l-0.977 0.676c-0.536 0.417-0.859 0.809-0.979 1.191-0.098 0.307-0.143 0.387-0.151 1.002l-0.001 0.159h-3.727l0.010-0.318c0.045-1.295 0.079-2.058 0.616-2.689 0.844-0.989 2.705-2.188 2.783-2.237 0.266-0.202 0.49-0.43 0.659-0.674 0.392-0.54 0.564-0.965 0.564-1.381 0-0.579-0.172-1.115-0.512-1.592-0.327-0.461-0.948-0.694-1.845-0.694-0.891 0-1.499 0.283-1.864 0.864-0.378 0.596-0.565 1.221-0.565 1.86v0.161h-3.843l0.007-0.169c0.099-2.354 0.938-4.048 2.498-5.038 0.977-0.631 2.194-0.95 3.614-0.95 1.859 0 3.431 0.454 4.666 1.344 1.252 0.903 1.887 2.256 1.887 4.019-0.003 0.986-0.315 1.914-0.928 2.757v0z"></path>
</svg>
