<?xml version="1.0" encoding="utf-8"?>
<!-- Generated by IcoMoon.io -->
<!DOCTYPE svg PUBLIC "-//W3C//DTD SVG 1.1//EN" "http://www.w3.org/Graphics/SVG/1.1/DTD/svg11.dtd">
<svg version="1.1" xmlns="http://www.w3.org/2000/svg" xmlns:xlink="http://www.w3.org/1999/xlink" width="32" height="32" viewBox="0 0 32 32">
<path fill="#000000" d="M18.094 23.495c0.042-1.378-0.908-2.372-2.306-2.414l-0.081-0.001c-1.316 0-2.298 0.958-2.337 2.275-0.038 1.34 0.922 2.345 2.282 2.384h0.089c1.346 0 2.316-0.923 2.353-2.244z"></path>
<path fill="#000000" d="M18.576 16.766l0.977-0.677c0.887-0.69 1.59-1.256 1.912-1.709 0.613-0.843 0.926-1.771 0.928-2.757 0-1.763-0.635-3.116-1.887-4.019-1.234-0.89-2.807-1.344-4.666-1.344-1.42 0-2.637 0.319-3.614 0.95-1.56 0.99-2.399 2.684-2.498 5.038l-0.007 0.169h3.843v-0.161c0-0.639 0.187-1.264 0.565-1.86 0.365-0.581 0.973-0.864 1.864-0.864 0.897 0 1.519 0.233 1.845 0.694 0.34 0.477 0.512 1.013 0.512 1.592 0 0.416-0.172 0.841-0.563 1.381-0.169 0.244-0.394 0.472-0.659 0.674-0.078 0.049-1.939 1.248-2.783 2.237-0.537 0.631-0.571 1.394-0.616 2.689l-0.010 0.318h3.728v-0.159c0.009-0.615 0.054-0.694 0.152-1.002 0.118-0.382 0.441-0.774 0.977-1.19z"></path>
</svg>
