<?xml version="1.0" encoding="utf-8"?>
<!-- Generated by IcoMoon.io -->
<!DOCTYPE svg PUBLIC "-//W3C//DTD SVG 1.1//EN" "http://www.w3.org/Graphics/SVG/1.1/DTD/svg11.dtd">
<svg version="1.1" xmlns="http://www.w3.org/2000/svg" xmlns:xlink="http://www.w3.org/1999/xlink" width="32" height="32" viewBox="0 0 32 32">
<path fill="#000000" d="M24.321 25.464v-11.571h-2.411q0.357 1.125 0.357 2.339 0 2.25-1.143 4.152t-3.107 3.009-4.286 1.107q-3.518 0-6.018-2.42t-2.5-5.848q0-1.214 0.357-2.339h-2.518v11.571q0 0.464 0.313 0.777t0.777 0.313h19.089q0.446 0 0.768-0.313t0.321-0.777zM19.25 15.946q0-2.214-1.616-3.777t-3.902-1.563q-2.268 0-3.884 1.563t-1.616 3.777 1.616 3.777 3.884 1.563q2.286 0 3.902-1.563t1.616-3.777zM24.321 9.518v-2.946q0-0.5-0.357-0.866t-0.875-0.366h-3.107q-0.518 0-0.875 0.366t-0.357 0.866v2.946q0 0.518 0.357 0.875t0.875 0.357h3.107q0.518 0 0.875-0.357t0.357-0.875zM27.429 5.804v20.393q0 1.446-1.036 2.482t-2.482 1.036h-20.393q-1.446 0-2.482-1.036t-1.036-2.482v-20.393q0-1.446 1.036-2.482t2.482-1.036h20.393q1.446 0 2.482 1.036t1.036 2.482z"></path>
</svg>
