<?xml version="1.0" encoding="utf-8"?>
<!-- Generated by IcoMoon.io -->
<!DOCTYPE svg PUBLIC "-//W3C//DTD SVG 1.1//EN" "http://www.w3.org/Graphics/SVG/1.1/DTD/svg11.dtd">
<svg version="1.1" xmlns="http://www.w3.org/2000/svg" xmlns:xlink="http://www.w3.org/1999/xlink" width="187" height="32" viewBox="0 0 187 32">
<path fill="#000000" d="M26.129 6.857c0 1.316-0.409 2.631-1.179 3.765l-5.762 8.166h0.409c1.815 0 3.448 0.725 4.627 1.906 1.179 1.178 1.905 2.812 1.905 4.626 0 1.816-0.726 3.448-1.905 4.628-1.179 1.178-2.813 1.905-4.627 1.905h-13.064c-2.405 0-4.673-1.36-5.806-3.538-0.499-0.953-0.727-1.95-0.727-2.995 0-1.315 0.409-2.63 1.225-3.764l5.761-8.166h-0.452c-3.584 0-6.533-2.949-6.533-6.532 0-1.815 0.727-3.447 1.906-4.628 1.179-1.179 2.857-1.95 4.628-1.95h13.064c2.45 0 4.672 1.406 5.806 3.538 0.499 0.953 0.726 1.996 0.726 3.040zM57.751 16.066v0.046c0 2.041-0.363 4.128-1.179 6.033-0.363 0.953-0.863 1.861-1.452 2.722s-1.271 1.678-1.996 2.404c-0.681 0.681-1.451 1.317-2.268 1.906-0.816 0.544-1.677 1.044-2.631 1.452-0.907 0.408-1.86 0.68-2.857 0.907-0.953 0.227-1.951 0.318-2.949 0.363h-0.907c-1.95-0.045-3.947-0.454-5.806-1.27-0.907-0.408-1.814-0.908-2.631-1.452-0.816-0.589-1.588-1.225-2.313-1.906-0.726-0.726-1.36-1.542-1.95-2.404s-1.089-1.769-1.497-2.722c-0.771-1.905-1.18-3.992-1.18-6.033v-0.046c0-2.041 0.409-4.128 1.18-6.033 0.408-0.953 0.907-1.861 1.452-2.722 0.589-0.862 1.224-1.633 1.95-2.405l0.136-0.091c1.27-1.27 2.813-2.404 4.582-3.175 1.633-0.726 3.403-1.179 5.217-1.316 0.544-0.046 0.953-0.046 1.18-0.046h0.363c0.181 0 0.544 0 1.089 0.046 1.814 0.137 3.583 0.59 5.217 1.316 1.769 0.817 3.311 1.906 4.581 3.175l0.136 0.091c1.407 1.497 2.586 3.221 3.403 5.127 0.771 1.905 1.134 3.992 1.134 6.033zM83.725 6.812c0 3.583-2.948 6.532-6.578 6.532v11.976c0 3.63-2.903 6.533-6.532 6.533s-6.532-2.903-6.532-6.533v-11.976c-3.584-0.046-6.487-2.949-6.487-6.532 0-3.63 2.903-6.578 6.533-6.578h13.018c3.63 0 6.578 2.948 6.578 6.578zM115.114 16.066v0.046c0 2.041-0.363 4.128-1.179 6.033-0.363 0.953-0.863 1.861-1.452 2.722s-1.271 1.678-1.996 2.404c-0.681 0.681-1.451 1.317-2.268 1.906-0.816 0.544-1.677 1.044-2.631 1.452-0.907 0.408-1.86 0.68-2.857 0.907-0.953 0.227-1.95 0.318-2.949 0.363h-0.907c-1.95-0.045-3.947-0.454-5.807-1.27-0.907-0.408-1.814-0.908-2.631-1.452-0.816-0.589-1.588-1.225-2.313-1.906-0.726-0.726-1.36-1.542-1.95-2.404s-1.089-1.769-1.497-2.722c-0.771-1.905-1.18-3.992-1.18-6.033v-0.046c0-2.041 0.409-4.128 1.18-6.033 0.408-0.953 0.907-1.861 1.452-2.722 0.589-0.862 1.224-1.633 1.95-2.405l0.136-0.091c1.27-1.27 2.813-2.404 4.582-3.175 1.633-0.726 3.403-1.179 5.217-1.316 0.544-0.046 0.953-0.046 1.18-0.046h0.363c0.181 0 0.544 0 1.089 0.046 1.814 0.137 3.583 0.59 5.217 1.316 1.769 0.817 3.311 1.906 4.581 3.175l0.137 0.091c1.407 1.497 2.586 3.221 3.403 5.127 0.771 1.905 1.134 3.992 1.134 6.033zM129.958 4.997c0.771-2.767 3.312-4.763 6.261-4.763 1.814 0 3.446 0.771 4.626 1.95s1.95 2.813 1.95 4.628v18.508c0 2.858-1.86 5.353-4.582 6.214-0.636 0.228-1.316 0.318-1.951 0.318-2.132 0-4.127-0.999-5.398-2.767l-1.36-1.95c-0.771 2.722-3.311 4.717-6.26 4.717-1.815 0-3.448-0.726-4.627-1.905-1.179-1.18-1.906-2.813-1.906-4.628v-18.508c0-2.858 1.815-5.399 4.537-6.261 0.681-0.181 1.316-0.272 1.996-0.272 2.086 0 4.082 0.999 5.352 2.768l1.361 1.95zM157.711 25.32c0 3.63-2.903 6.533-6.532 6.533-1.815 0-3.447-0.727-4.626-1.905-1.18-1.181-1.907-2.814-1.907-4.628v-18.508c0-3.63 2.949-6.578 6.533-6.578 1.815 0 3.447 0.771 4.627 1.951s1.905 2.812 1.905 4.627v18.508zM185.642 21.202c-0.844-1.434-2.917-2.604-4.949-2.52-1.683 0.022-2.702 0.614-3.186 0.755-0.54 0.18-1.035 0.352-2.523 0.367-1.062-0.040-1.415-0.295-1.893-0.844-0.452-0.561-0.84-1.631-0.833-2.961-0.007-1.331 0.361-2.46 0.827-3.039 0.491-0.56 0.899-0.919 2.403-0.968 0.553 0.001 1.021 0.126 1.747 0.384 0.719 0.223 1.665 0.731 3.315 0.772 1.728 0.012 3.319-0.796 4.306-1.92 1.002-1.125 1.543-2.534 1.55-4.041 0.022-1.545-0.647-3.072-1.577-4.063-1.404-1.508-3.065-2.136-4.669-2.566-1.62-0.41-3.269-0.557-4.816-0.558-4.605-0.014-8.734 1.637-11.602 4.572-2.881 2.92-4.424 7.004-4.415 11.427-0.004 4.186 1.375 8.211 4.163 11.208 2.755 2.991 6.888 4.793 11.661 4.793h0.086c1.963-0.014 4.251-0.284 6.456-1.144 1.098-0.446 2.205-1.042 3.188-2.051 0.98-0.98 1.761-2.558 1.738-4.231-0.017-0.779-0.093-1.971-0.975-3.372z"></path>
</svg>
