<?xml version="1.0" encoding="utf-8"?>
<!-- Generated by IcoMoon.io -->
<!DOCTYPE svg PUBLIC "-//W3C//DTD SVG 1.1//EN" "http://www.w3.org/Graphics/SVG/1.1/DTD/svg11.dtd">
<svg version="1.1" xmlns="http://www.w3.org/2000/svg" xmlns:xlink="http://www.w3.org/1999/xlink" width="32" height="32" viewBox="0 0 32 32">
<path fill="#000000" d="M25.93 8.999c0 1-0.311 2-0.896 2.862l-4.38 6.207h0.311c1.38 0 2.621 0.552 3.517 1.448s1.448 2.138 1.448 3.517c0 1.38-0.552 2.62-1.448 3.518-0.896 0.895-2.138 1.448-3.517 1.448h-9.93c-1.828 0-3.552-1.034-4.413-2.69-0.379-0.724-0.553-1.482-0.553-2.276 0-1 0.311-2 0.931-2.861l4.379-6.208h-0.343c-2.724 0-4.966-2.242-4.966-4.965 0-1.38 0.553-2.62 1.449-3.518 0.896-0.896 2.172-1.482 3.518-1.482h9.93c1.862 0 3.551 1.069 4.413 2.689 0.379 0.725 0.552 1.517 0.552 2.311l-0.002-0.001z"></path>
</svg>
