<?xml version="1.0" encoding="utf-8"?>
<!-- Generated by IcoMoon.io -->
<!DOCTYPE svg PUBLIC "-//W3C//DTD SVG 1.1//EN" "http://www.w3.org/Graphics/SVG/1.1/DTD/svg11.dtd">
<svg version="1.1" xmlns="http://www.w3.org/2000/svg" xmlns:xlink="http://www.w3.org/1999/xlink" width="32" height="32" viewBox="0 0 32 32">
<path fill="#000000" d="M24 26.154h-20.8v-14.975h4.792c0 0 1.175-1.642 3.558-3.183h-9.95c-0.883 0-1.6 0.708-1.6 1.592v18.158c0 0.875 0.717 1.592 1.6 1.592h24c0.883 0 1.6-0.708 1.6-1.592v-9.083l-3.2 2.617v4.875h-0zM21.333 13.329v5.325l10.667-7.958-10.667-8.033v4.975c-12.9 0-13.333 13.692-13.333 13.692 3.65-5.958 6.333-8 13.333-8v0z"></path>
</svg>
