<?xml version="1.0" encoding="utf-8"?>
<!-- Generated by IcoMoon.io -->
<!DOCTYPE svg PUBLIC "-//W3C//DTD SVG 1.1//EN" "http://www.w3.org/Graphics/SVG/1.1/DTD/svg11.dtd">
<svg version="1.1" xmlns="http://www.w3.org/2000/svg" xmlns:xlink="http://www.w3.org/1999/xlink" width="32" height="32" viewBox="0 0 32 32">
<path fill="#000000" d="M24.773 24.779c-3.944-1.437-5.205-2.65-5.205-5.246 0-1.558 1.205-1.050 1.733-3.904 0.219-1.184 1.283-0.019 1.488-2.722 0-1.077-0.581-1.346-0.581-1.346s0.296-1.595 0.411-2.821c0.141-1.53-0.883-5.478-6.358-5.478-5.474 0-6.501 3.949-6.357 5.478 0.115 1.226 0.411 2.821 0.411 2.821s-0.582 0.267-0.582 1.346c0.203 2.702 1.267 1.538 1.486 2.722 0.53 2.854 1.734 2.346 1.734 3.904 0 2.597-1.261 3.81-5.205 5.246-3.958 1.44-6.528 2.91-6.528 3.914 0 1.002 0 3.368 0 3.368h30.080c0 0 0-2.366 0-3.368s-2.571-2.472-6.528-3.914z"></path>
</svg>
